<svg xmlns="http://www.w3.org/2000/svg" xmlns:xlink="http://www.w3.org/1999/xlink" width="280" zoomAndPan="magnify" viewBox="0 0 210 207.000001" height="276" preserveAspectRatio="xMidYMid meet" version="1.2"><defs><clipPath id="4bce80c14c"><path d="M 2 0 L 208.003906 0 L 208.003906 206 L 2 206 Z M 2 0 "/></clipPath></defs><g id="f1432a9035"><g clip-rule="nonzero" clip-path="url(#4bce80c14c)"><path style=" stroke:none;fill-rule:nonzero;fill:#ffffff;fill-opacity:1;" d="M 201.839844 165.203125 C 203.894531 160.730469 205.4375 156.085938 206.480469 151.273438 C 207.519531 146.460938 208.027344 141.59375 208.003906 136.671875 C 208.003906 135.550781 207.976562 134.429688 207.921875 133.3125 C 207.863281 132.191406 207.78125 131.074219 207.671875 129.957031 C 207.5625 128.84375 207.425781 127.730469 207.261719 126.621094 C 207.097656 125.515625 206.90625 124.410156 206.6875 123.3125 C 206.46875 122.210938 206.222656 121.117188 205.949219 120.03125 C 205.679688 118.945312 205.378906 117.863281 205.054688 116.792969 C 204.726562 115.71875 204.378906 114.65625 204 113.601562 C 203.621094 112.546875 203.21875 111.5 202.789062 110.464844 C 202.359375 109.429688 201.90625 108.40625 201.429688 107.394531 C 200.949219 106.378906 200.445312 105.378906 199.917969 104.390625 C 199.386719 103.402344 198.835938 102.425781 198.261719 101.464844 C 197.683594 100.503906 197.085938 99.558594 196.460938 98.625 C 195.839844 97.695312 195.195312 96.777344 194.527344 95.878906 C 193.859375 94.976562 193.167969 94.09375 192.457031 93.230469 C 191.746094 92.363281 191.015625 91.515625 190.261719 90.683594 C 189.511719 89.851562 188.738281 89.042969 187.945312 88.25 C 187.152344 87.457031 186.339844 86.683594 185.511719 85.933594 C 184.679688 85.179688 183.832031 84.449219 182.964844 83.738281 C 182.101562 83.027344 181.21875 82.335938 180.316406 81.667969 C 179.417969 81 178.5 80.355469 177.570312 79.734375 C 176.636719 79.109375 175.691406 78.511719 174.730469 77.933594 C 173.769531 77.359375 172.792969 76.808594 171.804688 76.277344 C 170.816406 75.75 169.816406 75.246094 168.800781 74.765625 C 167.789062 74.289062 166.765625 73.835938 165.730469 73.40625 C 164.695312 72.976562 163.648438 72.574219 162.59375 72.195312 C 161.539062 71.816406 160.476562 71.464844 159.402344 71.140625 C 158.328125 70.816406 157.25 70.515625 156.164062 70.246094 C 155.074219 69.972656 153.984375 69.726562 152.882812 69.507812 C 151.785156 69.289062 150.679688 69.097656 149.570312 68.933594 C 148.464844 68.769531 147.351562 68.632812 146.238281 68.523438 C 145.121094 68.414062 144.003906 68.332031 142.882812 68.273438 C 141.765625 68.21875 140.644531 68.191406 139.523438 68.191406 C 139.523438 67.070312 139.496094 65.953125 139.441406 64.832031 C 139.386719 63.714844 139.304688 62.597656 139.195312 61.480469 C 139.085938 60.367188 138.949219 59.253906 138.78125 58.144531 C 138.617188 57.035156 138.425781 55.933594 138.207031 54.832031 C 137.988281 53.734375 137.746094 52.640625 137.472656 51.554688 C 137.199219 50.46875 136.902344 49.386719 136.574219 48.316406 C 136.25 47.242188 135.898438 46.179688 135.519531 45.125 C 135.144531 44.066406 134.742188 43.023438 134.3125 41.988281 C 133.882812 40.953125 133.429688 39.925781 132.949219 38.914062 C 132.46875 37.902344 131.96875 36.902344 131.4375 35.914062 C 130.910156 34.925781 130.359375 33.949219 129.78125 32.988281 C 129.207031 32.027344 128.605469 31.082031 127.984375 30.148438 C 127.359375 29.214844 126.714844 28.300781 126.046875 27.402344 C 125.378906 26.5 124.691406 25.617188 123.980469 24.75 C 123.269531 23.882812 122.539062 23.035156 121.785156 22.207031 C 121.03125 21.375 120.261719 20.5625 119.46875 19.769531 C 118.675781 18.980469 117.863281 18.207031 117.035156 17.453125 C 116.203125 16.703125 115.355469 15.96875 114.488281 15.257812 C 113.621094 14.546875 112.738281 13.859375 111.839844 13.191406 C 110.9375 12.523438 110.023438 11.878906 109.089844 11.253906 C 108.160156 10.632812 107.210938 10.035156 106.25 9.457031 C 105.289062 8.882812 104.316406 8.328125 103.328125 7.800781 C 102.339844 7.273438 101.335938 6.769531 100.324219 6.289062 C 99.3125 5.808594 98.285156 5.355469 97.25 4.925781 C 96.214844 4.5 95.171875 4.09375 94.117188 3.71875 C 93.0625 3.339844 91.996094 2.988281 90.925781 2.664062 C 89.851562 2.339844 88.773438 2.039062 87.683594 1.765625 C 86.597656 1.496094 85.503906 1.25 84.40625 1.03125 C 83.304688 0.8125 82.203125 0.621094 81.09375 0.457031 C 79.984375 0.292969 78.875 0.152344 77.757812 0.0429688 C 76.644531 -0.0664062 75.527344 -0.148438 74.40625 -0.203125 C 73.285156 -0.257812 72.167969 -0.285156 71.046875 -0.285156 C 69.925781 -0.285156 68.804688 -0.257812 67.6875 -0.203125 C 66.566406 -0.148438 65.449219 -0.0664062 64.335938 0.0429688 C 63.21875 0.152344 62.105469 0.292969 61 0.457031 C 59.890625 0.621094 58.785156 0.8125 57.6875 1.03125 C 56.585938 1.25 55.496094 1.496094 54.40625 1.765625 C 53.320312 2.039062 52.242188 2.339844 51.167969 2.664062 C 50.097656 2.988281 49.03125 3.339844 47.976562 3.71875 C 46.921875 4.09375 45.875 4.5 44.839844 4.925781 C 43.804688 5.355469 42.78125 5.808594 41.769531 6.289062 C 40.753906 6.769531 39.753906 7.273438 38.765625 7.800781 C 37.777344 8.328125 36.804688 8.882812 35.839844 9.457031 C 34.878906 10.035156 33.933594 10.632812 33 11.253906 C 32.070312 11.878906 31.152344 12.523438 30.253906 13.191406 C 29.355469 13.859375 28.46875 14.546875 27.605469 15.257812 C 26.738281 15.96875 25.890625 16.703125 25.058594 17.453125 C 24.230469 18.207031 23.417969 18.980469 22.625 19.769531 C 21.832031 20.5625 21.058594 21.375 20.308594 22.207031 C 19.554688 23.035156 18.824219 23.882812 18.113281 24.75 C 17.402344 25.617188 16.710938 26.5 16.042969 27.402344 C 15.375 28.300781 14.730469 29.214844 14.109375 30.148438 C 13.484375 31.082031 12.886719 32.027344 12.3125 32.988281 C 11.734375 33.949219 11.183594 34.925781 10.652344 35.914062 C 10.125 36.902344 9.621094 37.902344 9.144531 38.914062 C 8.664062 39.925781 8.210938 40.953125 7.78125 41.988281 C 7.351562 43.023438 6.949219 44.066406 6.570312 45.125 C 6.195312 46.179688 5.84375 47.242188 5.515625 48.316406 C 5.191406 49.386719 4.894531 50.46875 4.621094 51.554688 C 4.347656 52.640625 4.101562 53.734375 3.882812 54.832031 C 3.664062 55.933594 3.472656 57.035156 3.308594 58.144531 C 3.144531 59.253906 3.007812 60.367188 2.898438 61.480469 C 2.789062 62.597656 2.707031 63.714844 2.652344 64.832031 C 2.597656 65.953125 2.566406 67.070312 2.566406 68.191406 C 2.542969 73.117188 3.050781 77.984375 4.09375 82.796875 C 5.132812 87.609375 6.675781 92.25 8.730469 96.726562 L 2.566406 129.9375 C 2.492188 130.351562 2.460938 130.769531 2.480469 131.191406 C 2.496094 131.613281 2.558594 132.03125 2.667969 132.4375 C 2.777344 132.84375 2.929688 133.234375 3.125 133.609375 C 3.320312 133.984375 3.554688 134.332031 3.828125 134.65625 C 4.101562 134.976562 4.40625 135.265625 4.742188 135.519531 C 5.078125 135.773438 5.441406 135.988281 5.824219 136.164062 C 6.210938 136.335938 6.609375 136.464844 7.023438 136.550781 C 7.433594 136.636719 7.851562 136.675781 8.273438 136.671875 L 9.300781 136.671875 L 42.515625 130.507812 C 46.988281 132.5625 51.632812 134.109375 56.445312 135.148438 C 61.253906 136.1875 66.125 136.695312 71.046875 136.671875 C 71.046875 137.792969 71.074219 138.910156 71.128906 140.03125 C 71.183594 141.148438 71.265625 142.265625 71.375 143.382812 C 71.484375 144.5 71.621094 145.609375 71.789062 146.71875 C 71.953125 147.828125 72.144531 148.929688 72.363281 150.03125 C 72.582031 151.128906 72.828125 152.222656 73.097656 153.308594 C 73.371094 154.398438 73.667969 155.476562 73.996094 156.550781 C 74.320312 157.621094 74.671875 158.683594 75.050781 159.742188 C 75.425781 160.796875 75.828125 161.839844 76.257812 162.875 C 76.6875 163.910156 77.140625 164.9375 77.621094 165.949219 C 78.101562 166.960938 78.605469 167.960938 79.132812 168.949219 C 79.660156 169.941406 80.210938 170.914062 80.789062 171.875 C 81.363281 172.835938 81.964844 173.785156 82.585938 174.714844 C 83.210938 175.648438 83.855469 176.5625 84.523438 177.464844 C 85.191406 178.363281 85.878906 179.246094 86.589844 180.113281 C 87.300781 180.980469 88.03125 181.828125 88.785156 182.65625 C 89.539062 183.488281 90.3125 184.300781 91.101562 185.09375 C 91.894531 185.882812 92.707031 186.65625 93.539062 187.410156 C 94.367188 188.164062 95.214844 188.894531 96.082031 189.605469 C 96.949219 190.316406 97.832031 191.003906 98.730469 191.671875 C 99.632812 192.339844 100.546875 192.984375 101.480469 193.609375 C 102.410156 194.230469 103.359375 194.832031 104.320312 195.40625 C 105.28125 195.984375 106.253906 196.535156 107.242188 197.0625 C 108.230469 197.589844 109.234375 198.09375 110.246094 198.574219 C 111.257812 199.054688 112.285156 199.507812 113.320312 199.9375 C 114.355469 200.363281 115.398438 200.769531 116.453125 201.144531 C 117.511719 201.523438 118.574219 201.875 119.644531 202.199219 C 120.71875 202.527344 121.796875 202.824219 122.886719 203.097656 C 123.972656 203.367188 125.066406 203.613281 126.164062 203.832031 C 127.265625 204.050781 128.367188 204.242188 129.476562 204.40625 C 130.585938 204.570312 131.695312 204.710938 132.8125 204.820312 C 133.925781 204.929688 135.046875 205.011719 136.164062 205.066406 C 137.285156 205.121094 138.402344 205.148438 139.523438 205.148438 C 144.449219 205.171875 149.316406 204.664062 154.128906 203.625 C 158.9375 202.585938 163.582031 201.039062 168.058594 198.984375 L 201.269531 205.148438 L 202.296875 205.148438 C 202.71875 205.15625 203.136719 205.117188 203.550781 205.03125 C 203.960938 204.945312 204.363281 204.816406 204.746094 204.640625 C 205.128906 204.464844 205.492188 204.25 205.828125 203.996094 C 206.164062 203.742188 206.46875 203.453125 206.742188 203.132812 C 207.015625 202.808594 207.25 202.460938 207.445312 202.089844 C 207.640625 201.714844 207.792969 201.324219 207.902344 200.914062 C 208.011719 200.507812 208.074219 200.09375 208.089844 199.671875 C 208.109375 199.25 208.078125 198.832031 208.003906 198.414062 Z M 46.050781 119.550781 C 45.257812 119.167969 44.421875 118.976562 43.539062 118.980469 L 42.515625 118.980469 L 15.351562 123.945312 L 20.316406 96.726562 C 20.496094 95.476562 20.289062 94.296875 19.6875 93.1875 C 17.789062 89.296875 16.359375 85.238281 15.394531 81.019531 C 14.429688 76.796875 13.960938 72.523438 13.980469 68.191406 C 13.980469 66.324219 14.074219 64.460938 14.257812 62.597656 C 14.4375 60.738281 14.714844 58.894531 15.078125 57.058594 C 15.441406 55.226562 15.894531 53.417969 16.4375 51.628906 C 16.980469 49.839844 17.609375 48.082031 18.324219 46.355469 C 19.039062 44.628906 19.839844 42.941406 20.71875 41.292969 C 21.601562 39.644531 22.558594 38.042969 23.597656 36.488281 C 24.636719 34.933594 25.75 33.4375 26.933594 31.992188 C 28.121094 30.546875 29.375 29.164062 30.695312 27.839844 C 32.015625 26.519531 33.398438 25.265625 34.84375 24.082031 C 36.289062 22.894531 37.789062 21.785156 39.34375 20.746094 C 40.898438 19.707031 42.496094 18.746094 44.144531 17.867188 C 45.792969 16.984375 47.480469 16.1875 49.207031 15.472656 C 50.933594 14.757812 52.691406 14.128906 54.480469 13.585938 C 56.269531 13.042969 58.082031 12.589844 59.914062 12.222656 C 61.746094 11.859375 63.59375 11.585938 65.453125 11.402344 C 67.3125 11.21875 69.175781 11.128906 71.046875 11.128906 C 72.914062 11.128906 74.78125 11.21875 76.640625 11.402344 C 78.5 11.585938 80.347656 11.859375 82.179688 12.222656 C 84.011719 12.589844 85.824219 13.042969 87.613281 13.585938 C 89.398438 14.128906 91.15625 14.757812 92.882812 15.472656 C 94.609375 16.1875 96.296875 16.984375 97.945312 17.867188 C 99.59375 18.746094 101.195312 19.707031 102.75 20.746094 C 104.304688 21.785156 105.804688 22.894531 107.246094 24.082031 C 108.691406 25.265625 110.074219 26.519531 111.398438 27.839844 C 112.71875 29.164062 113.972656 30.546875 115.15625 31.992188 C 116.34375 33.4375 117.457031 34.933594 118.492188 36.488281 C 119.53125 38.042969 120.492188 39.644531 121.375 41.292969 C 122.253906 42.941406 123.050781 44.628906 123.765625 46.355469 C 124.484375 48.082031 125.113281 49.839844 125.652344 51.628906 C 126.195312 53.417969 126.648438 55.226562 127.015625 57.058594 C 127.378906 58.894531 127.652344 60.738281 127.835938 62.597656 C 128.019531 64.460938 128.113281 66.324219 128.113281 68.191406 C 128.113281 70.0625 128.019531 71.925781 127.835938 73.785156 C 127.652344 75.644531 127.378906 77.492188 127.015625 79.324219 C 126.648438 81.160156 126.195312 82.96875 125.652344 84.757812 C 125.113281 86.546875 124.484375 88.304688 123.765625 90.03125 C 123.050781 91.757812 122.253906 93.445312 121.375 95.09375 C 120.492188 96.742188 119.53125 98.34375 118.496094 99.894531 C 117.457031 101.449219 116.34375 102.949219 115.15625 104.394531 C 113.972656 105.839844 112.71875 107.222656 111.398438 108.542969 C 110.074219 109.867188 108.691406 111.117188 107.246094 112.304688 C 105.804688 113.492188 104.304688 114.601562 102.75 115.640625 C 101.195312 116.679688 99.59375 117.636719 97.945312 118.519531 C 96.296875 119.402344 94.609375 120.199219 92.882812 120.914062 C 91.15625 121.628906 89.398438 122.257812 87.613281 122.800781 C 85.824219 123.34375 84.011719 123.796875 82.179688 124.160156 C 80.347656 124.527344 78.5 124.800781 76.640625 124.984375 C 74.78125 125.167969 72.914062 125.257812 71.046875 125.257812 C 66.714844 125.277344 62.441406 124.808594 58.21875 123.84375 C 54 122.878906 49.941406 121.449219 46.050781 119.550781 Z M 190.253906 165.203125 L 195.21875 192.367188 L 168.058594 187.402344 C 166.820312 187.183594 165.640625 187.355469 164.519531 187.914062 C 160.632812 189.832031 156.578125 191.285156 152.355469 192.265625 C 148.136719 193.25 143.859375 193.738281 139.523438 193.734375 C 137.65625 193.734375 135.789062 193.644531 133.929688 193.460938 C 132.070312 193.277344 130.222656 193.003906 128.390625 192.640625 C 126.558594 192.273438 124.746094 191.820312 122.960938 191.277344 C 121.171875 190.734375 119.414062 190.105469 117.6875 189.390625 C 115.960938 188.675781 114.273438 187.878906 112.625 186.996094 C 110.976562 186.117188 109.375 185.15625 107.820312 184.117188 C 106.265625 183.082031 104.765625 181.96875 103.324219 180.78125 C 101.878906 179.597656 100.496094 178.34375 99.171875 177.023438 C 97.851562 175.699219 96.597656 174.316406 95.414062 172.871094 C 94.226562 171.425781 93.113281 169.929688 92.078125 168.375 C 91.039062 166.820312 90.078125 165.21875 89.199219 163.570312 C 88.316406 161.921875 87.519531 160.234375 86.804688 158.507812 C 86.089844 156.78125 85.460938 155.023438 84.917969 153.234375 C 84.375 151.449219 83.921875 149.636719 83.554688 147.804688 C 83.191406 145.96875 82.917969 144.125 82.734375 142.265625 C 82.550781 140.402344 82.460938 138.539062 82.460938 136.671875 L 82.460938 135.644531 C 84.195312 135.347656 85.917969 134.988281 87.628906 134.558594 C 89.335938 134.128906 91.027344 133.636719 92.695312 133.078125 C 94.367188 132.519531 96.015625 131.898438 97.636719 131.214844 C 99.257812 130.527344 100.851562 129.78125 102.417969 128.972656 C 103.984375 128.164062 105.515625 127.296875 107.011719 126.367188 C 108.511719 125.441406 109.972656 124.460938 111.394531 123.417969 C 112.816406 122.378906 114.195312 121.289062 115.53125 120.140625 C 116.871094 118.996094 118.164062 117.800781 119.410156 116.554688 C 120.652344 115.308594 121.847656 114.015625 122.996094 112.679688 C 124.140625 111.339844 125.234375 109.960938 126.273438 108.539062 C 127.3125 107.117188 128.296875 105.65625 129.222656 104.160156 C 130.148438 102.660156 131.015625 101.128906 131.824219 99.5625 C 132.632812 98 133.382812 96.40625 134.066406 94.78125 C 134.753906 93.160156 135.375 91.511719 135.933594 89.84375 C 136.492188 88.171875 136.984375 86.484375 137.414062 84.773438 C 137.839844 83.066406 138.203125 81.34375 138.496094 79.605469 L 139.523438 79.605469 C 141.394531 79.605469 143.257812 79.699219 145.117188 79.878906 C 146.976562 80.0625 148.824219 80.335938 150.65625 80.703125 C 152.488281 81.066406 154.300781 81.519531 156.089844 82.0625 C 157.878906 82.605469 159.636719 83.234375 161.363281 83.949219 C 163.089844 84.664062 164.777344 85.460938 166.425781 86.34375 C 168.074219 87.226562 169.675781 88.183594 171.226562 89.222656 C 172.78125 90.261719 174.28125 91.375 175.726562 92.558594 C 177.171875 93.746094 178.554688 95 179.875 96.320312 C 181.195312 97.640625 182.449219 99.023438 183.636719 100.46875 C 184.820312 101.914062 185.933594 103.414062 186.972656 104.96875 C 188.011719 106.519531 188.96875 108.121094 189.851562 109.769531 C 190.730469 111.417969 191.53125 113.105469 192.246094 114.832031 C 192.960938 116.558594 193.589844 118.316406 194.132812 120.105469 C 194.675781 121.894531 195.128906 123.703125 195.492188 125.539062 C 195.859375 127.371094 196.132812 129.21875 196.316406 131.078125 C 196.496094 132.9375 196.589844 134.800781 196.589844 136.671875 C 196.609375 141 196.140625 145.277344 195.175781 149.496094 C 194.210938 153.71875 192.78125 157.773438 190.882812 161.664062 C 190.28125 162.773438 190.074219 163.953125 190.253906 165.203125 Z M 190.253906 165.203125 "/></g><path style=" stroke:none;fill-rule:nonzero;fill:#ffffff;fill-opacity:1;" d="M 78.007812 40.914062 C 78.007812 41.371094 77.964844 41.824219 77.875 42.273438 C 77.785156 42.722656 77.652344 43.15625 77.476562 43.578125 C 77.304688 44.003906 77.089844 44.402344 76.835938 44.785156 C 76.582031 45.164062 76.292969 45.515625 75.96875 45.839844 C 75.644531 46.160156 75.292969 46.449219 74.914062 46.703125 C 74.535156 46.957031 74.132812 47.171875 73.710938 47.347656 C 73.289062 47.523438 72.851562 47.65625 72.40625 47.742188 C 71.957031 47.832031 71.503906 47.878906 71.046875 47.878906 C 70.589844 47.878906 70.136719 47.832031 69.6875 47.742188 C 69.238281 47.65625 68.804688 47.523438 68.382812 47.347656 C 67.960938 47.171875 67.558594 46.957031 67.179688 46.703125 C 66.796875 46.449219 66.445312 46.160156 66.125 45.839844 C 65.800781 45.515625 65.511719 45.164062 65.257812 44.785156 C 65.003906 44.402344 64.789062 44.003906 64.613281 43.578125 C 64.4375 43.15625 64.308594 42.722656 64.21875 42.273438 C 64.128906 41.824219 64.085938 41.371094 64.085938 40.914062 C 64.085938 40.457031 64.128906 40.003906 64.21875 39.558594 C 64.308594 39.109375 64.4375 38.671875 64.613281 38.25 C 64.789062 37.828125 65.003906 37.429688 65.257812 37.046875 C 65.511719 36.667969 65.800781 36.316406 66.125 35.992188 C 66.445312 35.667969 66.796875 35.382812 67.179688 35.128906 C 67.558594 34.871094 67.960938 34.660156 68.382812 34.484375 C 68.804688 34.308594 69.238281 34.175781 69.6875 34.085938 C 70.136719 34 70.589844 33.953125 71.046875 33.953125 C 71.503906 33.953125 71.957031 34 72.40625 34.085938 C 72.851562 34.175781 73.289062 34.308594 73.710938 34.484375 C 74.132812 34.660156 74.535156 34.871094 74.914062 35.128906 C 75.292969 35.382812 75.644531 35.667969 75.96875 35.992188 C 76.292969 36.316406 76.582031 36.667969 76.835938 37.046875 C 77.089844 37.429688 77.304688 37.828125 77.476562 38.25 C 77.652344 38.671875 77.785156 39.109375 77.875 39.558594 C 77.964844 40.003906 78.007812 40.457031 78.007812 40.914062 Z M 78.007812 40.914062 "/><path style=" stroke:none;fill-rule:nonzero;fill:#ffffff;fill-opacity:1;" d="M 78.007812 102.433594 C 78.382812 102.433594 78.753906 102.394531 79.121094 102.320312 C 79.488281 102.25 79.847656 102.140625 80.191406 101.996094 C 80.539062 101.855469 80.867188 101.679688 81.179688 101.46875 C 81.488281 101.261719 81.777344 101.023438 82.042969 100.761719 C 82.308594 100.496094 82.542969 100.207031 82.753906 99.894531 C 82.960938 99.585938 83.136719 99.253906 83.28125 98.910156 C 83.421875 98.5625 83.53125 98.207031 83.605469 97.839844 C 83.679688 97.472656 83.714844 97.101562 83.714844 96.726562 C 83.714844 96.351562 83.679688 95.980469 83.605469 95.613281 C 83.53125 95.246094 83.421875 94.886719 83.28125 94.542969 C 83.136719 94.195312 82.960938 93.867188 82.753906 93.554688 C 82.542969 93.242188 82.308594 92.957031 82.042969 92.691406 C 81.777344 92.425781 81.488281 92.1875 81.179688 91.980469 C 80.867188 91.773438 80.539062 91.597656 80.191406 91.453125 C 79.847656 91.308594 79.488281 91.203125 79.121094 91.128906 C 78.753906 91.054688 78.382812 91.019531 78.007812 91.019531 L 76.753906 91.019531 L 76.753906 61.859375 C 76.753906 61.484375 76.714844 61.113281 76.644531 60.746094 C 76.570312 60.378906 76.460938 60.019531 76.320312 59.675781 C 76.175781 59.328125 76 59 75.792969 58.6875 C 75.582031 58.375 75.347656 58.089844 75.082031 57.824219 C 74.816406 57.558594 74.527344 57.320312 74.214844 57.113281 C 73.90625 56.90625 73.578125 56.730469 73.230469 56.585938 C 72.882812 56.441406 72.527344 56.335938 72.160156 56.261719 C 71.792969 56.1875 71.421875 56.152344 71.046875 56.152344 L 64.085938 56.152344 C 63.710938 56.152344 63.339844 56.1875 62.972656 56.261719 C 62.605469 56.335938 62.246094 56.441406 61.902344 56.585938 C 61.554688 56.730469 61.226562 56.90625 60.914062 57.113281 C 60.601562 57.320312 60.3125 57.558594 60.050781 57.824219 C 59.785156 58.089844 59.546875 58.375 59.339844 58.6875 C 59.132812 59 58.957031 59.328125 58.8125 59.675781 C 58.667969 60.019531 58.5625 60.378906 58.488281 60.746094 C 58.414062 61.113281 58.378906 61.484375 58.378906 61.859375 C 58.378906 62.234375 58.414062 62.605469 58.488281 62.972656 C 58.5625 63.339844 58.667969 63.695312 58.8125 64.042969 C 58.957031 64.386719 59.132812 64.71875 59.339844 65.027344 C 59.546875 65.339844 59.785156 65.628906 60.050781 65.894531 C 60.3125 66.160156 60.601562 66.394531 60.914062 66.601562 C 61.226562 66.8125 61.554688 66.988281 61.902344 67.128906 C 62.246094 67.273438 62.605469 67.382812 62.972656 67.457031 C 63.339844 67.527344 63.710938 67.566406 64.085938 67.566406 L 65.339844 67.566406 L 65.339844 91.019531 L 64.085938 91.019531 C 63.710938 91.019531 63.339844 91.054688 62.972656 91.128906 C 62.605469 91.203125 62.246094 91.308594 61.902344 91.453125 C 61.554688 91.597656 61.226562 91.773438 60.914062 91.980469 C 60.601562 92.1875 60.3125 92.425781 60.050781 92.691406 C 59.785156 92.957031 59.546875 93.242188 59.339844 93.554688 C 59.132812 93.867188 58.957031 94.195312 58.8125 94.542969 C 58.667969 94.886719 58.5625 95.246094 58.488281 95.613281 C 58.414062 95.980469 58.378906 96.351562 58.378906 96.726562 C 58.378906 97.101562 58.414062 97.472656 58.488281 97.839844 C 58.5625 98.207031 58.667969 98.5625 58.8125 98.910156 C 58.957031 99.253906 59.132812 99.585938 59.339844 99.894531 C 59.546875 100.207031 59.785156 100.496094 60.050781 100.761719 C 60.3125 101.023438 60.601562 101.261719 60.914062 101.46875 C 61.226562 101.679688 61.554688 101.855469 61.902344 101.996094 C 62.246094 102.140625 62.605469 102.25 62.972656 102.320312 C 63.339844 102.394531 63.710938 102.433594 64.085938 102.433594 Z M 78.007812 102.433594 "/><path style=" stroke:none;fill-rule:nonzero;fill:#ffffff;fill-opacity:1;" d="M 162.351562 108.136719 L 145.230469 108.136719 C 144.855469 108.136719 144.484375 108.175781 144.117188 108.246094 C 143.75 108.320312 143.394531 108.429688 143.046875 108.574219 C 142.699219 108.714844 142.371094 108.890625 142.058594 109.101562 C 141.75 109.308594 141.460938 109.542969 141.195312 109.808594 C 140.929688 110.074219 140.695312 110.363281 140.484375 110.675781 C 140.277344 110.984375 140.101562 111.316406 139.957031 111.660156 C 139.816406 112.007812 139.707031 112.363281 139.632812 112.730469 C 139.5625 113.097656 139.523438 113.46875 139.523438 113.84375 C 139.523438 114.21875 139.5625 114.589844 139.632812 114.957031 C 139.707031 115.324219 139.816406 115.683594 139.957031 116.027344 C 140.101562 116.375 140.277344 116.703125 140.484375 117.015625 C 140.695312 117.328125 140.929688 117.613281 141.195312 117.878906 C 141.460938 118.144531 141.75 118.382812 142.058594 118.589844 C 142.371094 118.796875 142.699219 118.972656 143.046875 119.117188 C 143.394531 119.261719 143.75 119.367188 144.117188 119.441406 C 144.484375 119.515625 144.855469 119.550781 145.230469 119.550781 L 162.351562 119.550781 C 162.726562 119.550781 163.097656 119.515625 163.464844 119.441406 C 163.832031 119.367188 164.1875 119.261719 164.535156 119.117188 C 164.878906 118.972656 165.210938 118.796875 165.519531 118.589844 C 165.832031 118.382812 166.121094 118.144531 166.386719 117.878906 C 166.652344 117.613281 166.886719 117.328125 167.09375 117.015625 C 167.304688 116.703125 167.480469 116.375 167.621094 116.027344 C 167.765625 115.683594 167.875 115.324219 167.945312 114.957031 C 168.019531 114.589844 168.058594 114.21875 168.058594 113.84375 C 168.058594 113.46875 168.019531 113.097656 167.945312 112.730469 C 167.875 112.363281 167.765625 112.007812 167.621094 111.660156 C 167.480469 111.316406 167.304688 110.984375 167.09375 110.675781 C 166.886719 110.363281 166.652344 110.074219 166.386719 109.808594 C 166.121094 109.542969 165.832031 109.308594 165.519531 109.101562 C 165.210938 108.890625 164.878906 108.714844 164.535156 108.574219 C 164.1875 108.429688 163.832031 108.320312 163.464844 108.246094 C 163.097656 108.175781 162.726562 108.136719 162.351562 108.136719 Z M 162.351562 108.136719 "/><path style=" stroke:none;fill-rule:nonzero;fill:#ffffff;fill-opacity:1;" d="M 162.351562 130.964844 L 116.699219 130.964844 C 116.324219 130.964844 115.953125 131 115.585938 131.074219 C 115.21875 131.148438 114.859375 131.253906 114.515625 131.398438 C 114.167969 131.542969 113.839844 131.71875 113.527344 131.925781 C 113.214844 132.132812 112.929688 132.371094 112.664062 132.636719 C 112.398438 132.902344 112.160156 133.1875 111.953125 133.5 C 111.746094 133.8125 111.570312 134.140625 111.425781 134.488281 C 111.28125 134.832031 111.175781 135.191406 111.101562 135.558594 C 111.027344 135.925781 110.992188 136.296875 110.992188 136.671875 C 110.992188 137.046875 111.027344 137.417969 111.101562 137.785156 C 111.175781 138.152344 111.28125 138.507812 111.425781 138.855469 C 111.570312 139.199219 111.746094 139.53125 111.953125 139.839844 C 112.160156 140.152344 112.398438 140.441406 112.664062 140.707031 C 112.929688 140.972656 113.214844 141.207031 113.527344 141.414062 C 113.839844 141.625 114.167969 141.800781 114.515625 141.941406 C 114.859375 142.085938 115.21875 142.195312 115.585938 142.269531 C 115.953125 142.339844 116.324219 142.378906 116.699219 142.378906 L 162.351562 142.378906 C 162.726562 142.378906 163.097656 142.339844 163.464844 142.269531 C 163.832031 142.195312 164.1875 142.085938 164.535156 141.941406 C 164.878906 141.800781 165.210938 141.625 165.519531 141.414062 C 165.832031 141.207031 166.121094 140.972656 166.386719 140.707031 C 166.652344 140.441406 166.886719 140.152344 167.09375 139.839844 C 167.304688 139.53125 167.480469 139.199219 167.621094 138.855469 C 167.765625 138.507812 167.875 138.152344 167.945312 137.785156 C 168.019531 137.417969 168.058594 137.046875 168.058594 136.671875 C 168.058594 136.296875 168.019531 135.925781 167.945312 135.558594 C 167.875 135.191406 167.765625 134.832031 167.621094 134.488281 C 167.480469 134.140625 167.304688 133.8125 167.09375 133.5 C 166.886719 133.1875 166.652344 132.902344 166.386719 132.636719 C 166.121094 132.371094 165.832031 132.132812 165.519531 131.925781 C 165.210938 131.71875 164.878906 131.542969 164.535156 131.398438 C 164.1875 131.253906 163.832031 131.148438 163.464844 131.074219 C 163.097656 131 162.726562 130.964844 162.351562 130.964844 Z M 162.351562 130.964844 "/><path style=" stroke:none;fill-rule:nonzero;fill:#ffffff;fill-opacity:1;" d="M 162.351562 153.789062 L 116.699219 153.789062 C 116.324219 153.789062 115.953125 153.828125 115.585938 153.898438 C 115.21875 153.972656 114.859375 154.082031 114.515625 154.226562 C 114.167969 154.367188 113.839844 154.542969 113.527344 154.753906 C 113.214844 154.960938 112.929688 155.195312 112.664062 155.460938 C 112.398438 155.726562 112.160156 156.015625 111.953125 156.328125 C 111.746094 156.636719 111.570312 156.96875 111.425781 157.3125 C 111.28125 157.660156 111.175781 158.015625 111.101562 158.382812 C 111.027344 158.75 110.992188 159.121094 110.992188 159.496094 C 110.992188 159.871094 111.027344 160.242188 111.101562 160.609375 C 111.175781 160.976562 111.28125 161.335938 111.425781 161.679688 C 111.570312 162.027344 111.746094 162.355469 111.953125 162.667969 C 112.160156 162.980469 112.398438 163.265625 112.664062 163.53125 C 112.929688 163.796875 113.214844 164.035156 113.527344 164.242188 C 113.839844 164.449219 114.167969 164.625 114.515625 164.769531 C 114.859375 164.914062 115.21875 165.019531 115.585938 165.09375 C 115.953125 165.167969 116.324219 165.203125 116.699219 165.203125 L 162.351562 165.203125 C 162.726562 165.203125 163.097656 165.167969 163.464844 165.09375 C 163.832031 165.019531 164.1875 164.914062 164.535156 164.769531 C 164.878906 164.625 165.210938 164.449219 165.519531 164.242188 C 165.832031 164.035156 166.121094 163.796875 166.386719 163.53125 C 166.652344 163.265625 166.886719 162.980469 167.09375 162.667969 C 167.304688 162.355469 167.480469 162.027344 167.621094 161.679688 C 167.765625 161.335938 167.875 160.976562 167.945312 160.609375 C 168.019531 160.242188 168.058594 159.871094 168.058594 159.496094 C 168.058594 159.121094 168.019531 158.75 167.945312 158.382812 C 167.875 158.015625 167.765625 157.660156 167.621094 157.3125 C 167.480469 156.96875 167.304688 156.636719 167.09375 156.328125 C 166.886719 156.015625 166.652344 155.726562 166.386719 155.460938 C 166.121094 155.195312 165.832031 154.960938 165.519531 154.753906 C 165.210938 154.542969 164.878906 154.367188 164.535156 154.226562 C 164.1875 154.082031 163.832031 153.972656 163.464844 153.898438 C 163.097656 153.828125 162.726562 153.789062 162.351562 153.789062 Z M 162.351562 153.789062 "/></g></svg>