<svg xmlns="http://www.w3.org/2000/svg" xmlns:xlink="http://www.w3.org/1999/xlink" width="163" zoomAndPan="magnify" viewBox="0 0 122.25 206.999994" height="276" preserveAspectRatio="xMidYMid meet" version="1.2"><defs><clipPath id="712726f908"><path d="M 6 0.632812 L 116 0.632812 L 116 182 L 6 182 Z M 6 0.632812 "/></clipPath><clipPath id="e16f9608e2"><path d="M 4.339844 186 L 117.644531 186 L 117.644531 205 L 4.339844 205 Z M 4.339844 186 "/></clipPath><clipPath id="02905fd3f5"><path d="M 113 202 L 117.644531 202 L 117.644531 206 L 113 206 Z M 113 202 "/></clipPath></defs><g id="4e4ddcfaa3"><path style=" stroke:none;fill-rule:nonzero;fill:#d4b200;fill-opacity:1;" d="M 78.21875 106.925781 C 76.238281 106.925781 74.457031 107.746094 73.171875 108.898438 L 73.171875 102.601562 C 73.171875 99.925781 70.996094 97.75 68.320312 97.75 C 67.273438 97.75 66.304688 98.085938 65.511719 98.648438 L 65.511719 94.941406 C 65.511719 92.265625 63.335938 90.089844 60.660156 90.089844 C 57.984375 90.089844 55.808594 92.265625 55.808594 94.941406 L 55.808594 96.097656 C 55.015625 95.53125 54.046875 95.195312 53 95.195312 C 50.324219 95.195312 48.148438 97.375 48.148438 100.046875 L 48.148438 110.652344 C 47.355469 110.089844 46.386719 109.753906 45.339844 109.753906 C 42.664062 109.753906 40.488281 111.929688 40.488281 114.605469 L 40.488281 152.394531 C 40.488281 163.515625 49.539062 172.566406 60.660156 172.566406 C 71.78125 172.566406 80.832031 163.515625 80.832031 152.394531 L 80.832031 114.050781 C 80.832031 113.261719 81.089844 111.957031 81.332031 111.234375 C 82.003906 109.21875 80.539062 106.925781 78.21875 106.925781 Z M 79.394531 110.585938 C 79.101562 111.464844 78.789062 112.976562 78.789062 114.050781 L 78.789062 152.390625 C 78.789062 162.390625 70.65625 170.519531 60.660156 170.519531 C 50.664062 170.519531 42.53125 162.390625 42.53125 152.390625 L 42.53125 114.605469 C 42.53125 113.054688 43.789062 111.796875 45.339844 111.796875 C 46.886719 111.796875 48.148438 113.054688 48.148438 114.605469 L 48.148438 139.625 L 50.191406 139.625 L 50.191406 100.046875 C 50.191406 98.5 51.453125 97.238281 53 97.238281 C 54.550781 97.238281 55.808594 98.5 55.808594 100.046875 L 55.808594 139.625 L 57.851562 139.625 L 57.851562 94.941406 C 57.851562 93.390625 59.113281 92.132812 60.660156 92.132812 C 62.210938 92.132812 63.46875 93.390625 63.46875 94.941406 L 63.46875 139.625 L 65.511719 139.625 L 65.511719 102.601562 C 65.511719 101.050781 66.773438 99.792969 68.324219 99.792969 C 69.871094 99.792969 71.132812 101.050781 71.132812 102.601562 L 71.132812 139.625 L 73.175781 139.625 L 73.175781 112.816406 C 73.175781 111.296875 75.433594 108.96875 78.21875 108.96875 C 79.242188 108.96875 79.621094 109.90625 79.394531 110.585938 Z M 79.394531 110.585938 "/><path style=" stroke:none;fill-rule:nonzero;fill:#d4b200;fill-opacity:1;" d="M 60.660156 141.910156 C 53.191406 141.910156 47.113281 147.988281 47.113281 155.457031 C 47.113281 162.925781 53.191406 169 60.660156 169 C 68.128906 169 74.203125 162.925781 74.203125 155.457031 C 74.203125 147.988281 68.128906 141.910156 60.660156 141.910156 Z M 60.660156 160.625 C 57.804688 160.625 55.488281 158.3125 55.488281 155.457031 C 55.488281 152.601562 57.804688 150.285156 60.660156 150.285156 C 63.515625 150.285156 65.828125 152.601562 65.828125 155.457031 C 65.828125 158.3125 63.515625 160.625 60.660156 160.625 Z M 71.585938 160.015625 C 71.152344 159.785156 70.609375 159.9375 70.359375 160.367188 C 70.109375 160.804688 70.257812 161.367188 70.695312 161.621094 C 70.714844 161.628906 70.730469 161.636719 70.746094 161.648438 C 70.667969 161.777344 70.585938 161.90625 70.5 162.03125 L 65.894531 158.648438 L 71.773438 159.542969 C 71.710938 159.703125 71.652344 159.859375 71.585938 160.015625 Z M 70.066406 148.277344 C 69.652344 148.539062 69.515625 149.082031 69.761719 149.511719 C 70.015625 149.949219 70.578125 150.101562 71.015625 149.847656 C 71.035156 149.835938 71.050781 149.824219 71.066406 149.8125 C 71.140625 149.949219 71.207031 150.085938 71.277344 150.222656 L 66.039062 152.519531 L 69.75 147.882812 C 69.859375 148.011719 69.964844 148.144531 70.066406 148.277344 Z M 66.789062 155.601562 L 72.328125 153.441406 C 72.355469 153.605469 72.382812 153.773438 72.402344 153.941406 C 71.910156 153.960938 71.515625 154.363281 71.515625 154.859375 C 71.515625 155.367188 71.929688 155.777344 72.433594 155.777344 C 72.457031 155.777344 72.476562 155.773438 72.496094 155.773438 C 72.492188 155.925781 72.484375 156.082031 72.472656 156.230469 Z M 67.839844 164.863281 C 67.578125 164.449219 67.035156 164.3125 66.605469 164.558594 C 66.167969 164.8125 66.015625 165.375 66.269531 165.8125 C 66.28125 165.832031 66.289062 165.847656 66.300781 165.863281 C 66.167969 165.9375 66.03125 166.003906 65.894531 166.074219 L 63.597656 160.835938 L 68.234375 164.546875 C 68.105469 164.65625 67.972656 164.761719 67.839844 164.863281 Z M 61.257812 166.3125 C 60.75 166.3125 60.339844 166.722656 60.339844 167.230469 C 60.339844 167.25 60.339844 167.269531 60.34375 167.292969 C 60.1875 167.289062 60.035156 167.28125 59.882812 167.269531 L 60.511719 161.585938 L 62.675781 167.125 C 62.507812 167.152344 62.34375 167.179688 62.171875 167.199219 C 62.15625 166.707031 61.753906 166.3125 61.257812 166.3125 Z M 55.75 165.15625 C 55.3125 164.902344 54.75 165.054688 54.496094 165.492188 C 54.484375 165.511719 54.476562 165.527344 54.46875 165.542969 C 54.339844 165.464844 54.210938 165.382812 54.085938 165.296875 L 57.46875 160.691406 L 56.574219 166.566406 C 56.414062 166.507812 56.257812 166.445312 56.101562 166.382812 C 56.332031 165.949219 56.179688 165.40625 55.75 165.15625 Z M 53.480469 146.050781 C 53.742188 146.460938 54.285156 146.601562 54.714844 146.351562 C 55.152344 146.101562 55.304688 145.539062 55.050781 145.097656 C 55.039062 145.082031 55.027344 145.066406 55.019531 145.050781 C 55.152344 144.976562 55.289062 144.90625 55.425781 144.839844 L 57.722656 150.074219 L 53.085938 146.363281 C 53.214844 146.257812 53.347656 146.152344 53.480469 146.050781 Z M 60.0625 144.597656 C 60.570312 144.597656 60.980469 144.1875 60.980469 143.679688 C 60.980469 143.660156 60.976562 143.640625 60.976562 143.621094 C 61.128906 143.625 61.285156 143.632812 61.4375 143.640625 L 60.804688 149.328125 L 58.644531 143.789062 C 58.8125 143.757812 58.976562 143.734375 59.148438 143.710938 C 59.164062 144.207031 59.566406 144.597656 60.0625 144.597656 Z M 65.570312 145.753906 C 66.007812 146.007812 66.570312 145.859375 66.824219 145.417969 C 66.832031 145.402344 66.839844 145.386719 66.851562 145.367188 C 66.980469 145.449219 67.109375 145.53125 67.234375 145.617188 L 63.851562 150.222656 L 64.746094 144.34375 C 64.90625 144.402344 65.0625 144.464844 65.21875 144.53125 C 64.988281 144.964844 65.140625 145.507812 65.570312 145.753906 Z M 51.253906 162.636719 C 51.667969 162.375 51.804688 161.832031 51.554688 161.402344 C 51.304688 160.964844 50.742188 160.8125 50.304688 161.066406 C 50.285156 161.078125 50.269531 161.085938 50.253906 161.097656 C 50.179688 160.964844 50.109375 160.828125 50.042969 160.691406 L 55.28125 158.394531 L 51.570312 163.03125 C 51.460938 162.902344 51.355469 162.769531 51.253906 162.636719 Z M 48.917969 156.96875 C 49.410156 156.953125 49.804688 156.550781 49.804688 156.054688 C 49.804688 155.546875 49.390625 155.136719 48.886719 155.136719 C 48.863281 155.136719 48.84375 155.136719 48.824219 155.140625 C 48.828125 154.984375 48.835938 154.832031 48.847656 154.679688 L 54.53125 155.308594 L 48.992188 157.472656 C 48.964844 157.304688 48.9375 157.140625 48.917969 156.96875 Z M 49.546875 151.367188 C 49.605469 151.210938 49.667969 151.050781 49.734375 150.894531 C 50.167969 151.128906 50.710938 150.976562 50.957031 150.546875 C 51.210938 150.105469 51.0625 149.546875 50.621094 149.292969 C 50.605469 149.28125 50.589844 149.273438 50.570312 149.265625 C 50.652344 149.136719 50.734375 149.007812 50.820312 148.878906 L 55.425781 152.265625 Z M 72.394531 157.035156 C 71.914062 156.921875 71.429688 157.210938 71.300781 157.6875 C 71.171875 158.179688 71.460938 158.683594 71.949219 158.8125 C 71.96875 158.816406 71.988281 158.820312 72.007812 158.824219 C 71.964844 158.972656 71.917969 159.117188 71.867188 159.261719 L 66.542969 157.183594 L 72.449219 156.527344 C 72.433594 156.699219 72.417969 156.867188 72.394531 157.035156 Z M 67.890625 146.085938 C 67.558594 146.449219 67.566406 147.007812 67.914062 147.355469 C 68.273438 147.714844 68.855469 147.714844 69.210938 147.355469 C 69.226562 147.34375 69.238281 147.328125 69.253906 147.3125 C 69.355469 147.421875 69.460938 147.539062 69.5625 147.652344 L 65.097656 151.226562 L 67.480469 145.789062 C 67.621094 145.882812 67.753906 145.984375 67.890625 146.085938 Z M 66.617188 154.011719 L 71.40625 150.488281 C 71.476562 150.644531 71.546875 150.796875 71.609375 150.953125 C 71.140625 151.097656 70.863281 151.589844 70.992188 152.070312 C 71.121094 152.558594 71.625 152.847656 72.117188 152.71875 C 72.136719 152.710938 72.152344 152.707031 72.171875 152.699219 C 72.207031 152.847656 72.242188 153 72.269531 153.148438 Z M 70.03125 162.6875 C 69.667969 162.355469 69.109375 162.363281 68.761719 162.710938 C 68.402344 163.070312 68.402344 163.652344 68.761719 164.007812 C 68.773438 164.023438 68.789062 164.035156 68.804688 164.046875 C 68.691406 164.152344 68.578125 164.257812 68.464844 164.359375 L 64.890625 159.894531 L 70.328125 162.277344 C 70.230469 162.417969 70.132812 162.550781 70.03125 162.6875 Z M 64.046875 165.789062 C 63.558594 165.917969 63.265625 166.421875 63.398438 166.914062 C 63.402344 166.933594 63.410156 166.949219 63.417969 166.96875 C 63.269531 167.003906 63.117188 167.039062 62.96875 167.066406 L 62.105469 161.414062 L 65.628906 166.203125 C 65.472656 166.273438 65.320312 166.34375 65.160156 166.40625 C 65.019531 165.9375 64.527344 165.660156 64.046875 165.789062 Z M 58.425781 166.097656 C 57.9375 165.96875 57.433594 166.257812 57.304688 166.746094 C 57.296875 166.765625 57.292969 166.785156 57.292969 166.804688 C 57.144531 166.757812 57 166.714844 56.855469 166.664062 L 58.933594 161.339844 L 59.585938 167.246094 C 59.417969 167.230469 59.25 167.210938 59.082031 167.191406 C 59.195312 166.710938 58.90625 166.226562 58.425781 166.097656 Z M 51.289062 148.226562 C 51.652344 148.558594 52.210938 148.550781 52.558594 148.203125 C 52.917969 147.84375 52.917969 147.261719 52.558594 146.90625 C 52.546875 146.890625 52.53125 146.878906 52.515625 146.863281 C 52.625 146.757812 52.742188 146.65625 52.855469 146.554688 L 56.429688 151.019531 L 50.992188 148.636719 C 51.085938 148.496094 51.1875 148.363281 51.289062 148.226562 Z M 57.273438 145.125 C 57.761719 144.992188 58.054688 144.488281 57.921875 144 C 57.917969 143.980469 57.910156 143.960938 57.902344 143.941406 C 58.050781 143.90625 58.203125 143.875 58.351562 143.84375 L 59.214844 149.5 L 55.691406 144.707031 C 55.847656 144.636719 56 144.570312 56.160156 144.503906 C 56.300781 144.976562 56.792969 145.253906 57.273438 145.125 Z M 62.890625 144.816406 C 63.382812 144.945312 63.886719 144.65625 64.015625 144.167969 C 64.019531 144.148438 64.023438 144.128906 64.027344 144.109375 C 64.175781 144.152344 64.320312 144.199219 64.464844 144.25 L 62.386719 149.574219 L 61.730469 143.664062 C 61.898438 143.679688 62.070312 143.699219 62.234375 143.722656 C 62.125 144.203125 62.414062 144.6875 62.890625 144.816406 Z M 53.429688 164.824219 C 53.761719 164.464844 53.753906 163.90625 53.40625 163.554688 C 53.046875 163.199219 52.464844 163.199219 52.109375 163.554688 C 52.09375 163.570312 52.082031 163.585938 52.066406 163.601562 C 51.960938 163.488281 51.859375 163.375 51.757812 163.261719 L 56.222656 159.6875 L 53.835938 165.125 C 53.699219 165.027344 53.566406 164.929688 53.429688 164.824219 Z M 49.710938 159.957031 C 50.179688 159.816406 50.457031 159.324219 50.328125 158.84375 C 50.195312 158.355469 49.695312 158.0625 49.203125 158.195312 C 49.183594 158.199219 49.164062 158.207031 49.144531 158.214844 C 49.109375 158.0625 49.078125 157.914062 49.046875 157.765625 L 54.703125 156.902344 L 49.914062 160.421875 C 49.839844 160.269531 49.773438 160.117188 49.710938 159.957031 Z M 48.867188 154.382812 C 48.882812 154.214844 48.902344 154.046875 48.925781 153.878906 C 49.40625 153.988281 49.890625 153.703125 50.019531 153.222656 C 50.148438 152.734375 49.859375 152.230469 49.371094 152.101562 C 49.351562 152.09375 49.332031 152.089844 49.3125 152.089844 C 49.355469 151.941406 49.402344 151.796875 49.453125 151.652344 L 54.777344 153.730469 Z M 48.867188 154.382812 "/><path style=" stroke:none;fill-rule:nonzero;fill:#d4b200;fill-opacity:1;" d="M 57.066406 155.5 L 57.253906 155.5 C 57.253906 155.5 57.253906 156.6875 57.253906 157.3125 C 56.828125 157.3125 56.910156 156.96875 56.910156 156.96875 L 56.589844 156.96875 C 56.589844 156.96875 56.589844 158.210938 57.902344 158.210938 C 57.902344 157.261719 57.902344 155.5 57.902344 155.5 L 58.199219 155.5 L 58.199219 158.945312 L 58.875 159.464844 L 58.875 151.210938 L 58.199219 151.734375 L 58.199219 155.179688 L 57.902344 155.179688 C 57.902344 155.179688 57.902344 153.414062 57.902344 152.46875 C 56.589844 152.46875 56.589844 153.710938 56.589844 153.710938 L 56.910156 153.710938 C 56.910156 153.710938 56.828125 153.367188 57.253906 153.367188 C 57.253906 153.992188 57.253906 155.179688 57.253906 155.179688 L 57.066406 155.179688 Z M 57.066406 155.5 "/><path style=" stroke:none;fill-rule:nonzero;fill:#d4b200;fill-opacity:1;" d="M 64.050781 158.1875 L 64.730469 157.546875 L 64.730469 153.132812 L 64.050781 152.488281 Z M 64.050781 158.1875 "/><path style=" stroke:none;fill-rule:nonzero;fill:#d4b200;fill-opacity:1;" d="M 59.277344 159.46875 L 59.957031 159.703125 L 59.957031 152.800781 C 59.957031 152.710938 59.972656 152.625 60.003906 152.546875 C 60.195312 152.207031 60.554688 151.980469 60.964844 151.980469 C 61.378906 151.980469 61.738281 152.207031 61.925781 152.546875 L 62.660156 152.546875 C 62.433594 151.824219 61.757812 151.300781 60.964844 151.300781 C 60.199219 151.300781 59.632812 151.761719 59.363281 152.332031 C 59.308594 152.453125 59.28125 152.585938 59.28125 152.71875 L 59.28125 159.46875 Z M 59.277344 159.46875 "/><path style=" stroke:none;fill-rule:nonzero;fill:#d4b200;fill-opacity:1;" d="M 61.324219 152.753906 C 61.324219 153.015625 61.113281 153.230469 60.851562 153.230469 C 60.589844 153.230469 60.375 153.015625 60.375 152.753906 C 60.375 152.492188 60.589844 152.277344 60.851562 152.277344 C 61.113281 152.277344 61.324219 152.492188 61.324219 152.753906 Z M 61.324219 152.753906 "/><path style=" stroke:none;fill-rule:nonzero;fill:#d4b200;fill-opacity:1;" d="M 62.933594 152.167969 L 62.933594 155.613281 L 62.636719 155.613281 L 62.636719 153.421875 C 62.636719 153.054688 62.339844 152.753906 61.96875 152.753906 L 61.71875 152.753906 L 61.71875 153.230469 C 62.03125 153.230469 61.992188 153.429688 61.992188 153.800781 L 61.992188 155.613281 L 61.671875 155.613281 C 61.375 155.621094 61.195312 154.964844 61.195312 154.964844 L 60.875 154.964844 C 60.875 154.964844 61.082031 155.90625 61.511719 155.933594 L 61.992188 155.933594 L 61.992188 157.746094 L 61.414062 158.023438 C 61.414062 158.023438 61.414062 159.265625 62.726562 159.265625 L 62.726562 158.96875 C 62.316406 158.890625 62.039062 158.613281 62.039062 158.613281 L 62.636719 158.070312 L 62.636719 155.933594 L 62.933594 155.933594 L 62.933594 159.378906 L 63.613281 158.722656 L 63.613281 151.644531 Z M 62.933594 152.167969 "/><path style=" stroke:none;fill-rule:nonzero;fill:#d4b200;fill-opacity:1;" d="M 61.628906 159.195312 C 60.96875 159.050781 60.6875 158.367188 60.613281 157.753906 C 60.558594 157.28125 60.601562 156.433594 61.195312 156.4375 C 61.339844 156.734375 61.382812 157.121094 61.421875 157.4375 L 61.445312 157.640625 L 61.449219 157.648438 C 61.464844 157.785156 61.667969 157.78125 61.679688 157.640625 C 61.722656 157.058594 61.742188 156.386719 61.351562 155.90625 C 61.117188 155.636719 60.796875 155.535156 60.640625 155.234375 C 60.417969 154.820312 60.503906 154.101562 60.855469 153.78125 C 60.941406 153.710938 61.082031 153.644531 61.179688 153.707031 C 61.300781 153.808594 61.335938 153.984375 61.371094 154.148438 C 61.417969 154.402344 61.429688 154.679688 61.425781 154.945312 C 61.421875 155.089844 61.628906 155.117188 61.65625 154.972656 C 61.722656 154.53125 61.769531 154.078125 61.59375 153.644531 C 61.421875 153.21875 60.933594 153.195312 60.597656 153.445312 C 60.199219 153.753906 60.0625 154.273438 60.058594 154.746094 C 60.054688 155.0625 60.167969 155.410156 60.378906 155.660156 C 60.542969 155.875 60.792969 155.984375 60.976562 156.140625 C 60.941406 156.144531 60.890625 156.15625 60.867188 156.160156 C 60.203125 156.359375 60.082031 157.230469 60.152344 157.808594 C 60.222656 158.378906 60.492188 159 61.027344 159.292969 C 61.152344 159.367188 61.679688 159.539062 61.722656 159.335938 C 61.734375 159.269531 61.691406 159.207031 61.628906 159.195312 Z M 61.628906 159.195312 "/><g clip-rule="nonzero" clip-path="url(#712726f908)"><path style=" stroke:none;fill-rule:nonzero;fill:#d4b200;fill-opacity:1;" d="M 115.675781 181.949219 L 83.386719 92.347656 L 99.84375 46.429688 L 77.320312 1.394531 C 77.09375 0.945312 76.632812 0.632812 76.09375 0.632812 L 45.890625 0.632812 C 45.351562 0.632812 44.890625 0.945312 44.664062 1.394531 L 22.140625 46.429688 L 38.597656 92.347656 L 6.308594 181.949219 Z M 74.644531 3.386719 C 73.949219 10.308594 68.09375 15.730469 60.992188 15.730469 C 53.890625 15.730469 48.03125 10.308594 47.339844 3.386719 Z M 25.132812 46.605469 L 45.15625 6.5625 C 47.136719 13.441406 53.484375 18.488281 60.992188 18.488281 C 68.5 18.488281 74.847656 13.441406 76.828125 6.5625 L 96.851562 46.605469 L 80.457031 92.351562 L 111.75 179.191406 L 10.234375 179.191406 L 41.527344 92.351562 Z M 25.132812 46.605469 "/></g><path style=" stroke:none;fill-rule:nonzero;fill:#d4b200;fill-opacity:1;" d="M 63.257812 9.558594 C 63.257812 9.859375 63.199219 10.148438 63.085938 10.425781 C 62.96875 10.703125 62.804688 10.949219 62.59375 11.160156 C 62.382812 11.375 62.136719 11.539062 61.859375 11.652344 C 61.582031 11.769531 61.292969 11.824219 60.992188 11.824219 C 60.691406 11.824219 60.402344 11.769531 60.125 11.652344 C 59.847656 11.539062 59.601562 11.375 59.390625 11.160156 C 59.179688 10.949219 59.015625 10.703125 58.898438 10.425781 C 58.785156 10.148438 58.726562 9.859375 58.726562 9.558594 C 58.726562 9.261719 58.785156 8.972656 58.898438 8.695312 C 59.015625 8.417969 59.179688 8.171875 59.390625 7.957031 C 59.601562 7.746094 59.847656 7.582031 60.125 7.46875 C 60.402344 7.351562 60.691406 7.296875 60.992188 7.296875 C 61.292969 7.296875 61.582031 7.351562 61.859375 7.46875 C 62.136719 7.582031 62.382812 7.746094 62.59375 7.957031 C 62.804688 8.171875 62.96875 8.417969 63.085938 8.695312 C 63.199219 8.972656 63.257812 9.261719 63.257812 9.558594 Z M 63.257812 9.558594 "/><path style=" stroke:none;fill-rule:nonzero;fill:#d4b200;fill-opacity:1;" d="M 61.558594 22.117188 C 61.847656 22.191406 62.113281 22.320312 62.351562 22.5 C 62.59375 22.679688 62.789062 22.898438 62.941406 23.15625 C 63.09375 23.417969 63.191406 23.695312 63.234375 23.992188 C 63.277344 24.289062 63.257812 24.582031 63.183594 24.875 C 63.109375 25.164062 62.980469 25.429688 62.800781 25.671875 C 62.621094 25.910156 62.402344 26.105469 62.140625 26.257812 C 61.882812 26.414062 61.605469 26.507812 61.308594 26.550781 C 61.011719 26.59375 60.714844 26.578125 60.425781 26.503906 C 60.136719 26.425781 59.871094 26.300781 59.628906 26.117188 C 59.390625 25.9375 59.191406 25.71875 59.039062 25.460938 C 58.886719 25.199219 58.789062 24.921875 58.75 24.625 C 58.707031 24.328125 58.722656 24.035156 58.796875 23.742188 C 58.875 23.453125 59 23.1875 59.183594 22.945312 C 59.363281 22.707031 59.582031 22.511719 59.839844 22.359375 C 60.097656 22.207031 60.378906 22.109375 60.675781 22.066406 C 60.972656 22.023438 61.265625 22.039062 61.558594 22.117188 Z M 61.558594 22.117188 "/><path style=" stroke:none;fill-rule:nonzero;fill:#d4b200;fill-opacity:1;" d="M 76.234375 23.394531 C 76.355469 23.667969 76.417969 23.957031 76.421875 24.257812 C 76.429688 24.558594 76.378906 24.847656 76.269531 25.128906 C 76.160156 25.40625 76 25.65625 75.792969 25.871094 C 75.585938 26.089844 75.34375 26.257812 75.070312 26.378906 C 74.792969 26.5 74.507812 26.5625 74.207031 26.570312 C 73.90625 26.574219 73.617188 26.523438 73.335938 26.414062 C 73.058594 26.304688 72.808594 26.144531 72.589844 25.9375 C 72.375 25.730469 72.207031 25.488281 72.085938 25.214844 C 71.964844 24.9375 71.902344 24.652344 71.894531 24.351562 C 71.890625 24.050781 71.941406 23.761719 72.050781 23.480469 C 72.160156 23.203125 72.316406 22.953125 72.523438 22.734375 C 72.734375 22.519531 72.972656 22.351562 73.25 22.230469 C 73.523438 22.109375 73.8125 22.046875 74.113281 22.039062 C 74.414062 22.035156 74.703125 22.085938 74.984375 22.195312 C 75.261719 22.304688 75.511719 22.460938 75.726562 22.667969 C 75.945312 22.878906 76.113281 23.117188 76.234375 23.394531 Z M 76.234375 23.394531 "/><path style=" stroke:none;fill-rule:nonzero;fill:#d4b200;fill-opacity:1;" d="M 49.441406 22.726562 C 49.652344 22.941406 49.8125 23.1875 49.925781 23.46875 C 50.035156 23.746094 50.089844 24.035156 50.085938 24.335938 C 50.082031 24.636719 50.023438 24.925781 49.902344 25.199219 C 49.785156 25.476562 49.617188 25.71875 49.402344 25.929688 C 49.1875 26.140625 48.941406 26.300781 48.664062 26.410156 C 48.382812 26.523438 48.09375 26.578125 47.792969 26.574219 C 47.492188 26.570312 47.207031 26.507812 46.929688 26.390625 C 46.652344 26.269531 46.410156 26.105469 46.199219 25.890625 C 45.992188 25.675781 45.832031 25.429688 45.71875 25.148438 C 45.609375 24.871094 45.554688 24.582031 45.558594 24.28125 C 45.5625 23.980469 45.621094 23.691406 45.742188 23.414062 C 45.859375 23.140625 46.023438 22.898438 46.242188 22.6875 C 46.457031 22.476562 46.703125 22.316406 46.980469 22.207031 C 47.261719 22.09375 47.550781 22.039062 47.851562 22.042969 C 48.148438 22.046875 48.4375 22.109375 48.714844 22.226562 C 48.992188 22.34375 49.234375 22.511719 49.441406 22.726562 Z M 49.441406 22.726562 "/><path style=" stroke:none;fill-rule:nonzero;fill:#d4b200;fill-opacity:1;" d="M 76.761719 36.328125 L 76.761719 31.503906 L 58.578125 31.503906 L 58.578125 44.859375 L 50.046875 44.859375 L 50.046875 31.503906 L 45.222656 31.503906 L 45.222656 49.6875 L 58.578125 49.6875 L 58.578125 58.21875 L 45.222656 58.21875 L 45.222656 63.042969 L 63.40625 63.042969 L 63.40625 49.6875 L 71.9375 49.6875 L 71.9375 63.042969 L 76.761719 63.042969 L 76.761719 44.859375 L 63.40625 44.859375 L 63.40625 36.328125 Z M 76.761719 36.328125 "/><g clip-rule="nonzero" clip-path="url(#e16f9608e2)"><path style=" stroke:none;fill-rule:nonzero;fill:#d4b200;fill-opacity:1;" d="M 114.238281 201.601562 L 116.304688 201.601562 L 116.304688 192.90625 L 117.167969 192.90625 L 117.167969 190.839844 L 83.433594 190.839844 C 83.023438 188.90625 81.839844 186.480469 79.285156 186.480469 C 78.070312 186.480469 77.476562 187.058594 77.191406 187.542969 C 76.636719 188.488281 76.890625 189.792969 77.269531 190.839844 L 69.605469 190.839844 L 67.820312 187.644531 C 67.3125 186.734375 66.355469 186.171875 65.316406 186.171875 L 64.671875 186.171875 L 64.671875 188.242188 L 65.316406 188.242188 C 65.605469 188.242188 65.875 188.398438 66.015625 188.652344 L 67.234375 190.839844 L 41.832031 190.839844 L 40.046875 187.644531 C 39.539062 186.734375 38.582031 186.171875 37.542969 186.171875 L 36.898438 186.171875 L 36.898438 188.242188 L 37.542969 188.242188 C 37.832031 188.242188 38.101562 188.398438 38.242188 188.652344 L 39.460938 190.839844 L 4.371094 190.839844 L 4.371094 192.90625 L 5.132812 192.90625 L 5.132812 196.738281 C 5.132812 197.808594 5.914062 198.914062 6.992188 199.359375 C 7.503906 199.570312 8.375 199.746094 9.414062 199.324219 L 9.414062 201.601562 L 11.484375 201.601562 L 11.484375 192.90625 L 15.054688 192.90625 C 15.6875 193.816406 15.929688 194.699219 15.703125 195.320312 C 15.542969 195.757812 15.167969 196.03125 14.753906 196.203125 C 14.585938 195.859375 14.421875 195.511719 14.273438 195.152344 L 12.363281 195.949219 C 13.382812 198.386719 14.824219 200.535156 16.65625 202.335938 L 18.105469 200.863281 C 17.226562 200 16.453125 199.039062 15.777344 198 C 16.679688 197.5625 17.332031 196.890625 17.644531 196.027344 C 17.988281 195.089844 17.898438 194.007812 17.417969 192.90625 L 21.695312 192.90625 C 22.328125 193.816406 22.570312 194.695312 22.339844 195.320312 C 22.183594 195.753906 21.804688 196.03125 21.394531 196.203125 C 21.222656 195.859375 21.0625 195.511719 20.910156 195.152344 L 19.003906 195.949219 C 20.019531 198.386719 21.464844 200.535156 23.292969 202.335938 L 24.746094 200.863281 C 23.867188 200 23.089844 199.039062 22.414062 198 C 23.320312 197.5625 23.96875 196.890625 24.285156 196.027344 C 24.628906 195.089844 24.539062 194.003906 24.058594 192.90625 L 25.886719 192.90625 L 25.886719 196.734375 C 25.886719 197.808594 26.667969 198.914062 27.746094 199.359375 C 28.257812 199.570312 29.128906 199.746094 30.167969 199.324219 L 30.167969 201.601562 L 32.234375 201.601562 L 32.234375 192.90625 L 36.042969 192.90625 C 36.675781 193.816406 36.917969 194.695312 36.691406 195.320312 C 36.53125 195.753906 36.15625 196.03125 35.742188 196.203125 C 35.574219 195.859375 35.410156 195.511719 35.261719 195.152344 L 33.351562 195.949219 C 34.371094 198.386719 35.8125 200.535156 37.644531 202.335938 L 39.09375 200.863281 C 38.214844 200 37.441406 199.039062 36.765625 198 C 37.667969 197.5625 38.320312 196.890625 38.632812 196.027344 C 38.976562 195.089844 38.886719 194.003906 38.40625 192.90625 L 40.191406 192.90625 L 40.191406 201.601562 L 42.257812 201.601562 L 42.257812 192.90625 L 44.0625 192.90625 L 44.0625 196.734375 C 44.0625 197.808594 44.84375 198.914062 45.925781 199.359375 C 46.433594 199.570312 47.304688 199.746094 48.34375 199.324219 L 48.34375 201.601562 L 50.414062 201.601562 L 50.414062 192.90625 L 52.640625 192.90625 L 52.640625 194.351562 C 52.152344 194.363281 51.71875 194.664062 51.53125 195.117188 C 51.335938 195.585938 51.441406 196.121094 51.800781 196.476562 L 52.582031 197.257812 C 52.820312 197.5 53.136719 197.625 53.460938 197.625 C 53.625 197.625 54.710938 197.488281 54.710938 196.375 L 54.710938 192.90625 L 56.4375 192.90625 L 56.4375 196.597656 L 52.386719 200.648438 L 53.847656 202.113281 L 56.4375 199.519531 L 56.4375 201.601562 L 58.507812 201.601562 L 58.507812 192.90625 L 64.152344 192.90625 L 64.152344 193.199219 L 62.675781 193.199219 C 61.28125 193.199219 60.148438 194.332031 60.148438 195.726562 C 60.148438 196.101562 60.230469 196.460938 60.386719 196.792969 C 59.921875 197.367188 59.640625 198.097656 59.640625 198.894531 C 59.640625 201.65625 62.816406 203.625 63.929688 204.097656 L 64.734375 202.195312 C 63.648438 201.734375 61.710938 200.238281 61.710938 198.894531 C 61.710938 198.183594 62.285156 197.609375 62.992188 197.609375 C 63.699219 197.609375 64.277344 198.183594 64.277344 198.894531 C 64.277344 199.441406 63.984375 199.539062 63.875 199.574219 L 64.523438 201.539062 C 65.648438 201.167969 66.34375 200.152344 66.34375 198.890625 C 66.34375 197.042969 64.839844 195.539062 62.992188 195.539062 C 62.730469 195.539062 62.480469 195.574219 62.234375 195.628906 C 62.28125 195.421875 62.457031 195.265625 62.675781 195.265625 L 66.21875 195.265625 L 66.21875 192.90625 L 67.964844 192.90625 L 67.964844 201.601562 L 70.03125 201.601562 L 70.03125 192.90625 L 77.839844 192.90625 L 77.839844 194.175781 L 73.847656 194.175781 L 74.5 195.632812 C 75.28125 197.378906 75.183594 198.210938 75.089844 198.410156 C 75.003906 198.402344 74.800781 198.339844 74.53125 198.109375 C 73.851562 197.539062 73.113281 196.210938 73.078125 194.210938 L 71.007812 194.25 C 71.074219 197.597656 72.65625 199.703125 74.203125 200.300781 C 74.910156 200.578125 76.183594 200.273438 76.570312 199.871094 C 77.101562 199.308594 77.53125 198.242188 76.9375 196.246094 L 77.839844 196.246094 L 77.839844 201.597656 L 79.90625 201.597656 L 79.90625 192.90625 L 81.519531 192.90625 L 81.519531 201.597656 L 83.585938 201.597656 L 83.585938 192.90625 L 89.40625 192.90625 L 89.40625 193.621094 C 89.003906 193.449219 88.558594 193.355469 88.09375 193.355469 C 86.226562 193.355469 84.710938 194.871094 84.710938 196.734375 C 84.710938 198.601562 86.226562 200.117188 88.09375 200.117188 C 88.558594 200.117188 89.003906 200.023438 89.40625 199.851562 L 89.40625 201.597656 L 91.472656 201.597656 L 91.472656 192.90625 L 93.085938 192.90625 L 93.085938 201.597656 L 95.152344 201.597656 L 95.152344 195.878906 L 98.5 198.328125 L 99.347656 197.171875 L 101.605469 197.171875 L 101.605469 201.597656 L 103.675781 201.597656 L 103.675781 192.90625 L 105.535156 192.90625 L 105.535156 196.480469 L 104.566406 196.480469 L 105.535156 196.875 L 105.535156 201.597656 L 107.605469 201.597656 L 107.605469 197.710938 L 110.210938 198.761719 C 110.363281 198.824219 110.523438 198.855469 110.683594 198.855469 C 110.933594 198.855469 111.179688 198.78125 111.394531 198.636719 C 111.4375 198.609375 111.472656 198.582031 111.511719 198.546875 L 114.234375 198.546875 L 114.234375 201.601562 Z M 88.09375 198.050781 C 87.371094 198.050781 86.78125 197.460938 86.78125 196.738281 C 86.78125 196.011719 87.371094 195.421875 88.09375 195.421875 C 88.816406 195.421875 89.40625 196.011719 89.40625 196.738281 C 89.40625 197.460938 88.816406 198.050781 88.09375 198.050781 Z M 78.964844 188.597656 C 78.964844 188.597656 79.046875 188.550781 79.285156 188.550781 C 80.421875 188.550781 81.007812 189.84375 81.289062 190.839844 L 79.507812 190.839844 C 79.066406 189.882812 78.808594 188.851562 78.964844 188.597656 Z M 9.414062 196.910156 C 8.066406 198.054688 7.199219 197.226562 7.199219 196.738281 L 7.199219 192.90625 L 9.414062 192.90625 Z M 30.167969 196.910156 C 28.804688 198.0625 27.953125 197.230469 27.953125 196.738281 L 27.953125 192.90625 L 30.167969 192.90625 Z M 48.34375 196.910156 C 46.984375 198.0625 46.128906 197.230469 46.128906 196.738281 L 46.128906 192.90625 L 48.34375 192.90625 Z M 101.609375 195.101562 L 95.15625 195.101562 L 95.15625 192.90625 L 101.609375 192.90625 Z M 107.605469 196.484375 L 107.605469 192.90625 L 109.886719 192.90625 L 109.886719 196.484375 Z M 111.957031 196.484375 L 111.957031 192.90625 L 114.238281 192.90625 L 114.238281 196.484375 Z M 111.957031 196.484375 "/></g><g clip-rule="nonzero" clip-path="url(#02905fd3f5)"><path style=" stroke:none;fill-rule:nonzero;fill:#d4b200;fill-opacity:1;" d="M 113.917969 203.492188 L 115.382812 202.027344 L 117.613281 204.257812 L 116.148438 205.71875 Z M 113.917969 203.492188 "/></g></g></svg>