<svg xmlns="http://www.w3.org/2000/svg" xmlns:xlink="http://www.w3.org/1999/xlink" width="69" zoomAndPan="magnify" viewBox="0 0 51.75 75.749998" height="101" preserveAspectRatio="xMidYMid meet" version="1.2"><defs><clipPath id="4063cf964e"><path d="M 0.132812 0.0585938 L 51.339844 0.0585938 L 51.339844 51.292969 L 0.132812 51.292969 Z M 0.132812 0.0585938 "/></clipPath><clipPath id="858936c2cc"><path d="M 15.050781 14.980469 L 36.445312 14.980469 L 36.445312 36.371094 L 15.050781 36.371094 Z M 15.050781 14.980469 "/></clipPath><clipPath id="db141de0a3"><path d="M 25.75 14.980469 C 19.839844 14.980469 15.050781 19.769531 15.050781 25.675781 C 15.050781 31.582031 19.839844 36.371094 25.75 36.371094 C 31.65625 36.371094 36.445312 31.582031 36.445312 25.675781 C 36.445312 19.769531 31.65625 14.980469 25.75 14.980469 Z M 25.75 14.980469 "/></clipPath><clipPath id="7c695129cd"><path d="M 9.703125 14.503906 L 41.796875 14.503906 L 41.796875 39.675781 L 9.703125 39.675781 Z M 9.703125 14.503906 "/></clipPath><clipPath id="1c085be918"><path d="M 0 53 L 51.5 53 L 51.5 56 L 0 56 Z M 0 53 "/></clipPath><clipPath id="a45cc193a5"><path d="M 0 67 L 51.5 67 L 51.5 70 L 0 70 Z M 0 67 "/></clipPath></defs><g id="b57bb8ef73"><g clip-rule="nonzero" clip-path="url(#4063cf964e)"><path style=" stroke:none;fill-rule:nonzero;fill:#ab080d;fill-opacity:1;" d="M 49.5 29.683594 C 50.507812 29.683594 51.328125 28.859375 51.328125 27.855469 L 51.328125 23.433594 C 51.328125 22.429688 50.507812 21.605469 49.5 21.605469 L 47.601562 21.605469 C 46.597656 21.605469 45.535156 20.820312 45.238281 19.859375 L 43.617188 15.929688 C 43.144531 15.042969 43.335938 13.738281 44.046875 13.027344 L 45.390625 11.683594 C 46.101562 10.972656 46.101562 9.808594 45.390625 9.097656 L 42.265625 5.972656 C 41.554688 5.261719 40.390625 5.261719 39.679688 5.972656 L 38.335938 7.316406 C 37.625 8.027344 36.320312 8.21875 35.433594 7.746094 L 31.503906 6.125 C 30.542969 5.828125 29.757812 4.765625 29.757812 3.761719 L 29.757812 1.863281 C 29.757812 0.855469 28.933594 0.0351562 27.929688 0.0351562 L 23.507812 0.0351562 C 22.503906 0.0351562 21.679688 0.855469 21.679688 1.863281 L 21.679688 3.761719 C 21.679688 4.765625 20.894531 5.828125 19.933594 6.125 L 16.003906 7.746094 C 15.117188 8.21875 13.8125 8.027344 13.101562 7.316406 L 11.757812 5.972656 C 11.046875 5.261719 9.882812 5.261719 9.171875 5.972656 L 6.046875 9.097656 C 5.335938 9.808594 5.335938 10.972656 6.046875 11.683594 L 7.390625 13.027344 C 8.101562 13.738281 8.296875 15.042969 7.820312 15.929688 L 6.199219 19.859375 C 5.90625 20.820312 4.839844 21.605469 3.835938 21.605469 L 1.9375 21.605469 C 0.933594 21.605469 0.109375 22.429688 0.109375 23.433594 L 0.109375 27.855469 C 0.109375 28.859375 0.933594 29.683594 1.9375 29.683594 L 3.835938 29.683594 C 4.839844 29.683594 5.90625 30.46875 6.199219 31.429688 L 7.820312 35.359375 C 8.296875 36.246094 8.101562 37.554688 7.390625 38.261719 L 6.050781 39.605469 C 5.339844 40.316406 5.339844 41.480469 6.050781 42.191406 L 9.171875 45.316406 C 9.882812 46.027344 11.046875 46.027344 11.757812 45.316406 L 13.101562 43.972656 C 13.8125 43.261719 15.117188 43.070312 16.003906 43.542969 L 19.933594 45.164062 C 20.894531 45.460938 21.683594 46.523438 21.683594 47.527344 L 21.683594 49.425781 C 21.683594 50.433594 22.503906 51.253906 23.507812 51.253906 L 27.929688 51.253906 C 28.933594 51.253906 29.757812 50.433594 29.757812 49.425781 L 29.757812 47.527344 C 29.757812 46.523438 30.542969 45.460938 31.503906 45.164062 L 35.433594 43.542969 C 36.320312 43.070312 37.625 43.261719 38.335938 43.972656 L 39.683594 45.316406 C 40.390625 46.027344 41.554688 46.027344 42.265625 45.316406 L 45.390625 42.191406 C 46.101562 41.480469 46.101562 40.316406 45.390625 39.605469 L 44.046875 38.261719 C 43.335938 37.550781 43.144531 36.246094 43.621094 35.359375 L 45.238281 31.429688 C 45.535156 30.46875 46.597656 29.683594 47.605469 29.683594 Z M 25.71875 36.179688 C 19.898438 36.179688 15.183594 31.464844 15.183594 25.644531 C 15.183594 19.824219 19.898438 15.109375 25.71875 15.109375 C 31.539062 15.109375 36.253906 19.824219 36.253906 25.644531 C 36.253906 31.464844 31.539062 36.179688 25.71875 36.179688 Z M 25.71875 36.179688 "/></g><path style=" stroke:none;fill-rule:nonzero;fill:#ffd600;fill-opacity:1;" d="M 41.730469 14.445312 C 40.726562 15.445312 39.265625 15.703125 38.027344 15.214844 L 31.132812 22.109375 C 31.621094 23.347656 31.363281 24.8125 30.363281 25.8125 C 29.359375 26.8125 27.898438 27.070312 26.660156 26.582031 L 29.261719 23.980469 C 29.417969 23.824219 29.417969 23.566406 29.261719 23.410156 L 27.886719 22.039062 C 27.730469 21.878906 27.476562 21.878906 27.320312 22.039062 L 24.714844 24.640625 C 24.226562 23.398438 24.484375 21.9375 25.484375 20.9375 C 26.488281 19.933594 27.949219 19.679688 29.1875 20.167969 L 36.082031 13.273438 C 35.59375 12.035156 35.851562 10.570312 36.851562 9.570312 C 37.855469 8.570312 39.316406 8.3125 40.554688 8.800781 L 37.863281 11.488281 C 37.707031 11.648438 37.707031 11.902344 37.863281 12.058594 L 39.238281 13.433594 C 39.394531 13.589844 39.652344 13.589844 39.808594 13.433594 L 42.5 10.742188 C 42.984375 11.980469 42.730469 13.445312 41.730469 14.445312 Z M 41.730469 14.445312 "/><path style=" stroke:none;fill-rule:nonzero;fill:#ffd600;fill-opacity:1;" d="M 27.691406 28.988281 C 26.597656 30.082031 25 30.359375 23.648438 29.828125 L 16.117188 37.359375 C 16.648438 38.710938 16.367188 40.308594 15.273438 41.402344 C 14.183594 42.496094 12.582031 42.777344 11.230469 42.242188 L 14.074219 39.402344 C 14.246094 39.230469 14.246094 38.949219 14.074219 38.777344 L 12.574219 37.28125 C 12.402344 37.105469 12.121094 37.105469 11.953125 37.28125 L 9.105469 40.121094 C 8.574219 38.769531 8.855469 37.171875 9.949219 36.078125 C 11.042969 34.984375 12.640625 34.703125 13.992188 35.234375 L 21.523438 27.703125 C 20.992188 26.351562 21.269531 24.753906 22.363281 23.660156 C 23.460938 22.566406 25.058594 22.285156 26.410156 22.820312 L 23.472656 25.757812 C 23.300781 25.929688 23.300781 26.207031 23.472656 26.378906 L 24.972656 27.878906 C 25.144531 28.050781 25.421875 28.050781 25.59375 27.878906 L 28.535156 24.941406 C 29.066406 26.292969 28.785156 27.894531 27.691406 28.984375 Z M 27.691406 28.988281 "/><g clip-rule="nonzero" clip-path="url(#858936c2cc)"><g clip-rule="nonzero" clip-path="url(#db141de0a3)"><path style=" stroke:none;fill-rule:nonzero;fill:#ab080d;fill-opacity:1;" d="M 15.050781 14.980469 L 36.445312 14.980469 L 36.445312 36.371094 L 15.050781 36.371094 Z M 15.050781 14.980469 "/></g></g><path style=" stroke:none;fill-rule:nonzero;fill:#fffbec;fill-opacity:1;" d="M 18.121094 32.160156 L 18.335938 32.207031 L 18.550781 32.261719 L 18.765625 32.3125 L 18.976562 32.363281 C 19.121094 32.398438 19.261719 32.433594 19.402344 32.46875 L 19.832031 32.578125 L 20.253906 32.6875 L 20.679688 32.800781 L 21.101562 32.917969 L 21.199219 32.941406 L 21.199219 33.046875 C 21.203125 33.148438 21.207031 33.25 21.207031 33.351562 L 21.207031 33.652344 C 21.210938 33.753906 21.210938 33.855469 21.210938 33.957031 L 21.214844 34.257812 C 21.214844 34.359375 21.214844 34.460938 21.214844 34.5625 L 21.21875 34.867188 L 21.21875 35.167969 L 21.214844 35.472656 L 21.214844 35.695312 L 21.007812 35.613281 L 20.824219 35.546875 L 20.640625 35.472656 L 20.277344 35.328125 L 19.910156 35.183594 L 19.730469 35.109375 L 19.546875 35.039062 L 19.1875 34.890625 L 18.820312 34.742188 C 18.699219 34.691406 18.582031 34.640625 18.460938 34.589844 C 18.339844 34.539062 18.21875 34.488281 18.097656 34.4375 L 18.042969 34.414062 L 18.035156 34.363281 L 18.007812 34.113281 L 17.976562 33.867188 L 17.953125 33.625 C 17.941406 33.539062 17.933594 33.457031 17.929688 33.375 L 17.875 32.882812 C 17.871094 32.800781 17.859375 32.714844 17.855469 32.632812 L 17.84375 32.511719 C 17.84375 32.46875 17.839844 32.425781 17.835938 32.386719 C 17.84375 32.425781 17.855469 32.464844 17.859375 32.507812 L 17.890625 32.628906 C 17.90625 32.710938 17.925781 32.789062 17.941406 32.871094 L 18.042969 33.355469 C 18.058594 33.441406 18.074219 33.519531 18.089844 33.601562 L 18.136719 33.84375 L 18.183594 34.089844 L 18.21875 34.273438 C 18.324219 34.3125 18.429688 34.347656 18.539062 34.382812 C 18.664062 34.429688 18.785156 34.46875 18.90625 34.515625 L 19.277344 34.648438 L 19.644531 34.78125 L 19.832031 34.847656 L 20.015625 34.917969 L 20.382812 35.054688 L 20.753906 35.1875 L 20.910156 35.25 L 20.910156 34.5625 C 20.910156 34.460938 20.910156 34.359375 20.910156 34.257812 L 20.914062 33.957031 C 20.914062 33.855469 20.917969 33.753906 20.917969 33.652344 L 20.921875 33.351562 C 20.921875 33.28125 20.921875 33.214844 20.921875 33.148438 L 20.816406 33.113281 L 20.605469 33.046875 L 20.1875 32.917969 L 19.351562 32.644531 C 19.214844 32.59375 19.074219 32.550781 18.9375 32.503906 L 18.726562 32.433594 L 18.519531 32.363281 L 18.308594 32.289062 L 18.105469 32.214844 C 18.035156 32.191406 17.96875 32.167969 17.898438 32.144531 C 17.828125 32.117188 17.757812 32.09375 17.691406 32.066406 C 17.761719 32.082031 17.835938 32.097656 17.90625 32.113281 C 17.976562 32.128906 18.050781 32.144531 18.121094 32.160156 Z M 18.121094 32.160156 "/><path style=" stroke:none;fill-rule:nonzero;fill:#fffbec;fill-opacity:1;" d="M 24.378906 21.429688 C 24.378906 21.429688 24.394531 24.917969 24.117188 24.984375 C 23.835938 25.050781 22.828125 25.164062 22.828125 25.164062 C 22.828125 25.164062 22.960938 23.148438 23.058594 22.46875 C 23.160156 21.792969 23.304688 21.625 24.378906 21.429688 Z M 24.378906 21.429688 "/><path style=" stroke:none;fill-rule:nonzero;fill:#fffbec;fill-opacity:1;" d="M 23.21875 35.339844 C 23.398438 35.339844 23.546875 35.757812 23.546875 36.273438 C 23.546875 36.792969 23.398438 37.210938 23.21875 37.210938 C 23.035156 37.210938 22.890625 36.792969 22.890625 36.273438 C 22.890625 35.757812 23.035156 35.339844 23.21875 35.339844 Z M 23.21875 35.339844 "/><path style=" stroke:none;fill-rule:nonzero;fill:#fffbec;fill-opacity:1;" d="M 25.519531 21.164062 L 27.109375 20.800781 C 27.324219 20.75 27.53125 20.914062 27.53125 21.140625 L 27.53125 25.089844 C 27.53125 25.285156 27.363281 25.441406 27.167969 25.433594 L 25.578125 25.34375 C 25.394531 25.328125 25.25 25.175781 25.25 24.996094 L 25.25 21.5 C 25.25 21.335938 25.363281 21.199219 25.519531 21.164062 Z M 25.519531 21.164062 "/><path style=" stroke:none;fill-rule:nonzero;fill:#fffbec;fill-opacity:1;" d="M 33.484375 37.027344 L 38.21875 36.550781 C 38.304688 36.539062 38.378906 36.589844 38.410156 36.660156 C 38.425781 36.703125 38.429688 36.753906 38.410156 36.800781 L 38.253906 37.207031 C 38.179688 37.398438 38.003906 37.535156 37.796875 37.5625 L 34.101562 38.027344 C 33.890625 38.054688 33.683594 37.960938 33.566406 37.785156 L 33.308594 37.410156 C 33.277344 37.363281 33.261719 37.308594 33.261719 37.253906 C 33.261719 37.246094 33.261719 37.238281 33.265625 37.226562 C 33.285156 37.125 33.367188 37.039062 33.484375 37.027344 Z M 33.484375 37.027344 "/><path style=" stroke:none;fill-rule:nonzero;fill:#fffbec;fill-opacity:1;" d="M 32.578125 35.699219 C 32.582031 35.660156 32.582031 35.625 32.585938 35.589844 C 32.585938 35.578125 32.585938 35.570312 32.585938 35.5625 L 32.585938 35.539062 L 32.589844 35.527344 C 32.589844 35.519531 32.589844 35.511719 32.59375 35.5 C 32.59375 35.488281 32.59375 35.472656 32.597656 35.460938 C 32.621094 35.371094 32.675781 35.289062 32.757812 35.238281 C 32.796875 35.207031 32.84375 35.1875 32.894531 35.179688 C 32.902344 35.179688 32.914062 35.175781 32.925781 35.175781 C 32.9375 35.175781 32.945312 35.175781 32.960938 35.175781 L 33.019531 35.167969 C 33.59375 35.125 34.167969 35.074219 34.304688 35.066406 C 34.171875 35.089844 33.601562 35.175781 33.03125 35.265625 L 32.96875 35.277344 C 32.960938 35.277344 32.949219 35.277344 32.941406 35.28125 C 32.929688 35.285156 32.925781 35.285156 32.914062 35.289062 C 32.882812 35.296875 32.851562 35.3125 32.828125 35.332031 C 32.773438 35.375 32.742188 35.429688 32.730469 35.492188 C 32.726562 35.5 32.726562 35.503906 32.726562 35.511719 C 32.726562 35.515625 32.726562 35.527344 32.726562 35.539062 L 32.726562 35.5625 C 32.726562 35.570312 32.726562 35.578125 32.726562 35.589844 C 32.730469 35.625 32.730469 35.660156 32.730469 35.699219 C 32.734375 35.722656 32.734375 35.746094 32.734375 35.765625 C 32.757812 35.761719 32.777344 35.757812 32.796875 35.753906 L 39.0625 35.191406 C 39.097656 35.1875 39.132812 35.191406 39.164062 35.199219 C 39.167969 35.132812 39.171875 35.0625 39.175781 34.988281 C 39.175781 34.957031 39.175781 34.925781 39.175781 34.894531 C 39.175781 34.886719 39.175781 34.875 39.175781 34.871094 C 39.175781 34.863281 39.175781 34.855469 39.175781 34.851562 C 39.175781 34.84375 39.175781 34.835938 39.171875 34.832031 C 39.171875 34.824219 39.167969 34.820312 39.164062 34.8125 C 39.148438 34.765625 39.105469 34.71875 39.054688 34.695312 C 39.027344 34.6875 39 34.679688 38.972656 34.679688 L 38.957031 34.679688 L 38.945312 34.683594 L 38.921875 34.683594 C 38.902344 34.683594 38.886719 34.683594 38.867188 34.6875 C 38.796875 34.6875 38.730469 34.6875 38.664062 34.691406 C 38.53125 34.699219 38.410156 34.703125 38.300781 34.707031 C 38.09375 34.71875 37.949219 34.71875 37.949219 34.71875 C 37.949219 34.71875 38.089844 34.703125 38.300781 34.675781 C 38.40625 34.664062 38.527344 34.648438 38.65625 34.628906 C 38.722656 34.621094 38.789062 34.613281 38.859375 34.601562 C 38.875 34.601562 38.894531 34.601562 38.910156 34.597656 L 38.9375 34.59375 L 38.953125 34.589844 L 38.964844 34.589844 C 39.007812 34.585938 39.046875 34.589844 39.089844 34.601562 C 39.167969 34.628906 39.238281 34.6875 39.273438 34.769531 C 39.277344 34.777344 39.28125 34.785156 39.285156 34.796875 C 39.289062 34.804688 39.289062 34.816406 39.292969 34.828125 C 39.296875 34.835938 39.300781 34.851562 39.300781 34.859375 C 39.300781 34.871094 39.304688 34.878906 39.304688 34.886719 C 39.308594 34.921875 39.308594 34.957031 39.308594 34.988281 C 39.3125 35.101562 39.316406 35.207031 39.324219 35.300781 C 39.363281 35.351562 39.390625 35.417969 39.390625 35.492188 L 39.390625 35.785156 C 39.390625 35.9375 39.273438 36.066406 39.125 36.082031 L 37.066406 36.308594 C 37 36.316406 36.9375 36.34375 36.890625 36.386719 L 36.796875 36.476562 C 36.75 36.519531 36.6875 36.550781 36.621094 36.554688 L 35.550781 36.660156 C 35.472656 36.667969 35.402344 36.648438 35.339844 36.601562 L 35.296875 36.570312 C 35.234375 36.519531 35.160156 36.5 35.082031 36.507812 L 32.855469 36.746094 C 32.675781 36.765625 32.523438 36.625 32.523438 36.449219 L 32.523438 36.054688 C 32.523438 35.996094 32.539062 35.9375 32.574219 35.890625 C 32.574219 35.828125 32.578125 35.765625 32.578125 35.699219 Z M 32.578125 35.699219 "/><g clip-rule="nonzero" clip-path="url(#7c695129cd)"><path style=" stroke:none;fill-rule:nonzero;fill:#fffbec;fill-opacity:1;" d="M 10.011719 18.386719 L 21.410156 14.617188 C 21.5 14.550781 21.605469 14.511719 21.726562 14.519531 C 21.734375 14.519531 22.40625 14.574219 23.347656 14.652344 C 25.28125 14.808594 28.332031 15.054688 29.089844 15.132812 C 29.8125 15.203125 31.226562 15.359375 32.59375 15.625 C 33.398438 15.785156 34.074219 15.960938 34.59375 16.148438 C 35.210938 16.367188 35.617188 16.601562 35.835938 16.859375 C 36.628906 16.964844 37.21875 17.042969 37.386719 17.070312 L 37.457031 17.078125 C 38.097656 17.175781 38.832031 17.289062 39.199219 17.910156 C 39.519531 18.445312 39.949219 19.613281 40.03125 19.832031 C 40.152344 19.980469 40.167969 20.210938 40.070312 20.523438 C 40.027344 20.65625 39.972656 20.777344 39.933594 20.851562 C 40.402344 21.902344 41.335938 26.097656 41.378906 26.277344 C 41.378906 26.28125 41.378906 26.28125 41.378906 26.28125 C 41.378906 26.28125 41.378906 26.285156 41.378906 26.292969 C 41.378906 26.292969 41.378906 26.296875 41.378906 26.300781 C 41.378906 26.300781 41.378906 26.304688 41.378906 26.308594 C 41.378906 26.3125 41.378906 26.3125 41.378906 26.316406 L 41.378906 28.761719 C 41.53125 28.824219 41.6875 28.957031 41.6875 29.144531 L 41.6875 30.582031 C 41.6875 31.128906 41.398438 31.308594 41.101562 31.355469 L 41.101562 31.585938 C 41.269531 31.625 41.429688 31.714844 41.558594 31.847656 C 41.722656 32.019531 41.816406 32.246094 41.816406 32.46875 L 41.816406 34.125 C 41.816406 34.792969 41.742188 35.671875 41.683594 36.378906 C 41.648438 36.789062 41.613281 37.144531 41.613281 37.300781 C 41.613281 37.367188 41.574219 37.429688 41.507812 37.453125 C 41.382812 37.5 41.261719 37.546875 41.140625 37.582031 C 39.867188 38.019531 38.777344 38.152344 37.960938 38.25 C 37.683594 38.28125 37.445312 38.308594 37.234375 38.34375 C 36.820312 38.414062 35.90625 38.507812 34.941406 38.609375 C 33.949219 38.714844 32.59375 38.859375 32.4375 38.917969 C 32.234375 39.003906 31.269531 39.078125 30.707031 39.113281 C 30.144531 39.148438 29.476562 39.183594 29.042969 39.183594 C 28.921875 39.183594 28.820312 39.179688 28.746094 39.171875 C 28.230469 39.136719 27.886719 38.992188 27.738281 38.925781 C 27.554688 38.992188 27.066406 39.152344 26.667969 39.105469 C 26.296875 39.0625 25.722656 38.828125 25.417969 38.703125 C 25.355469 39.316406 24.839844 39.621094 23.761719 39.621094 L 23.757812 39.621094 C 22.777344 39.617188 22.035156 37.488281 22.035156 36.773438 C 22.035156 36.773438 22.027344 36.773438 22.019531 36.769531 L 17.890625 34.949219 C 17.769531 35.460938 17.585938 35.792969 17.378906 35.792969 C 17.335938 35.792969 17.300781 35.78125 17.265625 35.757812 L 16.777344 35.613281 L 16.773438 35.597656 C 16.527344 35.484375 16.324219 34.90625 16.246094 34.136719 C 16.101562 34.15625 15.851562 34.058594 15.296875 33.808594 C 15.171875 33.753906 15.058594 33.703125 14.984375 33.671875 C 14.921875 33.648438 14.878906 33.585938 14.878906 33.515625 C 14.886719 33.289062 14.886719 33.113281 14.882812 33.003906 L 12.691406 32.3125 L 12.691406 32.699219 L 12.695312 32.703125 C 12.691406 32.714844 12.691406 32.71875 12.691406 32.730469 L 12.691406 33.488281 C 12.691406 33.53125 12.644531 33.5625 12.605469 33.550781 L 12.285156 33.457031 C 12.238281 33.488281 12.1875 33.503906 12.136719 33.503906 C 12.101562 33.503906 12.0625 33.492188 12.023438 33.476562 L 11.539062 33.371094 L 11.535156 33.355469 C 11.394531 33.3125 11.273438 33.15625 11.175781 32.929688 L 10.875 32.863281 L 10.867188 32.847656 C 10.621094 32.765625 10.429688 32.234375 10.429688 31.585938 C 10.429688 31.457031 10.433594 31.332031 10.453125 31.214844 L 10.128906 31.214844 L 10.128906 29.851562 L 9.832031 29.828125 C 9.746094 29.820312 9.679688 29.75 9.679688 29.664062 C 9.679688 29.664062 9.902344 18.394531 10.011719 18.386719 Z M 39.953125 21.933594 C 39.9375 21.875 39.921875 21.820312 39.902344 21.769531 C 39.792969 21.390625 39.6875 21.089844 39.605469 20.925781 C 39.578125 20.875 39.582031 20.816406 39.609375 20.769531 C 39.746094 20.523438 39.84375 20.183594 39.789062 20.070312 C 37.953125 19.589844 33.597656 19.210938 30.980469 18.984375 C 30.015625 18.902344 29.25 18.835938 28.921875 18.789062 C 28.769531 18.773438 28.503906 18.78125 28.042969 18.867188 C 28.230469 19.042969 28.34375 19.3125 28.34375 19.578125 C 28.34375 19.648438 28.351562 19.925781 28.367188 20.324219 C 28.371094 20.574219 28.378906 20.871094 28.394531 21.195312 C 28.445312 22.8125 28.519531 25.132812 28.539062 25.746094 L 41.007812 26.140625 C 40.855469 25.464844 40.351562 23.296875 39.953125 21.933594 Z M 28.546875 26.078125 L 28.546875 29.042969 L 29.3125 29.042969 L 29.171875 26.097656 Z M 41.050781 26.472656 L 29.289062 26.101562 L 29.472656 28.453125 L 41.050781 28.453125 Z M 35.550781 29.335938 L 31.460938 29.421875 L 35.503906 29.503906 C 35.484375 29.582031 35.476562 29.660156 35.476562 29.738281 C 35.476562 29.8125 35.484375 29.878906 35.496094 29.945312 L 31.476562 30.027344 L 35.539062 30.109375 C 35.558594 30.171875 35.585938 30.230469 35.613281 30.285156 L 31.804688 30.371094 L 35.742188 30.457031 C 35.855469 30.566406 35.992188 30.632812 36.140625 30.632812 C 36.304688 30.632812 36.460938 30.550781 36.574219 30.410156 L 39.59375 30.324219 L 36.683594 30.242188 C 36.707031 30.203125 36.722656 30.15625 36.738281 30.113281 L 39.714844 30.027344 L 36.78125 29.941406 C 36.792969 29.875 36.800781 29.808594 36.800781 29.738281 C 36.800781 29.660156 36.792969 29.582031 36.777344 29.503906 L 40.015625 29.421875 L 36.730469 29.335938 C 36.707031 29.28125 36.679688 29.226562 36.648438 29.175781 L 40.113281 29.089844 L 36.519531 29.003906 L 36.519531 29.015625 C 36.414062 28.910156 36.28125 28.847656 36.140625 28.847656 C 36 28.847656 35.871094 28.90625 35.761719 29.007812 L 31.15625 29.160156 L 35.625 29.179688 C 35.597656 29.226562 35.570312 29.28125 35.550781 29.335938 Z M 27.917969 34.210938 C 27.929688 34.214844 27.933594 34.214844 27.941406 34.21875 C 27.957031 34.222656 27.972656 34.226562 27.988281 34.230469 C 28.003906 34.234375 28.019531 34.238281 28.035156 34.242188 C 28.054688 34.25 28.070312 34.25 28.089844 34.257812 C 28.097656 34.257812 28.097656 34.257812 28.105469 34.261719 C 28.109375 34.261719 28.113281 34.261719 28.121094 34.265625 C 28.128906 34.265625 28.140625 34.265625 28.148438 34.265625 C 28.167969 34.269531 28.191406 34.277344 28.210938 34.28125 C 28.234375 34.28125 28.257812 34.285156 28.28125 34.289062 C 28.304688 34.292969 28.328125 34.296875 28.351562 34.300781 C 28.378906 34.300781 28.402344 34.304688 28.429688 34.308594 C 28.441406 34.308594 28.453125 34.3125 28.464844 34.3125 C 28.480469 34.3125 28.496094 34.3125 28.507812 34.3125 C 28.535156 34.316406 28.5625 34.316406 28.589844 34.320312 C 28.648438 34.320312 28.703125 34.324219 28.765625 34.328125 C 28.886719 34.328125 29.015625 34.328125 29.148438 34.320312 C 29.214844 34.316406 29.28125 34.3125 29.351562 34.3125 C 29.386719 34.3125 29.421875 34.308594 29.457031 34.308594 C 29.492188 34.308594 29.527344 34.304688 29.5625 34.304688 C 29.703125 34.300781 29.84375 34.292969 29.988281 34.289062 C 31.058594 34.25 32.121094 34.210938 32.265625 34.203125 C 32.273438 34.203125 32.28125 34.203125 32.28125 34.203125 C 32.28125 34.203125 31.140625 34.316406 30 34.433594 C 29.855469 34.445312 29.710938 34.460938 29.574219 34.472656 C 29.539062 34.476562 29.503906 34.480469 29.46875 34.484375 C 29.433594 34.488281 29.398438 34.492188 29.363281 34.496094 C 29.296875 34.5 29.226562 34.507812 29.160156 34.519531 C 29.023438 34.53125 28.894531 34.539062 28.769531 34.546875 C 28.707031 34.550781 28.644531 34.550781 28.582031 34.554688 C 28.554688 34.554688 28.527344 34.554688 28.5 34.546875 C 28.484375 34.546875 28.46875 34.546875 28.453125 34.546875 C 28.441406 34.546875 28.425781 34.546875 28.414062 34.546875 C 28.382812 34.546875 28.359375 34.546875 28.332031 34.546875 C 28.304688 34.542969 28.28125 34.542969 28.253906 34.539062 C 28.230469 34.535156 28.203125 34.535156 28.179688 34.53125 C 28.15625 34.53125 28.128906 34.527344 28.109375 34.523438 C 28.097656 34.523438 28.085938 34.519531 28.074219 34.519531 C 28.070312 34.519531 28.0625 34.519531 28.058594 34.519531 C 28.054688 34.519531 28.046875 34.519531 28.042969 34.515625 C 28.023438 34.511719 28 34.507812 27.980469 34.503906 C 27.960938 34.5 27.941406 34.5 27.925781 34.496094 C 27.921875 34.496094 27.921875 34.496094 27.917969 34.492188 L 27.917969 37.445312 C 27.929688 37.449219 27.9375 37.453125 27.945312 37.453125 C 27.953125 37.457031 27.960938 37.460938 27.96875 37.460938 C 27.976562 37.464844 27.984375 37.464844 27.992188 37.464844 C 28.011719 37.46875 28.027344 37.472656 28.046875 37.480469 C 28.066406 37.480469 28.085938 37.484375 28.109375 37.488281 C 28.117188 37.488281 28.128906 37.492188 28.140625 37.492188 C 28.152344 37.496094 28.160156 37.496094 28.175781 37.5 C 28.195312 37.5 28.21875 37.503906 28.246094 37.507812 C 28.34375 37.515625 28.457031 37.523438 28.582031 37.527344 C 28.703125 37.527344 28.839844 37.527344 28.984375 37.523438 C 29.125 37.515625 29.277344 37.515625 29.4375 37.503906 C 29.515625 37.5 29.59375 37.5 29.675781 37.496094 C 29.714844 37.492188 29.757812 37.492188 29.796875 37.488281 C 29.839844 37.488281 29.878906 37.484375 29.921875 37.480469 C 30.003906 37.480469 30.085938 37.472656 30.167969 37.46875 C 30.25 37.464844 30.335938 37.457031 30.417969 37.449219 C 30.585938 37.441406 30.753906 37.429688 30.921875 37.414062 C 31.085938 37.402344 31.246094 37.390625 31.402344 37.378906 C 31.714844 37.351562 32.007812 37.328125 32.261719 37.308594 C 32.640625 37.277344 32.921875 37.25 33.039062 37.242188 C 32.921875 37.253906 32.640625 37.292969 32.265625 37.335938 C 32.015625 37.367188 31.722656 37.402344 31.410156 37.441406 C 31.253906 37.457031 31.09375 37.476562 30.925781 37.496094 C 30.761719 37.515625 30.59375 37.53125 30.429688 37.546875 C 30.34375 37.558594 30.261719 37.566406 30.179688 37.578125 C 30.09375 37.582031 30.011719 37.59375 29.929688 37.597656 C 29.886719 37.601562 29.84375 37.609375 29.804688 37.613281 C 29.761719 37.613281 29.726562 37.617188 29.683594 37.621094 C 29.601562 37.628906 29.523438 37.632812 29.441406 37.640625 C 29.289062 37.652344 29.136719 37.667969 28.988281 37.675781 C 28.847656 37.683594 28.707031 37.691406 28.582031 37.691406 C 28.453125 37.695312 28.332031 37.691406 28.230469 37.683594 C 28.203125 37.683594 28.179688 37.683594 28.152344 37.679688 C 28.140625 37.679688 28.128906 37.675781 28.117188 37.675781 C 28.105469 37.675781 28.09375 37.671875 28.082031 37.671875 C 28.0625 37.667969 28.039062 37.667969 28.015625 37.664062 C 27.992188 37.660156 27.976562 37.65625 27.957031 37.652344 C 27.945312 37.648438 27.9375 37.648438 27.929688 37.648438 C 27.925781 37.648438 27.921875 37.648438 27.917969 37.644531 L 27.917969 38.640625 C 28.050781 38.703125 28.34375 38.8125 28.769531 38.84375 C 29.050781 38.863281 29.839844 38.839844 30.683594 38.785156 C 31.734375 38.714844 32.230469 38.644531 32.304688 38.613281 C 32.464844 38.542969 33.257812 38.457031 34.910156 38.28125 C 35.824219 38.1875 36.777344 38.085938 37.179688 38.019531 C 37.398438 37.984375 37.640625 37.953125 37.921875 37.917969 C 38.71875 37.824219 39.796875 37.695312 41.039062 37.273438 C 41.121094 37.246094 41.203125 37.214844 41.289062 37.183594 C 41.296875 36.996094 41.320312 36.703125 41.351562 36.351562 C 41.351562 36.34375 41.355469 36.335938 41.355469 36.324219 L 38.597656 36.59375 L 41.371094 36.132812 C 41.429688 35.476562 41.488281 34.710938 41.488281 34.125 L 41.488281 33.648438 L 39.644531 33.558594 L 41.488281 33.46875 L 41.488281 32.46875 C 41.488281 32.179688 41.21875 31.902344 40.9375 31.902344 C 40.863281 31.902344 40.804688 31.855469 40.78125 31.789062 L 39.808594 31.789062 C 39.871094 31.710938 39.929688 31.605469 39.996094 31.46875 C 40.007812 31.449219 40.015625 31.421875 40.027344 31.398438 C 40.054688 31.335938 40.085938 31.269531 40.109375 31.199219 L 40.773438 31.199219 C 40.773438 31.109375 40.84375 31.03125 40.9375 31.03125 C 41.246094 31.03125 41.359375 30.910156 41.359375 30.582031 L 41.359375 29.148438 C 41.347656 29.113281 41.253906 29.0625 41.210938 29.058594 C 41.136719 29.058594 41.070312 29 41.054688 28.929688 C 40.542969 29.164062 40.292969 30.488281 40.0625 31.105469 C 40.027344 31.203125 39.992188 31.289062 39.960938 31.367188 C 39.949219 31.390625 39.933594 31.414062 39.925781 31.4375 C 39.777344 31.753906 39.644531 31.890625 39.476562 31.9375 C 39.425781 31.949219 39.371094 31.957031 39.3125 31.957031 L 32.050781 31.957031 C 31.699219 31.957031 31.46875 31.769531 31.257812 31.445312 C 31.160156 31.4375 31.015625 31.433594 30.839844 31.425781 C 30.679688 31.417969 30.492188 31.410156 30.292969 31.402344 C 30.269531 31.398438 30.242188 31.398438 30.21875 31.398438 L 30.203125 31.398438 L 30.195312 31.394531 L 30.175781 31.394531 L 30.15625 31.390625 L 30.148438 31.390625 L 30.132812 31.386719 C 30.117188 31.382812 30.101562 31.382812 30.085938 31.382812 L 30.0625 31.375 L 30.042969 31.367188 C 30.011719 31.363281 29.984375 31.351562 29.957031 31.335938 C 29.898438 31.3125 29.847656 31.277344 29.800781 31.238281 C 29.757812 31.199219 29.714844 31.152344 29.679688 31.105469 C 29.613281 31.011719 29.570312 30.902344 29.539062 30.796875 C 29.535156 30.785156 29.53125 30.773438 29.527344 30.761719 C 29.527344 30.746094 29.523438 30.734375 29.515625 30.722656 C 29.507812 30.695312 29.503906 30.671875 29.496094 30.644531 C 29.492188 30.621094 29.484375 30.59375 29.480469 30.570312 C 29.476562 30.542969 29.46875 30.519531 29.460938 30.496094 C 29.441406 30.398438 29.421875 30.304688 29.40625 30.210938 C 29.386719 30.121094 29.371094 30.039062 29.359375 29.957031 C 29.347656 29.917969 29.339844 29.882812 29.335938 29.84375 C 29.332031 29.808594 29.324219 29.773438 29.320312 29.742188 C 29.316406 29.710938 29.3125 29.679688 29.308594 29.652344 C 29.304688 29.625 29.300781 29.601562 29.300781 29.574219 C 29.296875 29.566406 29.296875 29.550781 29.296875 29.542969 C 29.292969 29.535156 29.292969 29.519531 29.292969 29.515625 C 29.292969 29.496094 29.289062 29.480469 29.289062 29.464844 C 29.289062 29.441406 29.289062 29.429688 29.289062 29.429688 C 29.289062 29.429688 29.292969 29.441406 29.292969 29.464844 C 29.296875 29.480469 29.300781 29.496094 29.300781 29.511719 C 29.304688 29.519531 29.304688 29.53125 29.308594 29.539062 C 29.308594 29.550781 29.308594 29.5625 29.3125 29.574219 C 29.316406 29.597656 29.324219 29.621094 29.328125 29.648438 C 29.335938 29.675781 29.339844 29.703125 29.347656 29.734375 C 29.359375 29.769531 29.363281 29.804688 29.375 29.839844 C 29.382812 29.871094 29.394531 29.910156 29.402344 29.949219 C 29.421875 30.023438 29.445312 30.105469 29.472656 30.195312 C 29.5 30.285156 29.527344 30.375 29.558594 30.46875 C 29.5625 30.496094 29.574219 30.515625 29.578125 30.542969 C 29.589844 30.566406 29.59375 30.589844 29.605469 30.613281 C 29.613281 30.636719 29.621094 30.664062 29.628906 30.683594 C 29.632812 30.695312 29.640625 30.710938 29.640625 30.722656 C 29.648438 30.730469 29.652344 30.746094 29.660156 30.757812 C 29.695312 30.847656 29.742188 30.9375 29.804688 31.011719 C 29.835938 31.050781 29.871094 31.082031 29.90625 31.105469 C 29.945312 31.136719 29.984375 31.152344 30.023438 31.167969 C 30.046875 31.175781 30.0625 31.183594 30.085938 31.183594 L 30.101562 31.1875 L 30.117188 31.1875 C 30.128906 31.191406 30.136719 31.191406 30.148438 31.191406 C 30.148438 31.191406 30.152344 31.191406 30.152344 31.191406 L 30.21875 31.191406 C 30.242188 31.191406 30.269531 31.191406 30.292969 31.1875 C 30.492188 31.179688 30.679688 31.171875 30.839844 31.164062 C 30.929688 31.160156 31.011719 31.15625 31.085938 31.152344 C 30.953125 30.902344 30.816406 30.605469 30.652344 30.269531 C 30.152344 29.257812 30.03125 29.230469 29.472656 29.230469 L 28.546875 29.230469 C 28.546875 29.320312 28.472656 29.394531 28.378906 29.394531 L 28.171875 29.394531 L 28.171875 31.625 L 31.289062 31.625 C 31.492188 31.886719 31.722656 32.03125 32.050781 32.03125 L 39.3125 32.03125 C 39.378906 32.03125 39.4375 32.023438 39.492188 32.007812 C 39.589844 31.984375 39.671875 31.933594 39.746094 31.859375 C 39.871094 32.128906 39.851562 32.648438 39.648438 33.015625 C 39.410156 33.453125 39.128906 33.777344 38.886719 33.777344 C 38.15625 33.777344 33.164062 34.203125 32.621094 34.203125 C 32.484375 34.144531 32.363281 34.023438 32.253906 33.878906 C 32.015625 33.558594 31.835938 33.109375 31.6875 32.859375 C 31.464844 32.496094 31.023438 32.375 30.792969 31.878906 L 28.171875 31.878906 L 28.171875 32.582031 C 28.171875 32.675781 28.097656 32.75 28.007812 32.75 C 28.003906 32.75 27.917969 32.75 27.917969 32.925781 Z M 25.15625 34.660156 C 25.304688 35.492188 25.367188 36.300781 25.371094 36.78125 C 25.375 36.957031 25.375 37.125 25.378906 37.289062 C 25.382812 37.734375 25.386719 38.195312 25.417969 38.339844 C 25.429688 38.34375 25.441406 38.351562 25.453125 38.359375 C 25.671875 38.453125 26.339844 38.738281 26.703125 38.777344 C 27.003906 38.8125 27.402344 38.691406 27.589844 38.628906 L 27.589844 36.308594 L 25.992188 35.632812 C 25.953125 35.617188 25.921875 35.585938 25.90625 35.546875 L 25.253906 34.074219 C 25.25 34.070312 25.25 34.0625 25.25 34.0625 L 25.25 34.058594 C 25.25 34.054688 25.246094 34.050781 25.246094 34.046875 C 25.246094 34.046875 25.246094 34.042969 25.242188 34.042969 L 25.042969 34.089844 C 25.085938 34.292969 25.125 34.484375 25.15625 34.660156 Z M 25.570312 33.84375 L 27.589844 33.84375 L 27.589844 33.082031 L 26.214844 33.082031 C 26.125 33.082031 26.050781 33.007812 26.050781 32.917969 C 26.050781 31.792969 25.652344 30.648438 24.796875 29.320312 L 24.101562 29.304688 C 24.164062 29.359375 24.222656 29.417969 24.273438 29.484375 C 24.539062 29.796875 24.777344 30.230469 24.984375 30.777344 C 25.328125 31.6875 25.546875 32.847656 25.570312 33.84375 Z M 23.980469 38.265625 C 24.222656 38.265625 24.574219 37.5625 24.574219 36.503906 C 24.574219 34.695312 23.789062 34.175781 23.699219 34.175781 C 23.609375 34.175781 23.132812 34.257812 23.101562 34.886719 C 23.140625 34.863281 23.179688 34.855469 23.21875 34.855469 C 23.371094 34.855469 23.511719 35.007812 23.609375 35.292969 C 23.699219 35.554688 23.75 35.902344 23.75 36.273438 C 23.75 36.648438 23.699219 36.996094 23.609375 37.261719 C 23.539062 37.457031 23.453125 37.589844 23.355469 37.652344 C 23.398438 37.964844 23.75 38.265625 23.980469 38.265625 Z M 23.21875 37.640625 C 23.480469 37.640625 23.699219 37.03125 23.699219 36.273438 C 23.699219 35.519531 23.480469 34.910156 23.21875 34.910156 C 22.953125 34.910156 22.738281 35.519531 22.738281 36.273438 C 22.738281 37.03125 22.953125 37.640625 23.21875 37.640625 Z M 23.152344 28.953125 C 23.179688 28.933594 23.207031 28.925781 23.242188 28.925781 C 23.332031 28.925781 23.421875 28.9375 23.511719 28.960938 L 24.804688 28.992188 L 28.007812 29.0625 L 28.214844 29.0625 L 28.214844 25.910156 C 28.207031 25.628906 28.015625 19.953125 28.015625 19.578125 C 28.015625 19.417969 27.945312 19.203125 27.785156 19.078125 C 27.675781 18.992188 27.539062 18.96875 27.386719 19.007812 C 27.378906 19.007812 27.371094 19.007812 27.371094 19.011719 C 26.863281 19.132812 26.214844 19.316406 25.378906 19.578125 C 24.203125 19.953125 23.113281 20.339844 22.789062 20.460938 C 22.695312 21.699219 22.558594 23.742188 22.433594 25.527344 C 22.332031 27.089844 22.238281 28.460938 22.210938 28.929688 Z M 22.105469 25.511719 C 22.285156 22.886719 22.503906 19.71875 22.554688 19.316406 L 22.554688 19.304688 C 22.601562 18.953125 22.640625 18.652344 22.722656 18.394531 C 22.824219 18.085938 22.976562 17.890625 23.207031 17.78125 C 23.445312 17.664062 24.59375 17.1875 25.636719 16.761719 C 25.160156 16.824219 24.59375 16.886719 24.03125 16.949219 C 23.171875 17.042969 22.476562 17.101562 21.964844 17.128906 C 21.9375 17.128906 21.914062 17.132812 21.890625 17.132812 C 21.714844 17.140625 21.570312 17.144531 21.449219 17.148438 C 21.226562 17.152344 21.050781 17.328125 21.046875 17.550781 L 20.839844 30.5 C 20.839844 30.507812 20.839844 30.511719 20.839844 30.519531 C 20.839844 30.527344 20.746094 31.222656 21.078125 31.605469 C 21.199219 31.746094 21.359375 31.824219 21.5625 31.855469 L 21.5625 29.089844 C 21.5625 29 21.632812 28.925781 21.726562 28.925781 L 21.878906 28.925781 C 21.910156 28.460938 22 27.082031 22.105469 25.511719 Z M 17.5625 32.363281 C 17.652344 32.878906 17.691406 33.453125 17.679688 33.753906 C 17.679688 33.808594 17.675781 33.859375 17.675781 33.90625 C 17.65625 34.34375 17.65625 34.472656 17.980469 34.625 L 21.921875 36.363281 L 21.921875 33.136719 C 21.921875 33.128906 21.921875 33.121094 21.925781 33.117188 C 21.941406 32.980469 21.964844 32.847656 22 32.726562 C 21.105469 32.535156 18.214844 31.921875 17.414062 31.734375 C 17.472656 31.910156 17.519531 32.121094 17.5625 32.363281 Z M 16.492188 33.894531 C 16.5 34.03125 16.515625 34.167969 16.542969 34.300781 C 16.546875 34.335938 16.554688 34.367188 16.5625 34.402344 C 16.566406 34.433594 16.574219 34.46875 16.578125 34.5 C 16.597656 34.566406 16.613281 34.628906 16.632812 34.691406 C 16.667969 34.816406 16.714844 34.933594 16.769531 35.042969 C 16.800781 35.097656 16.828125 35.148438 16.863281 35.195312 C 16.898438 35.242188 16.9375 35.289062 16.984375 35.324219 C 17.027344 35.359375 17.082031 35.386719 17.136719 35.390625 C 17.144531 35.390625 17.152344 35.390625 17.160156 35.390625 L 17.183594 35.390625 C 17.195312 35.390625 17.203125 35.390625 17.21875 35.386719 C 17.226562 35.382812 17.234375 35.382812 17.238281 35.378906 C 17.246094 35.378906 17.253906 35.378906 17.253906 35.375 C 17.261719 35.375 17.265625 35.371094 17.273438 35.367188 C 17.277344 35.363281 17.285156 35.359375 17.289062 35.359375 C 17.332031 35.335938 17.359375 35.308594 17.386719 35.277344 C 17.410156 35.25 17.429688 35.222656 17.441406 35.191406 C 17.472656 35.140625 17.492188 35.097656 17.503906 35.070312 C 17.507812 35.054688 17.515625 35.039062 17.515625 35.035156 C 17.507812 35.039062 17.503906 35.050781 17.492188 35.0625 C 17.476562 35.089844 17.453125 35.125 17.414062 35.171875 C 17.394531 35.191406 17.371094 35.21875 17.347656 35.238281 C 17.320312 35.257812 17.289062 35.28125 17.257812 35.292969 C 17.25 35.296875 17.238281 35.300781 17.234375 35.300781 C 17.226562 35.304688 17.222656 35.304688 17.21875 35.304688 C 17.214844 35.304688 17.210938 35.304688 17.207031 35.308594 C 17.203125 35.308594 17.1875 35.308594 17.179688 35.308594 L 17.175781 35.308594 L 17.171875 35.304688 L 17.167969 35.304688 C 17.164062 35.304688 17.15625 35.304688 17.152344 35.300781 C 17.117188 35.292969 17.082031 35.273438 17.050781 35.238281 C 17.019531 35.207031 16.992188 35.171875 16.964844 35.125 C 16.941406 35.085938 16.917969 35.035156 16.898438 34.984375 C 16.855469 34.882812 16.820312 34.769531 16.792969 34.648438 C 16.777344 34.585938 16.765625 34.527344 16.75 34.464844 C 16.746094 34.433594 16.742188 34.398438 16.734375 34.367188 C 16.730469 34.335938 16.726562 34.304688 16.71875 34.273438 C 16.699219 34.144531 16.6875 34.011719 16.679688 33.878906 C 16.664062 33.746094 16.660156 33.613281 16.65625 33.484375 C 16.65625 33.46875 16.65625 33.453125 16.65625 33.4375 C 16.65625 33.417969 16.65625 33.402344 16.65625 33.386719 C 16.65625 33.355469 16.652344 33.320312 16.652344 33.289062 C 16.65625 33.222656 16.65625 33.160156 16.65625 33.101562 C 16.65625 33.039062 16.660156 32.976562 16.660156 32.917969 C 16.664062 32.855469 16.671875 32.796875 16.675781 32.738281 C 16.679688 32.679688 16.683594 32.628906 16.691406 32.574219 C 16.695312 32.519531 16.703125 32.464844 16.710938 32.417969 C 16.722656 32.316406 16.738281 32.226562 16.753906 32.148438 C 16.757812 32.128906 16.765625 32.109375 16.765625 32.089844 C 16.769531 32.070312 16.777344 32.054688 16.78125 32.035156 C 16.78125 32.019531 16.785156 32.003906 16.792969 31.988281 C 16.796875 31.972656 16.796875 31.957031 16.804688 31.941406 C 16.8125 31.914062 16.820312 31.890625 16.828125 31.867188 C 16.832031 31.855469 16.832031 31.84375 16.835938 31.835938 C 16.839844 31.828125 16.84375 31.820312 16.847656 31.8125 C 16.855469 31.78125 16.863281 31.765625 16.863281 31.765625 C 16.863281 31.765625 16.851562 31.78125 16.835938 31.804688 C 16.832031 31.8125 16.828125 31.820312 16.820312 31.828125 C 16.816406 31.839844 16.8125 31.847656 16.804688 31.855469 C 16.796875 31.867188 16.796875 31.878906 16.785156 31.890625 C 16.78125 31.902344 16.777344 31.914062 16.769531 31.929688 C 16.765625 31.941406 16.753906 31.957031 16.746094 31.972656 C 16.742188 31.988281 16.734375 32.003906 16.730469 32.019531 C 16.714844 32.054688 16.699219 32.089844 16.683594 32.128906 C 16.679688 32.148438 16.671875 32.167969 16.664062 32.191406 C 16.65625 32.207031 16.648438 32.230469 16.644531 32.253906 C 16.632812 32.296875 16.613281 32.347656 16.601562 32.398438 C 16.589844 32.445312 16.578125 32.496094 16.566406 32.550781 C 16.554688 32.609375 16.546875 32.664062 16.535156 32.722656 C 16.527344 32.78125 16.519531 32.839844 16.511719 32.898438 C 16.503906 32.964844 16.496094 33.027344 16.492188 33.089844 C 16.480469 33.21875 16.476562 33.351562 16.476562 33.488281 C 16.476562 33.621094 16.476562 33.757812 16.492188 33.894531 Z M 12.835938 32.007812 L 15.097656 32.722656 C 15.164062 32.746094 15.210938 32.804688 15.214844 32.875 C 15.214844 32.882812 15.21875 33.089844 15.214844 33.410156 C 15.277344 33.441406 15.351562 33.472656 15.429688 33.503906 C 15.433594 33.507812 15.4375 33.507812 15.441406 33.511719 C 15.445312 33.511719 15.449219 33.515625 15.449219 33.519531 C 15.496094 33.539062 15.542969 33.558594 15.597656 33.582031 L 15.597656 33.503906 C 15.574219 33.511719 15.550781 33.523438 15.519531 33.523438 C 15.5 33.523438 15.476562 33.515625 15.457031 33.503906 C 15.449219 33.503906 15.449219 33.503906 15.445312 33.503906 C 15.390625 33.476562 15.355469 33.421875 15.355469 33.355469 L 15.355469 31.148438 L 15.222656 31.183594 L 15.222656 31.734375 C 15.222656 31.789062 15.199219 31.835938 15.160156 31.867188 C 15.121094 31.894531 15.066406 31.90625 15.019531 31.894531 L 12.820312 31.367188 C 12.796875 31.59375 12.792969 31.863281 12.835938 32.007812 Z M 11.742188 33.152344 C 11.789062 33.179688 11.84375 33.203125 11.898438 33.203125 C 11.90625 33.203125 11.914062 33.203125 11.917969 33.207031 L 11.933594 33.203125 L 11.945312 33.203125 C 11.953125 33.203125 11.964844 33.203125 11.980469 33.203125 C 11.984375 33.203125 11.992188 33.199219 12 33.199219 C 12.003906 33.195312 12.011719 33.195312 12.015625 33.191406 C 12.023438 33.191406 12.027344 33.1875 12.03125 33.1875 C 12.039062 33.1875 12.046875 33.183594 12.050781 33.183594 C 12.0625 33.175781 12.070312 33.171875 12.085938 33.164062 L 12.085938 33.105469 C 12.0625 33.117188 12.042969 33.125 12.015625 33.132812 C 12.011719 33.136719 12 33.136719 11.992188 33.136719 C 11.988281 33.136719 11.984375 33.140625 11.980469 33.140625 C 11.976562 33.140625 11.972656 33.140625 11.964844 33.140625 C 11.964844 33.140625 11.945312 33.140625 11.9375 33.140625 L 11.929688 33.140625 C 11.921875 33.140625 11.917969 33.136719 11.914062 33.136719 C 11.878906 33.132812 11.847656 33.117188 11.8125 33.09375 C 11.800781 33.085938 11.792969 33.078125 11.78125 33.066406 L 11.628906 33.066406 C 11.664062 33.101562 11.699219 33.132812 11.742188 33.152344 Z M 10.757812 32.320312 C 10.789062 32.394531 10.820312 32.460938 10.867188 32.527344 C 10.886719 32.550781 10.902344 32.574219 10.925781 32.59375 L 10.925781 32.40625 C 10.914062 32.378906 10.902344 32.347656 10.890625 32.316406 C 10.882812 32.3125 10.867188 32.308594 10.859375 32.308594 L 10.753906 32.308594 C 10.753906 32.3125 10.753906 32.3125 10.757812 32.320312 Z M 10.757812 32.320312 "/></g><path style=" stroke:none;fill-rule:nonzero;fill:#fffbec;fill-opacity:1;" d="M 30.710938 28.164062 C 30.722656 28.164062 30.738281 28.160156 30.757812 28.15625 C 30.828125 28.148438 30.929688 28.132812 31.058594 28.121094 C 31.191406 28.101562 31.351562 28.085938 31.535156 28.070312 C 31.625 28.0625 31.722656 28.054688 31.824219 28.046875 C 31.929688 28.035156 32.035156 28.03125 32.148438 28.019531 C 32.261719 28.011719 32.378906 28 32.5 27.996094 C 32.621094 27.984375 32.746094 27.976562 32.875 27.96875 C 33.132812 27.949219 33.40625 27.9375 33.6875 27.921875 C 33.832031 27.914062 33.972656 27.90625 34.121094 27.902344 C 34.261719 27.894531 34.410156 27.886719 34.558594 27.882812 C 34.855469 27.871094 35.15625 27.863281 35.457031 27.859375 L 35.570312 27.859375 C 35.613281 27.859375 35.648438 27.863281 35.6875 27.863281 C 35.722656 27.863281 35.761719 27.867188 35.800781 27.867188 C 35.839844 27.867188 35.871094 27.867188 35.910156 27.867188 C 36.058594 27.867188 36.210938 27.871094 36.359375 27.875 C 36.507812 27.875 36.652344 27.878906 36.800781 27.882812 C 36.945312 27.882812 37.089844 27.886719 37.226562 27.890625 C 37.371094 27.894531 37.507812 27.898438 37.644531 27.902344 C 37.777344 27.90625 37.914062 27.914062 38.042969 27.917969 C 38.171875 27.925781 38.300781 27.933594 38.417969 27.9375 C 38.539062 27.945312 38.65625 27.949219 38.769531 27.957031 C 38.828125 27.960938 38.882812 27.964844 38.9375 27.96875 C 38.988281 27.972656 39.042969 27.976562 39.09375 27.984375 C 39.195312 27.988281 39.292969 28 39.386719 28.003906 C 39.570312 28.019531 39.730469 28.035156 39.859375 28.050781 C 39.925781 28.054688 39.980469 28.066406 40.035156 28.070312 C 40.085938 28.078125 40.128906 28.082031 40.164062 28.085938 C 40.234375 28.09375 40.269531 28.101562 40.269531 28.101562 C 40.269531 28.101562 40.234375 28.097656 40.164062 28.097656 C 40.09375 28.09375 39.988281 28.089844 39.855469 28.085938 C 39.726562 28.085938 39.566406 28.082031 39.382812 28.078125 C 39.289062 28.074219 39.191406 28.070312 39.089844 28.070312 C 38.984375 28.070312 38.878906 28.070312 38.769531 28.066406 C 38.542969 28.0625 38.296875 28.0625 38.039062 28.058594 C 37.78125 28.054688 37.507812 28.054688 37.226562 28.054688 C 36.945312 28.054688 36.652344 28.054688 36.355469 28.054688 C 36.28125 28.054688 36.210938 28.054688 36.132812 28.054688 C 36.09375 28.054688 36.058594 28.054688 36.023438 28.054688 C 35.984375 28.050781 35.945312 28.050781 35.90625 28.050781 C 35.871094 28.050781 35.832031 28.050781 35.796875 28.050781 C 35.757812 28.050781 35.722656 28.050781 35.683594 28.050781 C 35.644531 28.050781 35.605469 28.046875 35.570312 28.046875 L 35.460938 28.046875 C 35.160156 28.050781 34.859375 28.058594 34.5625 28.066406 C 34.269531 28.070312 33.976562 28.082031 33.695312 28.085938 C 33.414062 28.097656 33.140625 28.101562 32.882812 28.109375 C 32.621094 28.117188 32.378906 28.121094 32.152344 28.128906 C 31.929688 28.132812 31.722656 28.136719 31.539062 28.144531 C 31.355469 28.148438 31.195312 28.152344 31.0625 28.15625 C 30.933594 28.160156 30.828125 28.164062 30.757812 28.167969 C 30.722656 28.167969 30.695312 28.167969 30.679688 28.171875 C 30.664062 28.175781 30.65625 28.175781 30.652344 28.175781 C 30.65625 28.175781 30.660156 28.171875 30.675781 28.167969 C 30.6875 28.167969 30.699219 28.167969 30.710938 28.164062 Z M 30.710938 28.164062 "/><path style=" stroke:none;fill-rule:nonzero;fill:#fffbec;fill-opacity:1;" d="M 28.484375 21.523438 L 28.476562 21.285156 L 28.472656 21.191406 L 28.46875 21.046875 L 28.511719 21.519531 L 28.554688 21.996094 L 28.636719 22.945312 L 28.722656 23.890625 C 28.738281 24.046875 28.753906 24.207031 28.769531 24.363281 L 28.78125 24.480469 C 28.78125 24.5 28.785156 24.519531 28.789062 24.535156 L 28.789062 24.5625 C 28.792969 24.566406 28.792969 24.574219 28.796875 24.582031 C 28.804688 24.605469 28.820312 24.632812 28.84375 24.660156 C 28.863281 24.683594 28.886719 24.710938 28.917969 24.734375 C 29.023438 24.824219 29.160156 24.886719 29.296875 24.914062 C 29.316406 24.917969 29.332031 24.921875 29.347656 24.921875 C 29.359375 24.921875 29.363281 24.921875 29.375 24.921875 C 29.375 24.921875 29.375 24.921875 29.378906 24.921875 L 29.757812 24.921875 L 30.707031 24.925781 L 31.660156 24.933594 L 32.609375 24.941406 L 33.5625 24.953125 L 35.464844 24.976562 L 36.414062 24.988281 L 38.316406 25.019531 L 40.023438 25.054688 C 40.019531 25.039062 40.015625 25.023438 40.015625 25.007812 C 40.003906 24.929688 39.992188 24.851562 39.980469 24.769531 C 39.96875 24.6875 39.953125 24.609375 39.941406 24.53125 L 39.898438 24.289062 L 39.859375 24.046875 L 39.8125 23.808594 L 39.765625 23.566406 C 39.75 23.488281 39.734375 23.40625 39.714844 23.328125 C 39.699219 23.246094 39.683594 23.167969 39.667969 23.085938 C 39.648438 23.007812 39.632812 22.929688 39.613281 22.847656 C 39.597656 22.769531 39.578125 22.691406 39.5625 22.613281 L 39.53125 22.492188 C 39.523438 22.453125 39.511719 22.414062 39.503906 22.375 C 39.484375 22.292969 39.464844 22.21875 39.441406 22.140625 C 39.421875 22.058594 39.402344 21.984375 39.375 21.90625 C 39.355469 21.828125 39.332031 21.753906 39.308594 21.679688 L 39.289062 21.621094 L 39.265625 21.566406 C 39.265625 21.5625 39.261719 21.554688 39.261719 21.550781 L 38.667969 21.515625 L 37.96875 21.480469 L 36.574219 21.402344 L 35.175781 21.320312 L 32.386719 21.140625 L 31.6875 21.09375 L 30.992188 21.046875 L 30.292969 20.996094 L 29.945312 20.96875 C 29.832031 20.960938 29.710938 20.953125 29.59375 20.945312 L 29.25 20.914062 C 29.191406 20.910156 29.132812 20.90625 29.070312 20.898438 C 29.015625 20.894531 28.957031 20.886719 28.898438 20.867188 C 28.871094 20.859375 28.839844 20.847656 28.8125 20.828125 C 28.789062 20.8125 28.765625 20.792969 28.746094 20.769531 C 28.726562 20.742188 28.710938 20.71875 28.695312 20.691406 C 28.679688 20.671875 28.667969 20.644531 28.648438 20.621094 C 28.621094 20.570312 28.59375 20.519531 28.5625 20.46875 C 28.535156 20.421875 28.5 20.371094 28.46875 20.324219 C 28.503906 20.367188 28.535156 20.414062 28.570312 20.460938 C 28.601562 20.511719 28.636719 20.558594 28.667969 20.609375 C 28.683594 20.632812 28.703125 20.65625 28.71875 20.679688 C 28.734375 20.707031 28.75 20.726562 28.769531 20.75 C 28.789062 20.769531 28.808594 20.789062 28.832031 20.800781 C 28.851562 20.816406 28.882812 20.824219 28.90625 20.828125 C 28.960938 20.847656 29.019531 20.847656 29.078125 20.851562 C 29.136719 20.855469 29.191406 20.859375 29.253906 20.859375 L 29.601562 20.871094 L 30.996094 20.914062 L 32.394531 20.960938 L 33.792969 21.011719 L 35.1875 21.0625 L 37.984375 21.175781 L 39.378906 21.234375 L 39.480469 21.238281 L 39.519531 21.332031 C 39.535156 21.371094 39.554688 21.414062 39.570312 21.453125 L 39.59375 21.511719 L 39.613281 21.570312 C 39.640625 21.652344 39.664062 21.734375 39.691406 21.8125 C 39.710938 21.871094 39.726562 21.933594 39.746094 21.992188 C 39.75 22.011719 39.753906 22.035156 39.761719 22.054688 C 39.78125 22.132812 39.804688 22.210938 39.824219 22.292969 C 39.832031 22.332031 39.84375 22.375 39.855469 22.414062 L 39.882812 22.535156 C 39.902344 22.617188 39.921875 22.695312 39.941406 22.777344 C 39.960938 22.855469 39.976562 22.933594 39.996094 23.019531 C 40.011719 23.097656 40.03125 23.179688 40.046875 23.257812 C 40.117188 23.582031 40.175781 23.90625 40.234375 24.230469 L 40.277344 24.472656 C 40.289062 24.554688 40.304688 24.632812 40.316406 24.714844 C 40.332031 24.800781 40.34375 24.878906 40.351562 24.964844 C 40.367188 25.046875 40.375 25.125 40.386719 25.214844 L 40.402344 25.40625 L 40.210938 25.402344 L 38.3125 25.359375 L 36.410156 25.316406 L 35.457031 25.289062 L 34.507812 25.265625 L 33.554688 25.238281 L 32.605469 25.210938 L 30.703125 25.152344 L 29.753906 25.121094 L 29.515625 25.113281 L 29.394531 25.109375 L 29.382812 25.105469 L 29.367188 25.105469 C 29.355469 25.105469 29.339844 25.105469 29.328125 25.105469 C 29.308594 25.101562 29.285156 25.097656 29.265625 25.09375 C 29.175781 25.074219 29.09375 25.046875 29.019531 25.003906 C 28.941406 24.964844 28.871094 24.917969 28.800781 24.855469 C 28.769531 24.828125 28.738281 24.796875 28.714844 24.757812 C 28.683594 24.722656 28.660156 24.679688 28.644531 24.632812 C 28.640625 24.617188 28.636719 24.605469 28.632812 24.59375 L 28.632812 24.582031 C 28.632812 24.582031 28.632812 24.578125 28.632812 24.578125 L 28.632812 24.558594 C 28.628906 24.535156 28.625 24.519531 28.625 24.5 L 28.617188 24.375 C 28.605469 24.214844 28.597656 24.058594 28.589844 23.898438 C 28.574219 23.585938 28.558594 23.269531 28.542969 22.949219 C 28.53125 22.632812 28.515625 22.316406 28.503906 22 Z M 28.484375 21.523438 "/><g style="fill:#fffbec;fill-opacity:1;"><g transform="translate(10.21988, 64.238482)"><path style="stroke:none" d="M 7.859375 0 L 6.421875 0 L 6.421875 -4.953125 L 6.4375 -6.125 L 6.40625 -6.125 L 5.03125 0 L 3.53125 0 L 2.203125 -6.125 L 2.15625 -6.125 L 2.171875 -4.953125 L 2.171875 0 L 0.75 0 L 0.75 -7.328125 L 2.984375 -7.328125 L 4.296875 -1.546875 L 4.328125 -1.546875 L 5.640625 -7.328125 L 7.859375 -7.328125 Z M 7.859375 0 "/></g></g><g style="fill:#fffbec;fill-opacity:1;"><g transform="translate(22.904736, 64.238482)"><path style="stroke:none" d="M 1.890625 -2.25 C 1.890625 -1.894531 2.019531 -1.609375 2.28125 -1.390625 C 2.550781 -1.179688 2.9375 -1.078125 3.4375 -1.078125 C 3.9375 -1.078125 4.316406 -1.15625 4.578125 -1.3125 C 4.835938 -1.46875 4.96875 -1.703125 4.96875 -2.015625 C 4.96875 -2.203125 4.898438 -2.363281 4.765625 -2.5 C 4.628906 -2.632812 4.3125 -2.765625 3.8125 -2.890625 L 2.5625 -3.171875 C 1.78125 -3.359375 1.242188 -3.613281 0.953125 -3.9375 C 0.671875 -4.257812 0.53125 -4.703125 0.53125 -5.265625 C 0.53125 -5.921875 0.765625 -6.457031 1.234375 -6.875 C 1.703125 -7.300781 2.410156 -7.515625 3.359375 -7.515625 C 4.285156 -7.515625 4.988281 -7.28125 5.46875 -6.8125 C 5.957031 -6.34375 6.203125 -5.789062 6.203125 -5.15625 L 4.734375 -5.15625 C 4.703125 -5.507812 4.5625 -5.78125 4.3125 -5.96875 C 4.070312 -6.15625 3.710938 -6.25 3.234375 -6.25 C 2.859375 -6.25 2.550781 -6.171875 2.3125 -6.015625 C 2.082031 -5.859375 1.96875 -5.644531 1.96875 -5.375 C 1.96875 -5.1875 2.015625 -5.03125 2.109375 -4.90625 C 2.210938 -4.789062 2.378906 -4.703125 2.609375 -4.640625 L 4.578125 -4.15625 C 5.285156 -3.988281 5.769531 -3.738281 6.03125 -3.40625 C 6.300781 -3.082031 6.4375 -2.679688 6.4375 -2.203125 C 6.4375 -1.398438 6.160156 -0.800781 5.609375 -0.40625 C 5.054688 -0.0078125 4.375 0.1875 3.5625 0.1875 C 2.5 0.1875 1.707031 -0.0351562 1.1875 -0.484375 C 0.675781 -0.929688 0.421875 -1.519531 0.421875 -2.25 Z M 1.890625 -2.25 "/></g></g><g style="fill:#fffbec;fill-opacity:1;"><g transform="translate(33.830297, 64.238482)"><path style="stroke:none" d="M 5.453125 -4.921875 C 5.265625 -5.765625 4.722656 -6.1875 3.828125 -6.1875 C 3.273438 -6.1875 2.832031 -5.960938 2.5 -5.515625 C 2.164062 -5.066406 2 -4.4375 2 -3.625 C 2 -2.875 2.160156 -2.269531 2.484375 -1.8125 C 2.804688 -1.351562 3.253906 -1.125 3.828125 -1.125 C 4.703125 -1.125 5.242188 -1.585938 5.453125 -2.515625 L 6.984375 -2.515625 C 6.867188 -1.765625 6.535156 -1.125 5.984375 -0.59375 C 5.441406 -0.0703125 4.710938 0.1875 3.796875 0.1875 C 2.773438 0.1875 1.960938 -0.144531 1.359375 -0.8125 C 0.753906 -1.488281 0.453125 -2.4375 0.453125 -3.65625 C 0.453125 -4.8125 0.75 -5.742188 1.34375 -6.453125 C 1.945312 -7.160156 2.769531 -7.515625 3.8125 -7.515625 C 4.726562 -7.515625 5.46875 -7.265625 6.03125 -6.765625 C 6.59375 -6.273438 6.910156 -5.660156 6.984375 -4.921875 Z M 5.453125 -4.921875 "/></g></g><g clip-rule="nonzero" clip-path="url(#1c085be918)"><path style="fill:none;stroke-width:2;stroke-linecap:butt;stroke-linejoin:miter;stroke:#ab080d;stroke-opacity:1;stroke-miterlimit:4;" d="M -0.000000000000028422 0.999629 L 68.935591 0.999629 " transform="matrix(0.746394,0,0,0.746394,0.000000000000021214,53.667946)"/></g><g clip-rule="nonzero" clip-path="url(#a45cc193a5)"><path style="fill:none;stroke-width:2;stroke-linecap:butt;stroke-linejoin:miter;stroke:#ab080d;stroke-opacity:1;stroke-miterlimit:4;" d="M 0 0.998764 L 68.935591 0.998764 " transform="matrix(0.746394,0,0,0.746394,0,67.574841)"/></g></g></svg>