<svg xmlns="http://www.w3.org/2000/svg" xmlns:xlink="http://www.w3.org/1999/xlink" width="76" zoomAndPan="magnify" viewBox="0 0 56.879997 77.249999" height="103" preserveAspectRatio="xMidYMid meet" version="1.0"><defs><g/><clipPath id="79452f22bb"><path d="M 0.355469 0 L 55.746094 0 L 55.746094 55.421875 L 0.355469 55.421875 Z M 0.355469 0 " clip-rule="nonzero"/></clipPath><clipPath id="85144e2747"><path d="M 16.496094 16.140625 L 39.636719 16.140625 L 39.636719 39.28125 L 16.496094 39.28125 Z M 16.496094 16.140625 " clip-rule="nonzero"/></clipPath><clipPath id="032bc4eea6"><path d="M 28.066406 16.140625 C 21.675781 16.140625 16.496094 21.320312 16.496094 27.710938 C 16.496094 34.101562 21.675781 39.28125 28.066406 39.28125 C 34.457031 39.28125 39.636719 34.101562 39.636719 27.710938 C 39.636719 21.320312 34.457031 16.140625 28.066406 16.140625 Z M 28.066406 16.140625 " clip-rule="nonzero"/></clipPath><clipPath id="62b6033a72"><path d="M 10.710938 15.625 L 45.425781 15.625 L 45.425781 42.851562 L 10.710938 42.851562 Z M 10.710938 15.625 " clip-rule="nonzero"/></clipPath><clipPath id="9f97361f95"><rect x="0" width="37" y="0" height="15"/></clipPath></defs><g clip-path="url(#79452f22bb)"><path fill="#ab080d" d="M 53.757812 32.046875 C 54.847656 32.046875 55.734375 31.15625 55.734375 30.066406 L 55.734375 25.289062 C 55.734375 24.199219 54.847656 23.308594 53.757812 23.308594 L 51.707031 23.308594 C 50.621094 23.308594 49.46875 22.460938 49.148438 21.421875 L 47.394531 17.167969 C 46.882812 16.210938 47.089844 14.796875 47.859375 14.027344 L 49.3125 12.574219 C 50.082031 11.808594 50.082031 10.546875 49.3125 9.777344 L 45.933594 6.398438 C 45.164062 5.628906 43.90625 5.628906 43.136719 6.398438 L 41.683594 7.851562 C 40.914062 8.621094 39.5 8.828125 38.542969 8.316406 L 34.289062 6.5625 C 33.25 6.242188 32.402344 5.09375 32.402344 4.003906 L 32.402344 1.953125 C 32.402344 0.863281 31.511719 -0.0234375 30.421875 -0.0234375 L 25.644531 -0.0234375 C 24.554688 -0.0234375 23.667969 0.863281 23.667969 1.953125 L 23.667969 4.003906 C 23.667969 5.09375 22.816406 6.242188 21.777344 6.5625 L 17.523438 8.316406 C 16.566406 8.828125 15.152344 8.621094 14.386719 7.851562 L 12.933594 6.398438 C 12.164062 5.628906 10.90625 5.628906 10.136719 6.398438 L 6.757812 9.777344 C 5.988281 10.546875 5.988281 11.804688 6.757812 12.574219 L 8.210938 14.027344 C 8.980469 14.796875 9.1875 16.210938 8.671875 17.167969 L 6.921875 21.421875 C 6.601562 22.460938 5.449219 23.308594 4.363281 23.308594 L 2.308594 23.308594 C 1.222656 23.308594 0.332031 24.199219 0.332031 25.285156 L 0.332031 30.066406 C 0.332031 31.15625 1.222656 32.046875 2.308594 32.046875 L 4.363281 32.046875 C 5.449219 32.046875 6.601562 32.894531 6.921875 33.933594 L 8.671875 38.1875 C 9.1875 39.144531 8.980469 40.558594 8.210938 41.328125 L 6.757812 42.78125 C 5.988281 43.550781 5.988281 44.808594 6.757812 45.574219 L 10.136719 48.957031 C 10.90625 49.726562 12.164062 49.722656 12.933594 48.957031 L 14.386719 47.503906 C 15.15625 46.734375 16.566406 46.527344 17.523438 47.039062 L 21.777344 48.792969 C 22.816406 49.113281 23.667969 50.261719 23.667969 51.351562 L 23.667969 53.402344 C 23.667969 54.492188 24.558594 55.378906 25.644531 55.378906 L 30.425781 55.378906 C 31.511719 55.378906 32.402344 54.492188 32.402344 53.402344 L 32.402344 51.351562 C 32.402344 50.261719 33.25 49.113281 34.292969 48.792969 L 38.542969 47.039062 C 39.5 46.527344 40.914062 46.734375 41.683594 47.503906 L 43.136719 48.957031 C 43.90625 49.726562 45.164062 49.722656 45.933594 48.957031 L 49.3125 45.574219 C 50.082031 44.808594 50.082031 43.550781 49.3125 42.78125 L 47.859375 41.328125 C 47.089844 40.558594 46.882812 39.144531 47.398438 38.1875 L 49.148438 33.933594 C 49.46875 32.894531 50.621094 32.046875 51.707031 32.046875 Z M 28.035156 39.074219 C 21.742188 39.074219 16.636719 33.972656 16.636719 27.679688 C 16.636719 21.382812 21.742188 16.28125 28.035156 16.28125 C 34.328125 16.28125 39.433594 21.382812 39.433594 27.679688 C 39.433594 33.972656 34.328125 39.074219 28.035156 39.074219 Z M 28.035156 39.074219 " fill-opacity="1" fill-rule="nonzero"/></g><path fill="#ffd600" d="M 45.351562 15.5625 C 44.269531 16.648438 42.6875 16.925781 41.347656 16.398438 L 33.890625 23.855469 C 34.417969 25.191406 34.140625 26.777344 33.054688 27.859375 C 31.972656 28.941406 30.390625 29.21875 29.050781 28.691406 L 31.867188 25.878906 C 32.035156 25.707031 32.035156 25.429688 31.867188 25.261719 L 30.382812 23.777344 C 30.210938 23.605469 29.933594 23.605469 29.765625 23.777344 L 26.949219 26.589844 C 26.421875 25.25 26.699219 23.667969 27.78125 22.585938 C 28.863281 21.5 30.449219 21.222656 31.789062 21.75 L 39.246094 14.292969 C 38.714844 12.957031 38.996094 11.371094 40.078125 10.289062 C 41.160156 9.207031 42.742188 8.929688 44.082031 9.457031 L 41.171875 12.367188 C 41.003906 12.535156 41.003906 12.8125 41.171875 12.984375 L 42.65625 14.46875 C 42.828125 14.636719 43.105469 14.636719 43.273438 14.46875 L 46.183594 11.558594 C 46.710938 12.898438 46.433594 14.480469 45.351562 15.5625 Z M 45.351562 15.5625 " fill-opacity="1" fill-rule="nonzero"/><path fill="#ffd600" d="M 30.167969 31.292969 C 28.984375 32.476562 27.257812 32.78125 25.792969 32.203125 L 17.648438 40.347656 C 18.222656 41.8125 17.921875 43.539062 16.738281 44.722656 C 15.554688 45.90625 13.824219 46.210938 12.363281 45.632812 L 15.4375 42.558594 C 15.625 42.371094 15.621094 42.070312 15.4375 41.882812 L 13.816406 40.261719 C 13.628906 40.078125 13.328125 40.078125 13.140625 40.261719 L 10.066406 43.335938 C 9.488281 41.875 9.792969 40.144531 10.976562 38.960938 C 12.160156 37.777344 13.886719 37.476562 15.351562 38.050781 L 23.496094 29.90625 C 22.921875 28.441406 23.222656 26.714844 24.40625 25.53125 C 25.589844 24.347656 27.320312 24.042969 28.78125 24.621094 L 25.605469 27.796875 C 25.417969 27.984375 25.417969 28.289062 25.605469 28.472656 L 27.226562 30.09375 C 27.410156 30.28125 27.714844 30.28125 27.898438 30.09375 L 31.078125 26.917969 C 31.65625 28.378906 31.351562 30.109375 30.167969 31.292969 Z M 30.167969 31.292969 " fill-opacity="1" fill-rule="nonzero"/><g clip-path="url(#85144e2747)"><g clip-path="url(#032bc4eea6)"><path fill="#ab080d" d="M 16.496094 16.140625 L 39.636719 16.140625 L 39.636719 39.28125 L 16.496094 39.28125 Z M 16.496094 16.140625 " fill-opacity="1" fill-rule="nonzero"/></g></g><path fill="#fffbec" d="M 19.816406 34.726562 L 20.046875 34.777344 L 20.277344 34.832031 L 20.511719 34.886719 L 20.742188 34.945312 C 20.894531 34.984375 21.050781 35.023438 21.203125 35.058594 L 21.664062 35.175781 L 22.125 35.296875 L 22.582031 35.417969 L 22.808594 35.480469 L 23.039062 35.542969 L 23.144531 35.570312 L 23.144531 35.683594 C 23.148438 35.792969 23.152344 35.902344 23.152344 36.011719 L 23.15625 36.339844 C 23.160156 36.449219 23.160156 36.558594 23.160156 36.667969 L 23.164062 36.996094 C 23.164062 37.105469 23.164062 37.214844 23.164062 37.324219 L 23.167969 37.652344 L 23.167969 37.980469 L 23.164062 38.308594 L 23.164062 38.546875 L 22.941406 38.460938 L 22.742188 38.386719 L 22.542969 38.308594 L 21.753906 37.996094 L 21.558594 37.917969 L 21.359375 37.839844 L 20.96875 37.679688 L 20.574219 37.519531 C 20.441406 37.464844 20.3125 37.410156 20.183594 37.355469 C 20.050781 37.300781 19.921875 37.246094 19.792969 37.191406 L 19.730469 37.164062 L 19.722656 37.105469 L 19.660156 36.574219 L 19.632812 36.308594 C 19.625 36.21875 19.613281 36.128906 19.605469 36.039062 L 19.578125 35.773438 L 19.550781 35.503906 C 19.542969 35.417969 19.535156 35.328125 19.527344 35.238281 L 19.515625 35.105469 C 19.515625 35.058594 19.511719 35.015625 19.507812 34.972656 C 19.515625 35.011719 19.527344 35.054688 19.535156 35.101562 L 19.566406 35.230469 C 19.582031 35.320312 19.601562 35.40625 19.621094 35.496094 L 19.675781 35.753906 L 19.730469 36.019531 C 19.746094 36.109375 19.765625 36.195312 19.78125 36.285156 L 19.832031 36.546875 L 19.882812 36.8125 L 19.921875 37.011719 C 20.035156 37.050781 20.152344 37.089844 20.269531 37.132812 C 20.402344 37.179688 20.535156 37.222656 20.664062 37.273438 L 21.066406 37.417969 L 21.464844 37.558594 L 21.667969 37.632812 L 22.664062 38.003906 L 22.835938 38.066406 L 22.835938 37.324219 C 22.835938 37.214844 22.835938 37.105469 22.835938 36.996094 L 22.835938 36.667969 C 22.835938 36.558594 22.839844 36.449219 22.839844 36.339844 L 22.84375 36.011719 C 22.847656 35.9375 22.847656 35.867188 22.847656 35.792969 L 22.730469 35.753906 L 22.050781 35.542969 L 21.597656 35.394531 L 21.148438 35.246094 C 21 35.195312 20.847656 35.148438 20.695312 35.097656 L 20.46875 35.023438 L 20.246094 34.941406 L 20.019531 34.863281 L 19.796875 34.785156 C 19.722656 34.761719 19.652344 34.734375 19.574219 34.707031 C 19.5 34.679688 19.425781 34.652344 19.351562 34.625 C 19.429688 34.640625 19.507812 34.660156 19.582031 34.675781 C 19.660156 34.691406 19.738281 34.710938 19.816406 34.726562 Z M 19.816406 34.726562 " fill-opacity="1" fill-rule="nonzero"/><path fill="#fffbec" d="M 26.585938 23.117188 C 26.585938 23.117188 26.601562 26.890625 26.300781 26.960938 C 25.996094 27.035156 24.90625 27.15625 24.90625 27.15625 C 24.90625 27.15625 25.050781 24.976562 25.15625 24.242188 C 25.265625 23.511719 25.421875 23.332031 26.585938 23.117188 Z M 26.585938 23.117188 " fill-opacity="1" fill-rule="nonzero"/><path fill="#fffbec" d="M 25.332031 38.164062 C 25.527344 38.164062 25.683594 38.617188 25.683594 39.175781 C 25.683594 39.738281 25.527344 40.191406 25.332031 40.191406 C 25.132812 40.191406 24.972656 39.738281 24.972656 39.175781 C 24.972656 38.617188 25.132812 38.164062 25.332031 38.164062 Z M 25.332031 38.164062 " fill-opacity="1" fill-rule="nonzero"/><path fill="#fffbec" d="M 27.820312 22.828125 L 29.539062 22.4375 C 29.773438 22.382812 29.996094 22.5625 29.996094 22.804688 L 29.996094 27.074219 C 29.996094 27.289062 29.8125 27.460938 29.601562 27.449219 L 27.882812 27.351562 C 27.683594 27.335938 27.527344 27.171875 27.527344 26.976562 L 27.527344 23.191406 C 27.527344 23.019531 27.648438 22.867188 27.820312 22.828125 Z M 27.820312 22.828125 " fill-opacity="1" fill-rule="nonzero"/><path fill="#fffbec" d="M 36.433594 39.992188 L 41.554688 39.472656 C 41.648438 39.464844 41.726562 39.519531 41.761719 39.59375 C 41.777344 39.640625 41.78125 39.691406 41.761719 39.746094 L 41.59375 40.183594 C 41.515625 40.390625 41.324219 40.539062 41.101562 40.570312 L 37.101562 41.070312 C 36.875 41.101562 36.648438 41 36.519531 40.8125 L 36.242188 40.402344 C 36.207031 40.351562 36.191406 40.292969 36.195312 40.234375 C 36.195312 40.226562 36.195312 40.21875 36.199219 40.207031 C 36.21875 40.097656 36.308594 40 36.433594 39.992188 Z M 36.433594 39.992188 " fill-opacity="1" fill-rule="nonzero"/><path fill="#fffbec" d="M 35.453125 38.554688 C 35.457031 38.511719 35.457031 38.476562 35.460938 38.433594 C 35.460938 38.425781 35.460938 38.414062 35.460938 38.402344 L 35.460938 38.378906 L 35.464844 38.371094 C 35.464844 38.359375 35.464844 38.351562 35.46875 38.339844 C 35.46875 38.324219 35.472656 38.308594 35.476562 38.296875 C 35.5 38.199219 35.5625 38.109375 35.648438 38.054688 C 35.691406 38.023438 35.742188 38.003906 35.792969 37.992188 C 35.804688 37.992188 35.816406 37.988281 35.832031 37.988281 C 35.84375 37.984375 35.851562 37.984375 35.867188 37.984375 L 35.929688 37.980469 C 36.550781 37.929688 37.171875 37.878906 37.320312 37.867188 C 37.175781 37.894531 36.558594 37.988281 35.945312 38.085938 L 35.875 38.097656 C 35.867188 38.097656 35.855469 38.097656 35.847656 38.101562 C 35.835938 38.105469 35.828125 38.105469 35.816406 38.109375 C 35.785156 38.121094 35.75 38.136719 35.722656 38.15625 C 35.664062 38.203125 35.628906 38.261719 35.621094 38.328125 C 35.617188 38.339844 35.617188 38.34375 35.617188 38.351562 C 35.617188 38.355469 35.617188 38.371094 35.617188 38.378906 L 35.617188 38.402344 C 35.617188 38.414062 35.617188 38.425781 35.617188 38.433594 C 35.621094 38.476562 35.621094 38.511719 35.621094 38.554688 C 35.621094 38.578125 35.621094 38.601562 35.621094 38.628906 C 35.644531 38.621094 35.667969 38.617188 35.691406 38.613281 L 42.46875 38.003906 C 42.507812 38.003906 42.542969 38.003906 42.578125 38.011719 C 42.582031 37.941406 42.585938 37.863281 42.589844 37.785156 C 42.589844 37.753906 42.59375 37.71875 42.59375 37.683594 C 42.59375 37.671875 42.59375 37.664062 42.59375 37.65625 C 42.59375 37.648438 42.59375 37.644531 42.589844 37.636719 C 42.589844 37.628906 42.589844 37.621094 42.585938 37.613281 C 42.585938 37.609375 42.582031 37.601562 42.578125 37.59375 C 42.5625 37.542969 42.515625 37.492188 42.457031 37.46875 C 42.429688 37.457031 42.398438 37.449219 42.367188 37.449219 L 42.355469 37.449219 L 42.339844 37.453125 L 42.3125 37.453125 C 42.292969 37.453125 42.277344 37.453125 42.257812 37.457031 C 42.179688 37.457031 42.109375 37.460938 42.035156 37.464844 C 41.890625 37.472656 41.761719 37.472656 41.644531 37.480469 C 41.417969 37.492188 41.265625 37.496094 41.265625 37.496094 C 41.265625 37.496094 41.414062 37.476562 41.644531 37.445312 C 41.757812 37.433594 41.890625 37.417969 42.03125 37.394531 C 42.101562 37.386719 42.171875 37.378906 42.25 37.367188 C 42.265625 37.363281 42.285156 37.363281 42.304688 37.363281 L 42.335938 37.359375 L 42.347656 37.355469 L 42.363281 37.355469 C 42.40625 37.351562 42.453125 37.355469 42.496094 37.367188 C 42.582031 37.394531 42.65625 37.460938 42.695312 37.546875 C 42.703125 37.558594 42.703125 37.566406 42.707031 37.578125 C 42.710938 37.585938 42.714844 37.597656 42.71875 37.613281 C 42.722656 37.621094 42.726562 37.636719 42.726562 37.644531 C 42.726562 37.65625 42.730469 37.667969 42.730469 37.671875 C 42.734375 37.714844 42.734375 37.75 42.734375 37.785156 C 42.738281 37.90625 42.742188 38.023438 42.75 38.121094 C 42.792969 38.175781 42.820312 38.25 42.820312 38.328125 L 42.820312 38.648438 C 42.820312 38.8125 42.699219 38.953125 42.535156 38.96875 L 40.308594 39.210938 C 40.234375 39.21875 40.171875 39.25 40.121094 39.296875 L 40.015625 39.394531 C 39.964844 39.441406 39.898438 39.472656 39.828125 39.480469 L 38.667969 39.59375 C 38.585938 39.601562 38.507812 39.578125 38.441406 39.527344 L 38.394531 39.492188 C 38.328125 39.441406 38.246094 39.417969 38.164062 39.429688 L 35.753906 39.6875 C 35.5625 39.707031 35.394531 39.554688 35.394531 39.363281 L 35.394531 38.9375 C 35.394531 38.875 35.414062 38.8125 35.449219 38.761719 C 35.449219 38.695312 35.453125 38.628906 35.453125 38.554688 Z M 35.453125 38.554688 " fill-opacity="1" fill-rule="nonzero"/><g clip-path="url(#62b6033a72)"><path fill="#fffbec" d="M 11.042969 19.828125 L 23.375 15.75 C 23.472656 15.679688 23.585938 15.632812 23.714844 15.644531 C 23.726562 15.644531 24.453125 15.703125 25.472656 15.789062 C 27.558594 15.957031 30.859375 16.222656 31.683594 16.304688 C 32.460938 16.382812 33.992188 16.554688 35.472656 16.839844 C 36.34375 17.011719 37.070312 17.203125 37.636719 17.402344 C 38.300781 17.640625 38.738281 17.894531 38.976562 18.175781 C 39.835938 18.289062 40.472656 18.375 40.652344 18.402344 L 40.730469 18.414062 C 41.425781 18.519531 42.21875 18.640625 42.617188 19.3125 C 42.960938 19.890625 43.429688 21.15625 43.515625 21.390625 C 43.648438 21.550781 43.664062 21.800781 43.558594 22.136719 C 43.511719 22.28125 43.453125 22.414062 43.410156 22.492188 C 43.914062 23.628906 44.929688 28.164062 44.972656 28.359375 C 44.972656 28.363281 44.972656 28.363281 44.972656 28.363281 C 44.972656 28.367188 44.972656 28.371094 44.972656 28.378906 C 44.972656 28.378906 44.976562 28.382812 44.976562 28.386719 C 44.976562 28.390625 44.976562 28.390625 44.976562 28.394531 C 44.976562 28.398438 44.976562 28.398438 44.976562 28.402344 L 44.976562 31.050781 C 45.140625 31.117188 45.308594 31.257812 45.308594 31.460938 L 45.308594 33.019531 C 45.308594 33.609375 44.996094 33.804688 44.671875 33.851562 L 44.671875 34.105469 C 44.855469 34.148438 45.027344 34.242188 45.167969 34.386719 C 45.347656 34.574219 45.449219 34.820312 45.449219 35.058594 L 45.449219 36.851562 C 45.449219 37.574219 45.367188 38.523438 45.300781 39.289062 C 45.265625 39.734375 45.230469 40.117188 45.230469 40.285156 C 45.230469 40.359375 45.183594 40.425781 45.113281 40.453125 C 44.980469 40.503906 44.847656 40.550781 44.71875 40.589844 C 43.339844 41.066406 42.160156 41.207031 41.273438 41.3125 C 40.976562 41.347656 40.71875 41.375 40.488281 41.414062 C 40.042969 41.492188 39.054688 41.59375 38.011719 41.703125 C 36.9375 41.816406 35.46875 41.96875 35.300781 42.035156 C 35.082031 42.128906 34.039062 42.207031 33.429688 42.25 C 32.820312 42.285156 32.097656 42.320312 31.632812 42.320312 C 31.5 42.320312 31.390625 42.316406 31.308594 42.308594 C 30.753906 42.273438 30.378906 42.117188 30.21875 42.042969 C 30.023438 42.113281 29.492188 42.289062 29.058594 42.238281 C 28.660156 42.195312 28.035156 41.9375 27.710938 41.804688 C 27.640625 42.46875 27.082031 42.792969 25.917969 42.792969 L 25.914062 42.792969 C 24.855469 42.789062 24.050781 40.488281 24.050781 39.71875 C 24.046875 39.714844 24.039062 39.714844 24.035156 39.710938 L 19.566406 37.742188 C 19.433594 38.292969 19.234375 38.652344 19.011719 38.652344 C 18.96875 38.652344 18.925781 38.640625 18.890625 38.617188 L 18.359375 38.460938 L 18.359375 38.441406 C 18.089844 38.320312 17.871094 37.699219 17.789062 36.863281 C 17.628906 36.882812 17.359375 36.777344 16.761719 36.507812 C 16.625 36.449219 16.503906 36.394531 16.425781 36.363281 C 16.355469 36.335938 16.308594 36.265625 16.308594 36.191406 C 16.316406 35.949219 16.316406 35.753906 16.3125 35.640625 L 13.941406 34.886719 L 13.941406 35.308594 L 13.949219 35.3125 C 13.945312 35.324219 13.941406 35.332031 13.941406 35.339844 L 13.941406 36.160156 C 13.941406 36.207031 13.890625 36.242188 13.847656 36.230469 L 13.503906 36.128906 C 13.453125 36.160156 13.398438 36.175781 13.34375 36.175781 C 13.300781 36.175781 13.261719 36.167969 13.21875 36.152344 L 12.695312 36.035156 L 12.691406 36.019531 C 12.542969 35.972656 12.40625 35.804688 12.304688 35.558594 L 11.976562 35.484375 L 11.972656 35.472656 C 11.699219 35.382812 11.496094 34.804688 11.496094 34.105469 C 11.496094 33.964844 11.5 33.832031 11.519531 33.703125 L 11.171875 33.703125 L 11.171875 32.230469 L 10.851562 32.203125 C 10.757812 32.195312 10.6875 32.117188 10.6875 32.023438 C 10.6875 32.023438 10.925781 19.835938 11.042969 19.828125 Z M 43.433594 23.664062 C 43.414062 23.601562 43.398438 23.542969 43.378906 23.484375 C 43.257812 23.074219 43.144531 22.75 43.054688 22.574219 C 43.027344 22.515625 43.03125 22.457031 43.058594 22.402344 C 43.207031 22.136719 43.3125 21.769531 43.253906 21.644531 C 41.269531 21.128906 36.554688 20.71875 33.726562 20.472656 C 32.679688 20.382812 31.851562 20.3125 31.496094 20.265625 C 31.335938 20.242188 31.046875 20.253906 30.546875 20.347656 C 30.75 20.535156 30.875 20.828125 30.875 21.113281 C 30.875 21.191406 30.882812 21.492188 30.898438 21.925781 C 30.902344 22.191406 30.914062 22.511719 30.929688 22.863281 C 30.984375 24.613281 31.0625 27.125 31.085938 27.789062 L 44.570312 28.214844 C 44.40625 27.484375 43.863281 25.136719 43.433594 23.664062 Z M 31.09375 28.144531 L 31.09375 31.351562 L 31.921875 31.351562 L 31.765625 28.167969 Z M 44.617188 28.574219 L 31.894531 28.171875 L 32.09375 30.714844 L 44.617188 30.714844 Z M 38.667969 31.671875 L 34.246094 31.765625 L 38.617188 31.851562 C 38.597656 31.9375 38.589844 32.019531 38.589844 32.105469 C 38.589844 32.1875 38.597656 32.257812 38.609375 32.328125 L 34.261719 32.417969 L 38.65625 32.507812 C 38.679688 32.578125 38.707031 32.640625 38.738281 32.695312 L 34.617188 32.789062 L 38.878906 32.882812 C 38.996094 33 39.144531 33.074219 39.308594 33.074219 C 39.484375 33.074219 39.652344 32.984375 39.777344 32.835938 L 43.042969 32.742188 L 39.894531 32.648438 C 39.921875 32.609375 39.9375 32.558594 39.953125 32.511719 L 43.175781 32.417969 L 40.003906 32.328125 C 40.011719 32.253906 40.019531 32.183594 40.019531 32.105469 C 40.019531 32.019531 40.011719 31.9375 39.996094 31.851562 L 43.496094 31.765625 L 39.945312 31.671875 C 39.921875 31.609375 39.890625 31.550781 39.859375 31.496094 L 43.601562 31.402344 L 39.71875 31.3125 L 39.71875 31.320312 C 39.601562 31.207031 39.460938 31.144531 39.308594 31.144531 C 39.15625 31.144531 39.015625 31.203125 38.898438 31.3125 L 33.914062 31.480469 L 38.75 31.5 C 38.71875 31.550781 38.691406 31.609375 38.667969 31.671875 Z M 30.414062 36.941406 C 30.421875 36.945312 30.429688 36.949219 30.441406 36.953125 C 30.453125 36.957031 30.472656 36.960938 30.488281 36.964844 C 30.507812 36.96875 30.523438 36.972656 30.539062 36.976562 C 30.5625 36.984375 30.578125 36.988281 30.597656 36.996094 C 30.605469 36.996094 30.609375 36.996094 30.617188 36.996094 C 30.617188 36.996094 30.625 36.996094 30.632812 37 C 30.640625 37 30.652344 37.003906 30.664062 37.003906 C 30.683594 37.007812 30.707031 37.015625 30.730469 37.019531 C 30.757812 37.019531 30.78125 37.023438 30.804688 37.027344 C 30.832031 37.03125 30.855469 37.035156 30.882812 37.039062 C 30.910156 37.042969 30.9375 37.046875 30.964844 37.050781 C 30.980469 37.050781 30.992188 37.050781 31.007812 37.050781 C 31.019531 37.050781 31.039062 37.054688 31.050781 37.054688 C 31.078125 37.058594 31.109375 37.058594 31.140625 37.0625 C 31.203125 37.0625 31.265625 37.066406 31.328125 37.070312 C 31.460938 37.070312 31.601562 37.070312 31.742188 37.0625 C 31.816406 37.058594 31.886719 37.054688 31.964844 37.050781 C 32 37.050781 32.039062 37.050781 32.078125 37.050781 C 32.113281 37.050781 32.152344 37.046875 32.195312 37.046875 C 32.34375 37.039062 32.5 37.03125 32.652344 37.027344 C 33.808594 36.984375 34.960938 36.941406 35.113281 36.9375 C 35.125 36.9375 35.132812 36.9375 35.132812 36.9375 C 35.132812 36.9375 33.898438 37.058594 32.664062 37.183594 C 32.507812 37.195312 32.355469 37.214844 32.203125 37.226562 C 32.164062 37.230469 32.128906 37.234375 32.089844 37.238281 C 32.054688 37.246094 32.015625 37.246094 31.976562 37.25 C 31.90625 37.257812 31.828125 37.265625 31.757812 37.277344 C 31.609375 37.289062 31.46875 37.300781 31.332031 37.304688 C 31.265625 37.308594 31.199219 37.308594 31.132812 37.3125 C 31.101562 37.3125 31.070312 37.3125 31.039062 37.308594 C 31.023438 37.308594 31.007812 37.308594 30.992188 37.308594 C 30.980469 37.308594 30.960938 37.308594 30.949219 37.308594 C 30.917969 37.308594 30.890625 37.304688 30.859375 37.304688 C 30.832031 37.300781 30.804688 37.300781 30.777344 37.300781 C 30.75 37.296875 30.722656 37.296875 30.695312 37.292969 C 30.671875 37.289062 30.640625 37.285156 30.617188 37.28125 C 30.605469 37.28125 30.59375 37.277344 30.582031 37.277344 C 30.578125 37.277344 30.570312 37.277344 30.5625 37.277344 C 30.5625 37.277344 30.554688 37.277344 30.546875 37.273438 C 30.527344 37.269531 30.5 37.265625 30.480469 37.261719 C 30.460938 37.257812 30.441406 37.253906 30.421875 37.25 C 30.417969 37.25 30.417969 37.25 30.414062 37.246094 L 30.414062 40.445312 C 30.421875 40.449219 30.433594 40.453125 30.445312 40.453125 C 30.449219 40.453125 30.460938 40.457031 30.46875 40.457031 C 30.476562 40.460938 30.484375 40.460938 30.496094 40.464844 C 30.511719 40.46875 30.53125 40.472656 30.554688 40.476562 C 30.574219 40.480469 30.59375 40.484375 30.617188 40.488281 C 30.628906 40.488281 30.640625 40.492188 30.652344 40.492188 C 30.667969 40.496094 30.675781 40.496094 30.691406 40.5 C 30.714844 40.503906 30.738281 40.507812 30.765625 40.507812 C 30.871094 40.519531 30.996094 40.527344 31.128906 40.53125 C 31.265625 40.53125 31.410156 40.53125 31.566406 40.527344 C 31.71875 40.519531 31.882812 40.515625 32.054688 40.507812 C 32.140625 40.503906 32.226562 40.5 32.3125 40.496094 C 32.359375 40.492188 32.402344 40.492188 32.445312 40.488281 C 32.492188 40.488281 32.535156 40.484375 32.582031 40.480469 C 32.671875 40.476562 32.757812 40.472656 32.847656 40.46875 C 32.9375 40.460938 33.03125 40.453125 33.117188 40.449219 C 33.300781 40.4375 33.484375 40.421875 33.660156 40.410156 C 33.839844 40.394531 34.015625 40.382812 34.183594 40.367188 C 34.523438 40.339844 34.835938 40.3125 35.113281 40.292969 C 35.519531 40.257812 35.824219 40.230469 35.953125 40.222656 C 35.824219 40.234375 35.519531 40.277344 35.113281 40.324219 C 34.84375 40.359375 34.527344 40.394531 34.1875 40.4375 C 34.023438 40.453125 33.847656 40.476562 33.667969 40.496094 C 33.488281 40.515625 33.308594 40.535156 33.128906 40.554688 C 33.039062 40.5625 32.949219 40.574219 32.859375 40.585938 C 32.765625 40.59375 32.675781 40.601562 32.585938 40.609375 C 32.542969 40.613281 32.5 40.617188 32.453125 40.621094 C 32.410156 40.625 32.367188 40.628906 32.324219 40.632812 C 32.234375 40.640625 32.148438 40.648438 32.0625 40.652344 C 31.894531 40.667969 31.730469 40.679688 31.570312 40.691406 C 31.417969 40.703125 31.265625 40.707031 31.128906 40.707031 C 30.992188 40.710938 30.863281 40.707031 30.75 40.703125 C 30.722656 40.699219 30.695312 40.699219 30.667969 40.695312 C 30.652344 40.695312 30.640625 40.691406 30.628906 40.691406 C 30.617188 40.691406 30.601562 40.6875 30.589844 40.6875 C 30.566406 40.683594 30.542969 40.679688 30.519531 40.675781 C 30.496094 40.671875 30.476562 40.671875 30.453125 40.667969 C 30.445312 40.664062 30.433594 40.664062 30.421875 40.660156 C 30.421875 40.660156 30.417969 40.660156 30.414062 40.65625 L 30.414062 41.738281 C 30.558594 41.804688 30.875 41.921875 31.332031 41.953125 C 31.636719 41.976562 32.492188 41.949219 33.402344 41.890625 C 34.542969 41.816406 35.078125 41.742188 35.15625 41.707031 C 35.332031 41.632812 36.1875 41.535156 37.976562 41.347656 C 38.964844 41.242188 39.996094 41.136719 40.433594 41.0625 C 40.667969 41.023438 40.933594 40.992188 41.234375 40.953125 C 42.097656 40.851562 43.261719 40.710938 44.605469 40.253906 C 44.695312 40.226562 44.785156 40.195312 44.875 40.160156 C 44.886719 39.957031 44.910156 39.640625 44.945312 39.257812 C 44.945312 39.25 44.949219 39.242188 44.949219 39.230469 L 41.964844 39.523438 L 44.964844 39.023438 C 45.027344 38.3125 45.09375 37.484375 45.09375 36.851562 L 45.09375 36.335938 L 43.097656 36.238281 L 45.09375 36.140625 L 45.09375 35.058594 C 45.09375 34.746094 44.800781 34.445312 44.496094 34.445312 C 44.417969 34.445312 44.351562 34.394531 44.328125 34.324219 L 43.273438 34.324219 C 43.34375 34.238281 43.40625 34.125 43.476562 33.980469 C 43.492188 33.957031 43.5 33.925781 43.511719 33.902344 C 43.542969 33.835938 43.574219 33.761719 43.601562 33.683594 L 44.316406 33.683594 C 44.316406 33.589844 44.394531 33.503906 44.496094 33.503906 C 44.828125 33.503906 44.953125 33.375 44.953125 33.019531 L 44.953125 31.464844 C 44.9375 31.429688 44.839844 31.375 44.792969 31.371094 C 44.710938 31.371094 44.640625 31.308594 44.621094 31.230469 C 44.070312 31.484375 43.800781 32.917969 43.546875 33.585938 C 43.511719 33.691406 43.472656 33.785156 43.4375 33.867188 C 43.425781 33.894531 43.410156 33.917969 43.402344 33.945312 C 43.242188 34.285156 43.097656 34.433594 42.914062 34.484375 C 42.859375 34.496094 42.800781 34.503906 42.738281 34.503906 L 34.882812 34.503906 C 34.503906 34.503906 34.253906 34.300781 34.023438 33.953125 C 33.921875 33.945312 33.765625 33.9375 33.570312 33.929688 C 33.398438 33.921875 33.199219 33.914062 32.980469 33.902344 C 32.953125 33.902344 32.925781 33.902344 32.898438 33.902344 L 32.886719 33.902344 L 32.875 33.898438 L 32.855469 33.898438 L 32.835938 33.894531 L 32.824219 33.894531 L 32.8125 33.890625 C 32.792969 33.886719 32.777344 33.886719 32.757812 33.882812 L 32.734375 33.875 L 32.710938 33.871094 C 32.675781 33.863281 32.648438 33.847656 32.617188 33.835938 C 32.554688 33.808594 32.5 33.769531 32.449219 33.730469 C 32.402344 33.683594 32.359375 33.636719 32.320312 33.585938 C 32.25 33.480469 32.199219 33.363281 32.164062 33.253906 C 32.164062 33.238281 32.160156 33.222656 32.15625 33.210938 C 32.152344 33.199219 32.148438 33.183594 32.140625 33.167969 C 32.132812 33.140625 32.128906 33.117188 32.121094 33.085938 C 32.113281 33.0625 32.109375 33.03125 32.105469 33.007812 C 32.097656 32.976562 32.089844 32.949219 32.082031 32.925781 C 32.058594 32.820312 32.039062 32.71875 32.023438 32.617188 C 32 32.523438 31.984375 32.429688 31.96875 32.34375 C 31.960938 32.300781 31.953125 32.261719 31.945312 32.21875 C 31.941406 32.183594 31.9375 32.144531 31.929688 32.109375 C 31.925781 32.078125 31.921875 32.042969 31.917969 32.015625 C 31.914062 31.984375 31.910156 31.957031 31.910156 31.929688 C 31.90625 31.917969 31.90625 31.90625 31.90625 31.894531 C 31.902344 31.882812 31.902344 31.871094 31.902344 31.863281 C 31.902344 31.84375 31.898438 31.824219 31.898438 31.8125 C 31.898438 31.785156 31.898438 31.769531 31.898438 31.769531 C 31.898438 31.769531 31.902344 31.785156 31.902344 31.8125 C 31.90625 31.824219 31.90625 31.84375 31.90625 31.859375 C 31.914062 31.871094 31.914062 31.878906 31.914062 31.890625 C 31.914062 31.90625 31.917969 31.914062 31.921875 31.929688 C 31.925781 31.953125 31.933594 31.980469 31.9375 32.007812 C 31.945312 32.039062 31.953125 32.070312 31.960938 32.101562 C 31.96875 32.136719 31.976562 32.175781 31.988281 32.214844 C 31.996094 32.25 32.007812 32.292969 32.019531 32.332031 C 32.042969 32.414062 32.066406 32.503906 32.09375 32.601562 C 32.125 32.695312 32.152344 32.796875 32.1875 32.894531 C 32.195312 32.921875 32.203125 32.945312 32.210938 32.976562 C 32.21875 33 32.226562 33.027344 32.238281 33.054688 C 32.25 33.078125 32.253906 33.105469 32.265625 33.128906 C 32.269531 33.140625 32.273438 33.15625 32.277344 33.167969 C 32.285156 33.179688 32.289062 33.195312 32.296875 33.207031 C 32.335938 33.308594 32.386719 33.402344 32.453125 33.480469 C 32.488281 33.523438 32.527344 33.558594 32.5625 33.585938 C 32.605469 33.617188 32.648438 33.636719 32.691406 33.652344 C 32.714844 33.660156 32.734375 33.667969 32.757812 33.671875 L 32.777344 33.675781 L 32.792969 33.675781 C 32.804688 33.675781 32.8125 33.675781 32.824219 33.675781 C 32.828125 33.675781 32.832031 33.675781 32.832031 33.675781 L 32.898438 33.675781 C 32.925781 33.675781 32.953125 33.675781 32.980469 33.675781 C 33.199219 33.664062 33.398438 33.65625 33.570312 33.644531 C 33.671875 33.644531 33.761719 33.640625 33.839844 33.636719 C 33.695312 33.363281 33.546875 33.042969 33.371094 32.679688 C 32.832031 31.585938 32.699219 31.554688 32.09375 31.554688 L 31.09375 31.554688 C 31.09375 31.65625 31.011719 31.734375 30.914062 31.734375 L 30.6875 31.734375 L 30.6875 34.148438 L 34.058594 34.148438 C 34.277344 34.429688 34.527344 34.585938 34.882812 34.585938 L 42.738281 34.585938 C 42.8125 34.585938 42.875 34.578125 42.929688 34.558594 L 42.933594 34.558594 C 43.039062 34.535156 43.125 34.480469 43.207031 34.402344 C 43.34375 34.691406 43.320312 35.253906 43.101562 35.648438 C 42.84375 36.125 42.539062 36.472656 42.28125 36.472656 C 41.488281 36.472656 36.085938 36.9375 35.503906 36.9375 C 35.351562 36.871094 35.222656 36.738281 35.105469 36.582031 C 34.84375 36.238281 34.652344 35.753906 34.492188 35.480469 C 34.25 35.085938 33.773438 34.957031 33.523438 34.421875 L 30.6875 34.421875 L 30.6875 35.183594 C 30.6875 35.28125 30.609375 35.363281 30.507812 35.363281 C 30.507812 35.363281 30.414062 35.363281 30.414062 35.554688 Z M 27.425781 37.429688 C 27.585938 38.332031 27.652344 39.207031 27.660156 39.722656 C 27.664062 39.914062 27.664062 40.097656 27.667969 40.273438 C 27.667969 40.757812 27.675781 41.253906 27.710938 41.410156 C 27.722656 41.414062 27.734375 41.421875 27.75 41.429688 C 27.984375 41.53125 28.707031 41.839844 29.097656 41.882812 C 29.425781 41.921875 29.855469 41.792969 30.054688 41.722656 L 30.054688 39.210938 L 28.328125 38.484375 C 28.285156 38.464844 28.253906 38.429688 28.234375 38.390625 L 27.53125 36.796875 C 27.527344 36.792969 27.527344 36.785156 27.527344 36.78125 L 27.527344 36.777344 C 27.527344 36.773438 27.523438 36.769531 27.523438 36.769531 C 27.523438 36.765625 27.523438 36.761719 27.519531 36.761719 L 27.300781 36.8125 C 27.351562 37.03125 27.390625 37.242188 27.425781 37.429688 Z M 27.871094 36.542969 L 30.054688 36.542969 L 30.054688 35.722656 L 28.570312 35.722656 C 28.472656 35.722656 28.394531 35.644531 28.394531 35.542969 C 28.394531 34.328125 27.960938 33.089844 27.039062 31.65625 L 26.285156 31.636719 C 26.351562 31.695312 26.414062 31.761719 26.472656 31.832031 C 26.761719 32.167969 27.019531 32.640625 27.242188 33.230469 C 27.613281 34.214844 27.847656 35.46875 27.871094 36.542969 Z M 26.152344 41.328125 C 26.414062 41.328125 26.796875 40.566406 26.796875 39.421875 C 26.796875 37.46875 25.949219 36.90625 25.847656 36.90625 C 25.753906 36.90625 25.238281 36.996094 25.203125 37.671875 C 25.246094 37.648438 25.285156 37.640625 25.332031 37.640625 C 25.496094 37.640625 25.644531 37.808594 25.753906 38.113281 C 25.851562 38.398438 25.90625 38.773438 25.90625 39.175781 C 25.90625 39.578125 25.851562 39.957031 25.753906 40.242188 C 25.675781 40.453125 25.582031 40.597656 25.476562 40.667969 C 25.527344 41.003906 25.90625 41.328125 26.152344 41.328125 Z M 25.332031 40.652344 C 25.613281 40.652344 25.847656 39.996094 25.847656 39.175781 C 25.847656 38.359375 25.613281 37.699219 25.332031 37.699219 C 25.042969 37.699219 24.808594 38.359375 24.808594 39.175781 C 24.808594 39.996094 25.042969 40.652344 25.332031 40.652344 Z M 25.257812 31.257812 C 25.285156 31.234375 25.316406 31.226562 25.355469 31.226562 C 25.453125 31.226562 25.550781 31.238281 25.644531 31.261719 L 27.046875 31.296875 L 30.507812 31.375 L 30.734375 31.375 L 30.734375 27.964844 C 30.726562 27.660156 30.519531 21.523438 30.519531 21.113281 C 30.519531 20.945312 30.445312 20.710938 30.269531 20.578125 C 30.148438 20.484375 30 20.457031 29.835938 20.5 C 29.828125 20.5 29.824219 20.5 29.820312 20.503906 C 29.273438 20.632812 28.570312 20.832031 27.667969 21.113281 C 26.394531 21.519531 25.21875 21.9375 24.863281 22.066406 C 24.765625 23.410156 24.613281 25.617188 24.480469 27.550781 C 24.371094 29.242188 24.269531 30.726562 24.238281 31.234375 Z M 24.125 27.53125 C 24.316406 24.695312 24.554688 21.265625 24.609375 20.832031 L 24.609375 20.820312 C 24.660156 20.4375 24.703125 20.113281 24.792969 19.835938 C 24.902344 19.503906 25.070312 19.289062 25.316406 19.171875 C 25.574219 19.042969 26.816406 18.527344 27.949219 18.070312 C 27.429688 18.132812 26.820312 18.207031 26.207031 18.273438 C 25.277344 18.371094 24.527344 18.4375 23.972656 18.46875 C 23.945312 18.46875 23.917969 18.46875 23.894531 18.46875 C 23.703125 18.480469 23.546875 18.484375 23.417969 18.488281 C 23.175781 18.492188 22.984375 18.683594 22.980469 18.921875 L 22.757812 32.929688 C 22.757812 32.9375 22.757812 32.945312 22.757812 32.949219 C 22.757812 32.960938 22.65625 33.710938 23.015625 34.125 C 23.144531 34.277344 23.316406 34.363281 23.535156 34.394531 L 23.535156 31.402344 C 23.535156 31.308594 23.613281 31.226562 23.714844 31.226562 L 23.878906 31.226562 C 23.914062 30.726562 24.011719 29.234375 24.125 27.53125 Z M 19.210938 34.945312 C 19.308594 35.503906 19.347656 36.121094 19.339844 36.449219 C 19.339844 36.507812 19.335938 36.5625 19.332031 36.613281 C 19.3125 37.085938 19.3125 37.226562 19.664062 37.390625 L 23.925781 39.269531 L 23.925781 35.78125 C 23.925781 35.773438 23.925781 35.765625 23.929688 35.757812 C 23.949219 35.613281 23.976562 35.472656 24.011719 35.335938 C 23.046875 35.132812 19.917969 34.464844 19.050781 34.261719 C 19.113281 34.457031 19.164062 34.683594 19.210938 34.945312 Z M 18.050781 36.601562 C 18.0625 36.75 18.078125 36.898438 18.109375 37.042969 C 18.113281 37.082031 18.121094 37.113281 18.128906 37.152344 C 18.132812 37.1875 18.140625 37.222656 18.148438 37.257812 C 18.164062 37.328125 18.183594 37.394531 18.203125 37.464844 C 18.246094 37.597656 18.292969 37.726562 18.355469 37.84375 C 18.386719 37.902344 18.414062 37.957031 18.453125 38.007812 C 18.492188 38.0625 18.535156 38.109375 18.585938 38.144531 C 18.632812 38.183594 18.691406 38.214844 18.75 38.222656 C 18.757812 38.222656 18.769531 38.222656 18.777344 38.222656 L 18.800781 38.222656 C 18.8125 38.21875 18.824219 38.21875 18.839844 38.214844 C 18.847656 38.210938 18.855469 38.210938 18.863281 38.207031 C 18.867188 38.207031 18.875 38.207031 18.878906 38.203125 C 18.886719 38.203125 18.890625 38.199219 18.898438 38.195312 C 18.902344 38.191406 18.910156 38.1875 18.917969 38.183594 C 18.960938 38.160156 18.992188 38.128906 19.019531 38.097656 C 19.046875 38.066406 19.066406 38.035156 19.082031 38.003906 C 19.117188 37.949219 19.136719 37.902344 19.148438 37.871094 C 19.152344 37.855469 19.160156 37.839844 19.160156 37.835938 C 19.152344 37.839844 19.148438 37.851562 19.136719 37.863281 C 19.117188 37.894531 19.09375 37.933594 19.050781 37.980469 C 19.03125 38.003906 19.007812 38.035156 18.976562 38.054688 C 18.953125 38.078125 18.917969 38.101562 18.882812 38.117188 C 18.871094 38.121094 18.863281 38.121094 18.855469 38.121094 C 18.847656 38.125 18.84375 38.125 18.839844 38.125 C 18.835938 38.125 18.832031 38.125 18.828125 38.128906 C 18.820312 38.128906 18.808594 38.128906 18.796875 38.128906 L 18.792969 38.128906 L 18.789062 38.125 L 18.78125 38.125 C 18.78125 38.125 18.773438 38.125 18.769531 38.121094 C 18.730469 38.117188 18.695312 38.089844 18.660156 38.058594 C 18.625 38.023438 18.59375 37.980469 18.566406 37.933594 C 18.539062 37.890625 18.515625 37.835938 18.492188 37.78125 C 18.445312 37.667969 18.410156 37.546875 18.378906 37.417969 C 18.359375 37.351562 18.347656 37.285156 18.332031 37.21875 C 18.328125 37.183594 18.324219 37.148438 18.316406 37.113281 C 18.308594 37.082031 18.304688 37.046875 18.300781 37.011719 C 18.277344 36.871094 18.265625 36.730469 18.253906 36.585938 C 18.242188 36.441406 18.234375 36.296875 18.230469 36.15625 C 18.230469 36.140625 18.230469 36.121094 18.230469 36.105469 C 18.230469 36.085938 18.230469 36.066406 18.230469 36.050781 C 18.230469 36.015625 18.226562 35.980469 18.226562 35.949219 C 18.230469 35.875 18.230469 35.808594 18.230469 35.742188 C 18.230469 35.675781 18.238281 35.609375 18.238281 35.542969 C 18.242188 35.476562 18.25 35.414062 18.25 35.351562 C 18.253906 35.289062 18.261719 35.230469 18.269531 35.171875 C 18.273438 35.113281 18.28125 35.054688 18.289062 35.003906 C 18.304688 34.894531 18.320312 34.800781 18.335938 34.714844 C 18.339844 34.691406 18.347656 34.667969 18.351562 34.648438 C 18.355469 34.628906 18.359375 34.609375 18.363281 34.589844 C 18.367188 34.574219 18.371094 34.554688 18.378906 34.539062 C 18.382812 34.519531 18.382812 34.503906 18.390625 34.488281 C 18.398438 34.460938 18.410156 34.433594 18.414062 34.40625 C 18.417969 34.398438 18.421875 34.382812 18.425781 34.375 C 18.429688 34.367188 18.433594 34.355469 18.4375 34.347656 C 18.445312 34.316406 18.453125 34.296875 18.453125 34.296875 C 18.453125 34.296875 18.445312 34.316406 18.425781 34.34375 C 18.417969 34.347656 18.414062 34.359375 18.410156 34.367188 C 18.40625 34.378906 18.398438 34.386719 18.390625 34.398438 C 18.382812 34.40625 18.382812 34.421875 18.371094 34.433594 C 18.363281 34.445312 18.359375 34.460938 18.355469 34.476562 C 18.347656 34.488281 18.335938 34.503906 18.328125 34.519531 C 18.324219 34.539062 18.316406 34.554688 18.308594 34.574219 C 18.292969 34.609375 18.277344 34.648438 18.261719 34.691406 C 18.253906 34.714844 18.25 34.734375 18.242188 34.757812 C 18.230469 34.777344 18.222656 34.800781 18.21875 34.824219 C 18.203125 34.875 18.1875 34.925781 18.171875 34.980469 C 18.160156 35.035156 18.148438 35.089844 18.132812 35.148438 C 18.121094 35.210938 18.109375 35.269531 18.101562 35.332031 C 18.089844 35.394531 18.082031 35.460938 18.074219 35.527344 C 18.066406 35.59375 18.058594 35.664062 18.050781 35.730469 C 18.042969 35.871094 18.035156 36.011719 18.035156 36.160156 C 18.035156 36.304688 18.039062 36.453125 18.050781 36.601562 Z M 14.097656 34.5625 L 16.542969 35.332031 C 16.617188 35.359375 16.667969 35.421875 16.671875 35.5 C 16.671875 35.507812 16.675781 35.730469 16.671875 36.078125 C 16.738281 36.109375 16.816406 36.144531 16.902344 36.179688 C 16.90625 36.183594 16.914062 36.183594 16.917969 36.1875 C 16.921875 36.1875 16.925781 36.191406 16.925781 36.195312 C 16.976562 36.214844 17.027344 36.238281 17.085938 36.261719 L 17.085938 36.175781 C 17.0625 36.1875 17.035156 36.199219 17.003906 36.199219 C 16.976562 36.199219 16.953125 36.191406 16.933594 36.179688 C 16.925781 36.179688 16.925781 36.175781 16.921875 36.175781 C 16.863281 36.148438 16.824219 36.089844 16.824219 36.015625 L 16.824219 33.632812 L 16.679688 33.667969 L 16.679688 34.265625 C 16.679688 34.324219 16.65625 34.375 16.613281 34.40625 C 16.570312 34.4375 16.511719 34.453125 16.460938 34.4375 L 14.082031 33.867188 C 14.058594 34.113281 14.050781 34.402344 14.097656 34.5625 Z M 12.914062 35.800781 C 12.964844 35.828125 13.023438 35.851562 13.085938 35.855469 C 13.09375 35.855469 13.101562 35.855469 13.105469 35.859375 L 13.121094 35.855469 L 13.132812 35.855469 C 13.144531 35.855469 13.15625 35.855469 13.171875 35.851562 C 13.179688 35.851562 13.183594 35.847656 13.191406 35.847656 C 13.199219 35.84375 13.207031 35.84375 13.214844 35.839844 C 13.21875 35.839844 13.222656 35.839844 13.230469 35.835938 C 13.238281 35.835938 13.246094 35.832031 13.246094 35.832031 C 13.261719 35.824219 13.269531 35.816406 13.285156 35.808594 L 13.285156 35.75 C 13.261719 35.757812 13.242188 35.769531 13.214844 35.777344 C 13.207031 35.78125 13.195312 35.785156 13.183594 35.785156 C 13.183594 35.785156 13.179688 35.785156 13.171875 35.785156 C 13.167969 35.785156 13.164062 35.785156 13.160156 35.785156 C 13.15625 35.785156 13.136719 35.785156 13.128906 35.785156 L 13.117188 35.785156 C 13.109375 35.785156 13.105469 35.785156 13.101562 35.785156 C 13.0625 35.777344 13.027344 35.757812 12.992188 35.734375 C 12.980469 35.726562 12.96875 35.71875 12.960938 35.707031 L 12.792969 35.707031 C 12.832031 35.742188 12.871094 35.777344 12.914062 35.800781 Z M 11.851562 34.898438 C 11.882812 34.976562 11.917969 35.050781 11.96875 35.121094 C 11.988281 35.148438 12.003906 35.171875 12.035156 35.195312 L 12.035156 34.992188 C 12.019531 34.960938 12.003906 34.929688 11.996094 34.894531 C 11.984375 34.886719 11.972656 34.886719 11.960938 34.886719 L 11.84375 34.886719 C 11.847656 34.886719 11.847656 34.890625 11.851562 34.898438 Z M 11.851562 34.898438 " fill-opacity="1" fill-rule="nonzero"/></g><path fill="#fffbec" d="M 33.433594 30.402344 C 33.449219 30.402344 33.464844 30.398438 33.484375 30.394531 C 33.5625 30.386719 33.671875 30.367188 33.8125 30.355469 C 33.957031 30.335938 34.128906 30.320312 34.328125 30.304688 C 34.421875 30.292969 34.527344 30.285156 34.640625 30.273438 C 34.75 30.265625 34.867188 30.257812 34.988281 30.25 C 35.113281 30.238281 35.238281 30.226562 35.367188 30.21875 C 35.5 30.210938 35.636719 30.199219 35.777344 30.191406 C 36.054688 30.171875 36.347656 30.15625 36.65625 30.140625 C 36.808594 30.132812 36.964844 30.125 37.121094 30.117188 C 37.277344 30.109375 37.4375 30.105469 37.59375 30.101562 C 37.917969 30.085938 38.242188 30.078125 38.570312 30.074219 L 38.691406 30.074219 C 38.738281 30.074219 38.773438 30.078125 38.816406 30.078125 C 38.855469 30.078125 38.898438 30.078125 38.941406 30.078125 C 38.980469 30.078125 39.019531 30.078125 39.058594 30.082031 C 39.222656 30.082031 39.382812 30.085938 39.542969 30.089844 C 39.703125 30.089844 39.863281 30.09375 40.019531 30.097656 C 40.175781 30.101562 40.332031 30.105469 40.484375 30.109375 C 40.636719 30.109375 40.789062 30.113281 40.933594 30.121094 C 41.078125 30.125 41.222656 30.132812 41.363281 30.136719 C 41.503906 30.144531 41.640625 30.152344 41.773438 30.160156 C 41.902344 30.164062 42.03125 30.171875 42.152344 30.179688 C 42.214844 30.183594 42.273438 30.1875 42.332031 30.191406 C 42.390625 30.195312 42.449219 30.199219 42.503906 30.207031 C 42.613281 30.214844 42.71875 30.222656 42.820312 30.230469 C 43.015625 30.25 43.1875 30.265625 43.328125 30.277344 C 43.402344 30.285156 43.460938 30.296875 43.519531 30.304688 C 43.574219 30.308594 43.621094 30.3125 43.660156 30.316406 C 43.734375 30.328125 43.773438 30.332031 43.773438 30.332031 C 43.773438 30.332031 43.734375 30.328125 43.660156 30.328125 C 43.582031 30.328125 43.46875 30.324219 43.324219 30.320312 C 43.183594 30.316406 43.015625 30.3125 42.816406 30.308594 C 42.714844 30.304688 42.609375 30.304688 42.5 30.304688 C 42.386719 30.300781 42.269531 30.300781 42.148438 30.296875 C 41.90625 30.292969 41.636719 30.292969 41.359375 30.289062 C 41.082031 30.285156 40.789062 30.285156 40.484375 30.285156 C 40.175781 30.285156 39.863281 30.285156 39.539062 30.285156 C 39.460938 30.285156 39.382812 30.285156 39.300781 30.285156 C 39.257812 30.285156 39.222656 30.285156 39.179688 30.285156 C 39.136719 30.28125 39.097656 30.28125 39.054688 30.28125 C 39.015625 30.28125 38.972656 30.28125 38.9375 30.28125 C 38.894531 30.277344 38.855469 30.277344 38.8125 30.277344 C 38.769531 30.277344 38.730469 30.273438 38.691406 30.273438 L 38.574219 30.273438 C 38.246094 30.277344 37.921875 30.289062 37.601562 30.296875 C 37.28125 30.304688 36.96875 30.3125 36.660156 30.320312 C 36.355469 30.328125 36.0625 30.335938 35.785156 30.34375 C 35.503906 30.351562 35.238281 30.359375 34.996094 30.363281 C 34.75 30.367188 34.527344 30.375 34.328125 30.382812 C 34.132812 30.386719 33.960938 30.390625 33.816406 30.394531 C 33.675781 30.398438 33.5625 30.402344 33.484375 30.40625 C 33.449219 30.410156 33.417969 30.410156 33.398438 30.414062 C 33.382812 30.414062 33.375 30.414062 33.371094 30.414062 C 33.375 30.414062 33.378906 30.414062 33.398438 30.410156 C 33.40625 30.410156 33.421875 30.40625 33.433594 30.402344 Z M 33.433594 30.402344 " fill-opacity="1" fill-rule="nonzero"/><path fill="#fffbec" d="M 31.027344 23.21875 L 31.015625 22.964844 L 31.011719 22.859375 L 31.007812 22.707031 L 31.054688 23.214844 L 31.101562 23.730469 L 31.191406 24.757812 L 31.285156 25.777344 C 31.300781 25.949219 31.316406 26.121094 31.332031 26.289062 L 31.34375 26.417969 C 31.34375 26.4375 31.351562 26.457031 31.351562 26.480469 L 31.355469 26.496094 L 31.355469 26.507812 C 31.359375 26.511719 31.359375 26.519531 31.363281 26.527344 C 31.375 26.554688 31.390625 26.582031 31.414062 26.613281 C 31.433594 26.640625 31.460938 26.667969 31.492188 26.691406 C 31.609375 26.792969 31.757812 26.859375 31.90625 26.886719 C 31.925781 26.890625 31.941406 26.894531 31.960938 26.894531 C 31.96875 26.894531 31.976562 26.894531 31.988281 26.894531 C 31.992188 26.894531 31.992188 26.898438 31.992188 26.898438 L 32.402344 26.898438 L 33.429688 26.902344 L 34.460938 26.90625 L 35.488281 26.917969 L 36.519531 26.929688 L 38.574219 26.957031 L 39.605469 26.96875 L 41.664062 27.003906 L 43.507812 27.042969 C 43.503906 27.023438 43.5 27.007812 43.5 26.988281 C 43.488281 26.902344 43.472656 26.816406 43.460938 26.730469 C 43.449219 26.644531 43.433594 26.558594 43.417969 26.472656 L 43.375 26.210938 L 43.328125 25.949219 L 43.277344 25.691406 L 43.230469 25.429688 C 43.210938 25.34375 43.195312 25.257812 43.175781 25.171875 C 43.15625 25.082031 43.140625 24.996094 43.125 24.910156 C 43.101562 24.824219 43.085938 24.738281 43.066406 24.652344 C 43.046875 24.566406 43.027344 24.480469 43.007812 24.398438 L 42.976562 24.265625 C 42.964844 24.226562 42.957031 24.183594 42.945312 24.140625 C 42.925781 24.054688 42.902344 23.972656 42.878906 23.886719 C 42.855469 23.800781 42.835938 23.71875 42.808594 23.636719 C 42.785156 23.550781 42.757812 23.46875 42.734375 23.386719 L 42.6875 23.269531 C 42.6875 23.261719 42.683594 23.253906 42.683594 23.246094 L 42.039062 23.214844 L 39.777344 23.085938 L 38.261719 22.996094 L 35.246094 22.804688 L 33.738281 22.703125 L 32.980469 22.652344 L 32.605469 22.621094 C 32.480469 22.613281 32.355469 22.601562 32.226562 22.59375 L 31.851562 22.5625 C 31.789062 22.558594 31.726562 22.550781 31.660156 22.542969 C 31.601562 22.539062 31.535156 22.53125 31.472656 22.511719 C 31.441406 22.5 31.410156 22.488281 31.378906 22.46875 C 31.351562 22.453125 31.328125 22.425781 31.308594 22.402344 C 31.289062 22.375 31.269531 22.347656 31.253906 22.320312 C 31.234375 22.296875 31.222656 22.269531 31.203125 22.242188 C 31.175781 22.1875 31.144531 22.132812 31.109375 22.078125 C 31.078125 22.027344 31.042969 21.972656 31.007812 21.921875 C 31.046875 21.96875 31.082031 22.019531 31.121094 22.070312 C 31.152344 22.125 31.191406 22.175781 31.226562 22.230469 C 31.242188 22.257812 31.261719 22.285156 31.277344 22.308594 C 31.292969 22.335938 31.3125 22.359375 31.332031 22.382812 C 31.351562 22.402344 31.375 22.425781 31.402344 22.4375 C 31.425781 22.457031 31.457031 22.460938 31.484375 22.46875 C 31.542969 22.488281 31.605469 22.488281 31.667969 22.492188 C 31.730469 22.496094 31.792969 22.5 31.855469 22.5 L 32.234375 22.511719 L 33.742188 22.5625 L 35.253906 22.609375 L 36.769531 22.664062 L 38.277344 22.71875 L 41.300781 22.84375 L 42.8125 22.910156 L 42.921875 22.910156 L 42.960938 23.011719 C 42.980469 23.054688 43 23.101562 43.015625 23.140625 L 43.0625 23.273438 C 43.09375 23.359375 43.121094 23.445312 43.148438 23.53125 C 43.167969 23.597656 43.183594 23.664062 43.207031 23.726562 C 43.210938 23.75 43.214844 23.773438 43.222656 23.792969 C 43.246094 23.878906 43.269531 23.964844 43.292969 24.054688 C 43.300781 24.09375 43.3125 24.140625 43.324219 24.183594 L 43.355469 24.316406 C 43.378906 24.402344 43.398438 24.484375 43.417969 24.574219 C 43.4375 24.660156 43.457031 24.746094 43.476562 24.835938 C 43.492188 24.921875 43.515625 25.011719 43.53125 25.097656 C 43.609375 25.445312 43.671875 25.796875 43.738281 26.144531 L 43.78125 26.410156 C 43.796875 26.5 43.808594 26.585938 43.828125 26.675781 C 43.839844 26.761719 43.855469 26.847656 43.863281 26.941406 C 43.878906 27.03125 43.890625 27.117188 43.898438 27.210938 L 43.917969 27.417969 L 43.710938 27.414062 L 41.65625 27.371094 L 39.597656 27.320312 L 38.570312 27.292969 L 37.539062 27.265625 L 36.511719 27.238281 L 35.480469 27.210938 L 33.429688 27.144531 L 32.398438 27.109375 L 32.011719 27.097656 L 31.980469 27.097656 C 31.96875 27.097656 31.953125 27.097656 31.9375 27.09375 C 31.914062 27.089844 31.890625 27.085938 31.871094 27.082031 C 31.773438 27.0625 31.6875 27.03125 31.601562 26.988281 C 31.519531 26.941406 31.441406 26.890625 31.371094 26.824219 C 31.335938 26.792969 31.300781 26.761719 31.273438 26.71875 C 31.242188 26.679688 31.214844 26.632812 31.199219 26.582031 C 31.195312 26.566406 31.191406 26.554688 31.1875 26.539062 L 31.183594 26.53125 C 31.183594 26.527344 31.183594 26.523438 31.183594 26.523438 L 31.183594 26.503906 C 31.179688 26.480469 31.179688 26.457031 31.179688 26.4375 L 31.167969 26.304688 C 31.15625 26.132812 31.148438 25.960938 31.140625 25.789062 C 31.125 25.449219 31.105469 25.105469 31.089844 24.761719 C 31.074219 24.421875 31.0625 24.078125 31.046875 23.734375 Z M 31.027344 23.21875 " fill-opacity="1" fill-rule="nonzero"/><path stroke-linecap="butt" transform="matrix(0.742788, 0, 0, 0.742788, 2.764991, 57.262199)" fill="none" stroke-linejoin="miter" d="M 0.000853906 0.998544 L 68.52958 0.998544 " stroke="#ab080d" stroke-width="2" stroke-opacity="1" stroke-miterlimit="4"/><path stroke-linecap="butt" transform="matrix(0.742788, 0, 0, 0.742788, 2.764991, 69.969691)" fill="none" stroke-linejoin="miter" d="M 0.000853906 0.997925 L 68.52958 0.997925 " stroke="#ab080d" stroke-width="2" stroke-opacity="1" stroke-miterlimit="4"/><g transform="matrix(1, 0, 0, 1, 12, 57)"><g clip-path="url(#9f97361f95)"><g fill="#ab080d" fill-opacity="1"><g transform="translate(0.587249, 10.935554)"><g><path d="M 8.65625 -7.078125 L 8.65625 0 L 6.921875 0 L 6.921875 -4.25 L 5.34375 0 L 3.953125 0 L 2.359375 -4.265625 L 2.359375 0 L 0.625 0 L 0.625 -7.078125 L 2.671875 -7.078125 L 4.65625 -2.1875 L 6.625 -7.078125 Z M 8.65625 -7.078125 "/></g></g></g><g fill="#ab080d" fill-opacity="1"><g transform="translate(13.89631, 10.935554)"><g><path d="M 3.1875 0.078125 C 2.664062 0.078125 2.203125 -0.00390625 1.796875 -0.171875 C 1.390625 -0.347656 1.0625 -0.597656 0.8125 -0.921875 C 0.5625 -1.253906 0.429688 -1.65625 0.421875 -2.125 L 2.265625 -2.125 C 2.285156 -1.851562 2.375 -1.648438 2.53125 -1.515625 C 2.6875 -1.378906 2.890625 -1.3125 3.140625 -1.3125 C 3.390625 -1.3125 3.585938 -1.367188 3.734375 -1.484375 C 3.890625 -1.609375 3.96875 -1.773438 3.96875 -1.984375 C 3.96875 -2.148438 3.90625 -2.289062 3.78125 -2.40625 C 3.664062 -2.519531 3.519531 -2.613281 3.34375 -2.6875 C 3.175781 -2.769531 2.9375 -2.859375 2.625 -2.953125 C 2.164062 -3.085938 1.789062 -3.222656 1.5 -3.359375 C 1.207031 -3.503906 0.957031 -3.710938 0.75 -3.984375 C 0.539062 -4.265625 0.4375 -4.628906 0.4375 -5.078125 C 0.4375 -5.734375 0.675781 -6.25 1.15625 -6.625 C 1.632812 -7 2.257812 -7.1875 3.03125 -7.1875 C 3.8125 -7.1875 4.4375 -7 4.90625 -6.625 C 5.382812 -6.25 5.644531 -5.726562 5.6875 -5.0625 L 3.8125 -5.0625 C 3.800781 -5.289062 3.71875 -5.46875 3.5625 -5.59375 C 3.40625 -5.726562 3.207031 -5.796875 2.96875 -5.796875 C 2.757812 -5.796875 2.585938 -5.738281 2.453125 -5.625 C 2.328125 -5.519531 2.265625 -5.363281 2.265625 -5.15625 C 2.265625 -4.925781 2.375 -4.75 2.59375 -4.625 C 2.8125 -4.5 3.148438 -4.359375 3.609375 -4.203125 C 4.066406 -4.054688 4.4375 -3.910156 4.71875 -3.765625 C 5 -3.617188 5.242188 -3.410156 5.453125 -3.140625 C 5.671875 -2.878906 5.78125 -2.535156 5.78125 -2.109375 C 5.78125 -1.703125 5.675781 -1.332031 5.46875 -1 C 5.257812 -0.675781 4.957031 -0.414062 4.5625 -0.21875 C 4.175781 -0.0195312 3.71875 0.078125 3.1875 0.078125 Z M 3.1875 0.078125 "/></g></g></g><g fill="#ab080d" fill-opacity="1"><g transform="translate(24.1457, 10.935554)"><g><path d="M 0.328125 -3.546875 C 0.328125 -4.253906 0.476562 -4.878906 0.78125 -5.421875 C 1.082031 -5.972656 1.503906 -6.398438 2.046875 -6.703125 C 2.585938 -7.015625 3.203125 -7.171875 3.890625 -7.171875 C 4.734375 -7.171875 5.453125 -6.945312 6.046875 -6.5 C 6.648438 -6.050781 7.050781 -5.445312 7.25 -4.6875 L 5.359375 -4.6875 C 5.210938 -4.976562 5.007812 -5.203125 4.75 -5.359375 C 4.5 -5.515625 4.207031 -5.59375 3.875 -5.59375 C 3.34375 -5.59375 2.910156 -5.40625 2.578125 -5.03125 C 2.253906 -4.664062 2.09375 -4.171875 2.09375 -3.546875 C 2.09375 -2.929688 2.253906 -2.4375 2.578125 -2.0625 C 2.910156 -1.695312 3.34375 -1.515625 3.875 -1.515625 C 4.207031 -1.515625 4.5 -1.59375 4.75 -1.75 C 5.007812 -1.90625 5.210938 -2.128906 5.359375 -2.421875 L 7.25 -2.421875 C 7.050781 -1.648438 6.648438 -1.046875 6.046875 -0.609375 C 5.453125 -0.171875 4.734375 0.046875 3.890625 0.046875 C 3.203125 0.046875 2.585938 -0.101562 2.046875 -0.40625 C 1.503906 -0.71875 1.082031 -1.144531 0.78125 -1.6875 C 0.476562 -2.226562 0.328125 -2.847656 0.328125 -3.546875 Z M 0.328125 -3.546875 "/></g></g></g></g></g></svg>