<svg xmlns="http://www.w3.org/2000/svg" version="1.1" xmlns:xlink="http://www.w3.org/1999/xlink" width="260" height="260"><svg xmlns="http://www.w3.org/2000/svg" xmlns:xlink="http://www.w3.org/1999/xlink" width="260" zoomAndPan="magnify" viewBox="0 0 194.87999 195.000001" height="260" preserveAspectRatio="xMidYMid meet" version="1.0"><defs><clipPath id="SvgjsClipPath1042"><path d="M 0.4375 0 L 194.324219 0 L 194.324219 194 L 0.4375 194 Z M 0.4375 0 " clip-rule="nonzero"></path></clipPath><clipPath id="SvgjsClipPath1041"><path d="M 56.933594 56.496094 L 137.9375 56.496094 L 137.9375 137.5 L 56.933594 137.5 Z M 56.933594 56.496094 " clip-rule="nonzero"></path></clipPath><clipPath id="SvgjsClipPath1040"><path d="M 97.433594 56.496094 C 75.066406 56.496094 56.933594 74.628906 56.933594 96.996094 C 56.933594 119.367188 75.066406 137.5 97.433594 137.5 C 119.804688 137.5 137.9375 119.367188 137.9375 96.996094 C 137.9375 74.628906 119.804688 56.496094 97.433594 56.496094 Z M 97.433594 56.496094 " clip-rule="nonzero"></path></clipPath><clipPath id="SvgjsClipPath1039"><path d="M 36.675781 54.695312 L 158.195312 54.695312 L 158.195312 150 L 36.675781 150 Z M 36.675781 54.695312 " clip-rule="nonzero"></path></clipPath></defs><g clip-path="url(#0dc5dcbc3d)"><path fill="#ab080d" d="M 187.367188 112.167969 C 191.171875 112.167969 194.285156 109.054688 194.285156 105.246094 L 194.285156 88.515625 C 194.285156 84.707031 191.171875 81.59375 187.367188 81.59375 L 180.179688 81.59375 C 176.375 81.59375 172.347656 78.617188 171.226562 74.980469 L 165.09375 60.09375 C 163.296875 56.738281 164.023438 51.792969 166.714844 49.105469 L 171.800781 44.019531 C 174.488281 41.328125 174.492188 36.921875 171.800781 34.230469 L 159.96875 22.398438 C 157.277344 19.707031 152.875 19.707031 150.179688 22.398438 L 145.09375 27.488281 C 142.402344 30.179688 137.457031 30.90625 134.105469 29.105469 L 119.21875 22.976562 C 115.582031 21.855469 112.605469 17.828125 112.605469 14.019531 L 112.605469 6.835938 C 112.605469 3.027344 109.492188 -0.0859375 105.683594 -0.0859375 L 88.953125 -0.0859375 C 85.144531 -0.0859375 82.03125 3.027344 82.03125 6.835938 L 82.03125 14.019531 C 82.03125 17.828125 79.054688 21.855469 75.417969 22.976562 L 60.535156 29.105469 C 57.179688 30.90625 52.234375 30.175781 49.542969 27.484375 L 44.457031 22.398438 C 41.765625 19.707031 37.363281 19.707031 34.671875 22.398438 L 22.839844 34.230469 C 20.148438 36.921875 20.148438 41.324219 22.839844 44.015625 L 27.929688 49.101562 C 30.621094 51.792969 31.347656 56.738281 29.546875 60.09375 L 23.417969 74.980469 C 22.296875 78.617188 18.269531 81.59375 14.460938 81.59375 L 7.277344 81.59375 C 3.472656 81.59375 0.359375 84.707031 0.359375 88.511719 L 0.359375 105.246094 C 0.359375 109.054688 3.472656 112.167969 7.277344 112.167969 L 14.460938 112.167969 C 18.269531 112.167969 22.296875 115.144531 23.417969 118.78125 L 29.550781 133.667969 C 31.351562 137.019531 30.621094 141.96875 27.929688 144.65625 L 22.84375 149.746094 C 20.152344 152.4375 20.152344 156.839844 22.84375 159.53125 L 34.671875 171.363281 C 37.363281 174.054688 41.765625 174.050781 44.457031 171.363281 L 49.546875 166.273438 C 52.238281 163.585938 57.183594 162.855469 60.535156 164.65625 L 75.421875 170.789062 C 79.058594 171.90625 82.035156 175.933594 82.035156 179.742188 L 82.035156 186.929688 C 82.035156 190.734375 85.148438 193.847656 88.953125 193.847656 L 105.6875 193.847656 C 109.492188 193.847656 112.609375 190.734375 112.609375 186.929688 L 112.609375 179.742188 C 112.609375 175.933594 115.582031 171.90625 119.222656 170.785156 L 134.105469 164.65625 C 137.457031 162.855469 142.40625 163.582031 145.09375 166.273438 L 150.1875 171.363281 C 152.875 174.054688 157.28125 174.050781 159.972656 171.363281 L 171.800781 159.53125 C 174.492188 156.839844 174.492188 152.4375 171.800781 149.742188 L 166.714844 144.65625 C 164.023438 141.964844 163.296875 137.019531 165.097656 133.667969 L 171.226562 118.78125 C 172.34375 115.144531 176.375 112.167969 180.183594 112.167969 Z M 97.320312 136.773438 C 75.289062 136.773438 57.425781 118.914062 57.425781 96.882812 C 57.425781 74.847656 75.289062 56.988281 97.320312 56.988281 C 119.351562 56.988281 137.214844 74.847656 137.214844 96.882812 C 137.214844 118.914062 119.351562 136.773438 97.320312 136.773438 Z M 97.320312 136.773438 " fill-opacity="1" fill-rule="nonzero"></path></g><path fill="#ffd600" d="M 157.9375 54.476562 C 154.144531 58.269531 148.605469 59.242188 143.917969 57.394531 L 117.816406 83.496094 C 119.664062 88.183594 118.691406 93.722656 114.898438 97.515625 C 111.109375 101.304688 105.566406 102.277344 100.878906 100.429688 L 110.734375 90.578125 C 111.328125 89.980469 111.328125 89.015625 110.734375 88.417969 L 105.535156 83.222656 C 104.941406 82.625 103.972656 82.625 103.378906 83.222656 L 93.523438 93.074219 C 91.675781 88.382812 92.644531 82.84375 96.4375 79.054688 C 100.226562 75.261719 105.769531 74.289062 110.457031 76.136719 L 136.558594 50.035156 C 134.710938 45.347656 135.683594 39.804688 139.472656 36.015625 C 143.265625 32.226562 148.808594 31.253906 153.496094 33.101562 L 143.308594 43.285156 C 142.714844 43.882812 142.714844 44.847656 143.308594 45.445312 L 148.507812 50.640625 C 149.101562 51.238281 150.070312 51.238281 150.667969 50.640625 L 160.851562 40.457031 C 162.699219 45.148438 161.726562 50.6875 157.9375 54.476562 Z M 157.9375 54.476562 " fill-opacity="1" fill-rule="nonzero"></path><path fill="#ffd600" d="M 104.792969 109.535156 C 100.648438 113.675781 94.597656 114.738281 89.476562 112.71875 L 60.960938 141.230469 C 62.980469 146.355469 61.917969 152.40625 57.777344 156.546875 C 53.636719 160.6875 47.582031 161.75 42.460938 159.730469 L 53.226562 148.96875 C 53.878906 148.316406 53.875 147.261719 53.226562 146.609375 L 47.546875 140.933594 C 46.898438 140.28125 45.839844 140.28125 45.191406 140.933594 L 34.421875 151.695312 C 32.40625 146.574219 33.46875 140.519531 37.609375 136.378906 C 41.75 132.238281 47.804688 131.175781 52.921875 133.195312 L 81.4375 104.679688 C 79.417969 99.558594 80.480469 93.503906 84.621094 89.367188 C 88.765625 85.226562 94.820312 84.164062 99.9375 86.179688 L 88.8125 97.304688 C 88.160156 97.957031 88.160156 99.015625 88.8125 99.664062 L 94.488281 105.34375 C 95.140625 105.996094 96.199219 105.996094 96.847656 105.34375 L 107.976562 94.21875 C 109.996094 99.339844 108.933594 105.394531 104.792969 109.53125 Z M 104.792969 109.535156 " fill-opacity="1" fill-rule="nonzero"></path><g clip-path="url(#9c4c5385b2)"><g clip-path="url(#92e3a108aa)"><path fill="#ab080d" d="M 56.933594 56.496094 L 137.9375 56.496094 L 137.9375 137.5 L 56.933594 137.5 Z M 56.933594 56.496094 " fill-opacity="1" fill-rule="nonzero"></path></g></g><path fill="#fffbec" d="M 68.550781 121.554688 L 69.367188 121.734375 L 70.171875 121.929688 L 70.988281 122.121094 L 71.792969 122.324219 C 72.332031 122.457031 72.871094 122.589844 73.402344 122.71875 L 75.023438 123.128906 L 76.628906 123.546875 L 78.238281 123.980469 L 79.03125 124.195312 L 79.835938 124.414062 L 80.207031 124.507812 L 80.207031 124.90625 C 80.21875 125.289062 80.230469 125.671875 80.230469 126.058594 L 80.242188 127.199219 C 80.257812 127.582031 80.257812 127.964844 80.257812 128.351562 L 80.269531 129.492188 C 80.269531 129.875 80.269531 130.257812 80.269531 130.644531 L 80.28125 131.796875 L 80.28125 132.9375 L 80.269531 134.089844 L 80.269531 134.929688 L 79.488281 134.628906 L 78.792969 134.367188 L 78.09375 134.089844 L 76.714844 133.550781 L 75.332031 132.996094 L 74.648438 132.71875 L 73.953125 132.445312 L 72.585938 131.890625 L 71.203125 131.328125 C 70.746094 131.136719 70.292969 130.945312 69.835938 130.75 C 69.378906 130.558594 68.921875 130.367188 68.46875 130.175781 L 68.25 130.089844 L 68.226562 129.886719 L 68.117188 128.949219 L 68.011719 128.015625 L 67.914062 127.089844 C 67.878906 126.777344 67.84375 126.464844 67.820312 126.152344 L 67.722656 125.21875 L 67.625 124.28125 C 67.601562 123.96875 67.566406 123.65625 67.542969 123.34375 L 67.507812 122.875 C 67.496094 122.71875 67.484375 122.5625 67.46875 122.410156 C 67.507812 122.550781 67.542969 122.707031 67.566406 122.863281 L 67.675781 123.320312 C 67.734375 123.632812 67.808594 123.933594 67.867188 124.246094 L 68.058594 125.15625 L 68.25 126.082031 C 68.3125 126.394531 68.371094 126.695312 68.429688 127.007812 L 68.609375 127.929688 L 68.792969 128.855469 L 68.921875 129.550781 C 69.320312 129.695312 69.726562 129.828125 70.136719 129.972656 C 70.605469 130.140625 71.070312 130.296875 71.527344 130.464844 L 72.933594 130.96875 L 74.324219 131.472656 L 75.035156 131.722656 L 75.730469 131.988281 L 77.121094 132.503906 L 78.515625 133.019531 L 79.117188 133.25 L 79.117188 130.644531 C 79.117188 130.257812 79.117188 129.875 79.117188 129.492188 L 79.128906 128.351562 C 79.128906 127.964844 79.140625 127.582031 79.140625 127.199219 L 79.152344 126.058594 C 79.164062 125.792969 79.164062 125.542969 79.164062 125.289062 L 78.753906 125.15625 L 77.964844 124.90625 L 76.378906 124.414062 L 74.792969 123.898438 L 73.210938 123.378906 C 72.691406 123.199219 72.164062 123.03125 71.636719 122.851562 L 70.84375 122.589844 L 70.0625 122.3125 L 69.269531 122.035156 L 68.492188 121.761719 C 68.226562 121.675781 67.976562 121.578125 67.710938 121.484375 C 67.445312 121.386719 67.183594 121.292969 66.929688 121.195312 C 67.195312 121.253906 67.46875 121.316406 67.734375 121.375 C 68.011719 121.4375 68.285156 121.496094 68.550781 121.554688 Z M 68.550781 121.554688 " fill-opacity="1" fill-rule="nonzero"></path><path fill="#fffbec" d="M 92.25 80.917969 C 92.25 80.917969 92.308594 94.125 91.253906 94.375 C 90.183594 94.628906 86.367188 95.0625 86.367188 95.0625 C 86.367188 95.0625 86.871094 87.425781 87.242188 84.855469 C 87.628906 82.300781 88.179688 81.664062 92.25 80.917969 Z M 92.25 80.917969 " fill-opacity="1" fill-rule="nonzero"></path><path fill="#fffbec" d="M 87.855469 133.585938 C 88.539062 133.585938 89.089844 135.167969 89.089844 137.125 C 89.089844 139.09375 88.539062 140.679688 87.855469 140.679688 C 87.160156 140.679688 86.605469 139.09375 86.605469 137.125 C 86.605469 135.167969 87.160156 133.585938 87.855469 133.585938 Z M 87.855469 133.585938 " fill-opacity="1" fill-rule="nonzero"></path><path fill="#fffbec" d="M 96.570312 79.910156 L 102.585938 78.542969 C 103.402344 78.351562 104.183594 78.972656 104.183594 79.828125 L 104.183594 94.773438 C 104.183594 95.515625 103.546875 96.117188 102.800781 96.082031 L 96.785156 95.734375 C 96.089844 95.683594 95.550781 95.109375 95.550781 94.425781 L 95.550781 81.183594 C 95.550781 80.570312 95.96875 80.042969 96.570312 79.910156 Z M 96.570312 79.910156 " fill-opacity="1" fill-rule="nonzero"></path><path fill="#fffbec" d="M 126.726562 139.984375 L 144.652344 138.171875 C 144.976562 138.136719 145.25 138.328125 145.371094 138.589844 C 145.429688 138.757812 145.445312 138.9375 145.371094 139.121094 L 144.78125 140.65625 C 144.507812 141.386719 143.835938 141.90625 143.054688 142.011719 L 129.054688 143.765625 C 128.265625 143.875 127.472656 143.511719 127.027344 142.851562 L 126.054688 141.425781 C 125.933594 141.246094 125.875 141.039062 125.886719 140.835938 C 125.886719 140.800781 125.886719 140.777344 125.898438 140.738281 C 125.972656 140.355469 126.285156 140.019531 126.726562 139.984375 Z M 126.726562 139.984375 " fill-opacity="1" fill-rule="nonzero"></path><path fill="#fffbec" d="M 123.292969 134.953125 C 123.304688 134.808594 123.304688 134.675781 123.316406 134.535156 C 123.316406 134.496094 123.316406 134.460938 123.316406 134.425781 L 123.316406 134.339844 L 123.332031 134.304688 C 123.332031 134.269531 123.332031 134.246094 123.34375 134.195312 C 123.34375 134.148438 123.355469 134.089844 123.367188 134.054688 C 123.449219 133.703125 123.667969 133.394531 123.976562 133.199219 C 124.121094 133.09375 124.300781 133.019531 124.484375 132.984375 C 124.519531 132.984375 124.566406 132.972656 124.613281 132.972656 C 124.652344 132.960938 124.6875 132.960938 124.734375 132.960938 L 124.960938 132.9375 C 127.136719 132.769531 129.308594 132.589844 129.824219 132.550781 C 129.320312 132.636719 127.160156 132.972656 125.011719 133.308594 L 124.769531 133.355469 C 124.734375 133.355469 124.699219 133.355469 124.664062 133.367188 C 124.625 133.382812 124.601562 133.382812 124.566406 133.394531 C 124.445312 133.429688 124.328125 133.488281 124.230469 133.5625 C 124.027344 133.71875 123.90625 133.933594 123.871094 134.160156 C 123.859375 134.195312 123.859375 134.210938 123.859375 134.246094 C 123.859375 134.257812 123.859375 134.304688 123.859375 134.339844 L 123.859375 134.425781 C 123.859375 134.460938 123.859375 134.496094 123.859375 134.535156 C 123.871094 134.675781 123.871094 134.808594 123.871094 134.953125 C 123.882812 135.039062 123.882812 135.121094 123.882812 135.207031 C 123.964844 135.183594 124.039062 135.167969 124.121094 135.15625 L 147.84375 133.03125 C 147.976562 133.019531 148.109375 133.03125 148.230469 133.058594 C 148.242188 132.804688 148.253906 132.539062 148.265625 132.265625 C 148.265625 132.144531 148.277344 132.023438 148.277344 131.902344 C 148.277344 131.867188 148.277344 131.832031 148.277344 131.808594 C 148.277344 131.785156 148.277344 131.761719 148.265625 131.734375 C 148.265625 131.710938 148.265625 131.6875 148.253906 131.664062 C 148.253906 131.640625 148.242188 131.617188 148.230469 131.59375 C 148.167969 131.410156 148.011719 131.230469 147.808594 131.148438 C 147.710938 131.113281 147.605469 131.089844 147.496094 131.089844 L 147.449219 131.089844 L 147.398438 131.101562 L 147.304688 131.101562 C 147.230469 131.101562 147.171875 131.101562 147.101562 131.113281 C 146.835938 131.113281 146.582031 131.125 146.332031 131.136719 C 145.828125 131.160156 145.371094 131.171875 144.964844 131.195312 C 144.171875 131.230469 143.628906 131.242188 143.628906 131.242188 C 143.628906 131.242188 144.160156 131.183594 144.964844 131.074219 C 145.359375 131.027344 145.816406 130.96875 146.308594 130.894531 C 146.558594 130.871094 146.8125 130.835938 147.074219 130.800781 C 147.136719 130.789062 147.207031 130.789062 147.269531 130.777344 L 147.375 130.765625 L 147.425781 130.75 L 147.472656 130.75 C 147.628906 130.738281 147.785156 130.75 147.941406 130.800781 C 148.242188 130.894531 148.503906 131.125 148.636719 131.425781 C 148.660156 131.460938 148.671875 131.496094 148.683594 131.53125 C 148.695312 131.566406 148.707031 131.605469 148.722656 131.652344 C 148.734375 131.6875 148.746094 131.734375 148.746094 131.773438 C 148.746094 131.808594 148.757812 131.84375 148.757812 131.867188 C 148.769531 132.011719 148.769531 132.132812 148.769531 132.265625 C 148.792969 132.683594 148.804688 133.09375 148.828125 133.441406 C 148.984375 133.632812 149.082031 133.886719 149.082031 134.160156 L 149.082031 135.277344 C 149.082031 135.855469 148.648438 136.347656 148.074219 136.40625 L 140.28125 137.257812 C 140.027344 137.28125 139.800781 137.390625 139.621094 137.558594 L 139.261719 137.894531 C 139.082031 138.0625 138.851562 138.171875 138.601562 138.195312 L 134.542969 138.589844 C 134.253906 138.613281 133.980469 138.542969 133.75 138.363281 L 133.582031 138.242188 C 133.355469 138.0625 133.066406 137.980469 132.777344 138.015625 L 124.339844 138.914062 C 123.667969 138.988281 123.089844 138.460938 123.089844 137.785156 L 123.089844 136.296875 C 123.089844 136.070312 123.148438 135.855469 123.269531 135.675781 C 123.28125 135.445312 123.292969 135.207031 123.292969 134.953125 Z M 123.292969 134.953125 " fill-opacity="1" fill-rule="nonzero"></path><g clip-path="url(#716a988b66)"><path fill="#fffbec" d="M 37.84375 69.40625 L 81.011719 55.132812 C 81.347656 54.878906 81.746094 54.722656 82.199219 54.761719 C 82.238281 54.761719 84.78125 54.964844 88.347656 55.265625 C 95.660156 55.851562 107.207031 56.789062 110.089844 57.078125 C 112.8125 57.339844 118.179688 57.941406 123.355469 58.949219 C 126.402344 59.550781 128.949219 60.210938 130.929688 60.917969 C 133.257812 61.746094 134.792969 62.636719 135.625 63.621094 C 138.625 64.015625 140.859375 64.316406 141.492188 64.410156 L 141.757812 64.449219 C 144.195312 64.820312 146.96875 65.242188 148.359375 67.59375 C 149.574219 69.621094 151.207031 74.050781 151.507812 74.878906 C 151.972656 75.433594 152.035156 76.308594 151.660156 77.484375 C 151.492188 77.988281 151.289062 78.457031 151.144531 78.734375 C 152.910156 82.707031 156.453125 98.589844 156.609375 99.273438 C 156.609375 99.285156 156.609375 99.285156 156.609375 99.285156 C 156.609375 99.296875 156.609375 99.3125 156.609375 99.335938 C 156.609375 99.335938 156.621094 99.347656 156.621094 99.359375 C 156.621094 99.371094 156.621094 99.382812 156.621094 99.394531 C 156.621094 99.40625 156.621094 99.40625 156.621094 99.417969 L 156.621094 108.6875 C 157.195312 108.914062 157.785156 109.417969 157.785156 110.128906 L 157.785156 115.578125 C 157.785156 117.640625 156.691406 118.328125 155.5625 118.496094 L 155.5625 119.382812 C 156.199219 119.527344 156.800781 119.863281 157.292969 120.367188 C 157.917969 121.015625 158.277344 121.878906 158.277344 122.71875 L 158.277344 128.988281 C 158.277344 131.519531 157.988281 134.84375 157.761719 137.523438 C 157.628906 139.082031 157.507812 140.429688 157.507812 141.015625 C 157.507812 141.269531 157.351562 141.507812 157.101562 141.59375 C 156.632812 141.773438 156.175781 141.941406 155.71875 142.074219 C 150.894531 143.742188 146.765625 144.234375 143.667969 144.605469 C 142.621094 144.726562 141.722656 144.832031 140.917969 144.964844 C 139.355469 145.230469 135.898438 145.589844 132.238281 145.972656 C 128.480469 146.371094 123.34375 146.910156 122.753906 147.136719 C 121.996094 147.460938 118.335938 147.738281 116.210938 147.882812 C 114.074219 148.015625 111.542969 148.136719 109.910156 148.136719 C 109.453125 148.136719 109.066406 148.125 108.78125 148.097656 C 106.835938 147.96875 105.527344 147.425781 104.972656 147.164062 C 104.277344 147.414062 102.417969 148.027344 100.90625 147.847656 C 99.511719 147.691406 97.328125 146.800781 96.1875 146.324219 C 95.945312 148.652344 93.988281 149.792969 89.90625 149.792969 L 89.894531 149.792969 C 86.1875 149.78125 83.378906 141.722656 83.378906 139.023438 C 83.367188 139.011719 83.339844 139.011719 83.316406 139 L 67.675781 132.109375 C 67.21875 134.042969 66.523438 135.300781 65.742188 135.300781 C 65.585938 135.300781 65.441406 135.253906 65.308594 135.167969 L 63.460938 134.628906 L 63.449219 134.558594 C 62.511719 134.136719 61.746094 131.953125 61.457031 129.035156 C 60.902344 129.105469 59.957031 128.734375 57.855469 127.785156 C 57.386719 127.582031 56.953125 127.390625 56.679688 127.28125 C 56.4375 127.1875 56.28125 126.945312 56.28125 126.683594 C 56.304688 125.828125 56.304688 125.15625 56.292969 124.75 L 47.988281 122.121094 L 47.988281 123.597656 L 48.011719 123.609375 C 48 123.644531 47.988281 123.667969 47.988281 123.703125 L 47.988281 126.574219 C 47.988281 126.742188 47.816406 126.863281 47.664062 126.8125 L 46.460938 126.464844 C 46.28125 126.574219 46.089844 126.632812 45.898438 126.632812 C 45.753906 126.632812 45.609375 126.597656 45.464844 126.539062 L 43.628906 126.140625 L 43.617188 126.082031 C 43.089844 125.914062 42.621094 125.324219 42.261719 124.460938 L 41.109375 124.210938 L 41.09375 124.160156 C 40.148438 123.847656 39.425781 121.832031 39.425781 119.382812 C 39.425781 118.890625 39.449219 118.421875 39.511719 117.976562 L 38.296875 117.976562 L 38.296875 112.816406 L 37.167969 112.71875 C 36.847656 112.695312 36.59375 112.421875 36.59375 112.097656 C 36.59375 112.097656 37.433594 69.429688 37.84375 69.40625 Z M 151.21875 82.828125 C 151.15625 82.613281 151.097656 82.40625 151.027344 82.203125 C 150.605469 80.773438 150.210938 79.632812 149.898438 79.011719 C 149.800781 78.816406 149.8125 78.601562 149.910156 78.421875 C 150.425781 77.484375 150.796875 76.199219 150.59375 75.769531 C 143.644531 73.957031 127.148438 72.527344 117.242188 71.664062 C 113.582031 71.351562 110.6875 71.097656 109.441406 70.929688 C 108.875 70.859375 107.867188 70.894531 106.113281 71.21875 C 106.824219 71.878906 107.265625 72.898438 107.265625 73.90625 C 107.265625 74.183594 107.292969 75.226562 107.339844 76.742188 C 107.363281 77.675781 107.398438 78.804688 107.449219 80.03125 C 107.640625 86.152344 107.925781 94.941406 108 97.269531 L 155.203125 98.757812 C 154.628906 96.203125 152.730469 87.988281 151.21875 82.828125 Z M 108.023438 98.519531 L 108.023438 109.742188 L 110.929688 109.742188 L 110.386719 98.601562 Z M 155.371094 100.019531 L 110.832031 98.613281 L 111.527344 107.511719 L 155.371094 107.511719 Z M 134.542969 110.859375 L 119.066406 111.183594 L 134.363281 111.496094 C 134.300781 111.785156 134.265625 112.082031 134.265625 112.382812 C 134.265625 112.660156 134.289062 112.914062 134.339844 113.164062 L 119.117188 113.476562 L 134.496094 113.789062 C 134.578125 114.027344 134.675781 114.246094 134.78125 114.449219 L 120.363281 114.773438 L 135.273438 115.097656 C 135.695312 115.515625 136.210938 115.769531 136.777344 115.769531 C 137.398438 115.769531 137.988281 115.457031 138.421875 114.929688 L 149.859375 114.605469 L 138.839844 114.28125 C 138.925781 114.136719 138.984375 113.96875 139.042969 113.800781 L 150.316406 113.476562 L 139.210938 113.152344 C 139.25 112.898438 139.273438 112.648438 139.273438 112.382812 C 139.273438 112.082031 139.25 111.785156 139.1875 111.496094 L 151.445312 111.183594 L 139.007812 110.859375 C 138.925781 110.644531 138.816406 110.4375 138.707031 110.246094 L 151.816406 109.921875 L 138.214844 109.597656 L 138.214844 109.636719 C 137.808594 109.238281 137.316406 109.011719 136.777344 109.011719 C 136.246094 109.011719 135.753906 109.226562 135.347656 109.609375 L 117.902344 110.1875 L 134.832031 110.257812 C 134.722656 110.4375 134.625 110.644531 134.542969 110.859375 Z M 105.648438 129.3125 C 105.683594 129.324219 105.707031 129.335938 105.742188 129.347656 C 105.789062 129.359375 105.851562 129.371094 105.910156 129.394531 C 105.972656 129.40625 106.03125 129.417969 106.089844 129.429688 C 106.164062 129.457031 106.222656 129.46875 106.292969 129.492188 C 106.320312 129.492188 106.332031 129.492188 106.355469 129.503906 C 106.367188 129.503906 106.390625 129.503906 106.414062 129.515625 C 106.449219 129.515625 106.488281 129.527344 106.523438 129.527344 C 106.59375 129.539062 106.679688 129.5625 106.761719 129.574219 C 106.847656 129.585938 106.929688 129.597656 107.015625 129.609375 C 107.109375 129.625 107.195312 129.636719 107.292969 129.648438 C 107.386719 129.660156 107.484375 129.671875 107.578125 129.683594 C 107.628906 129.683594 107.675781 129.695312 107.722656 129.695312 C 107.773438 129.695312 107.832031 129.707031 107.878906 129.707031 C 107.976562 129.71875 108.082031 129.71875 108.191406 129.730469 C 108.40625 129.730469 108.625 129.742188 108.851562 129.753906 C 109.308594 129.753906 109.800781 129.753906 110.304688 129.730469 C 110.558594 129.71875 110.808594 129.707031 111.074219 129.695312 C 111.203125 129.695312 111.335938 129.683594 111.46875 129.683594 C 111.601562 129.683594 111.734375 129.671875 111.878906 129.671875 C 112.40625 129.648438 112.945312 129.625 113.484375 129.609375 C 117.53125 129.457031 121.566406 129.3125 122.105469 129.289062 C 122.140625 129.289062 122.164062 129.289062 122.164062 129.289062 C 122.164062 129.289062 117.84375 129.71875 113.523438 130.152344 C 112.980469 130.199219 112.441406 130.257812 111.914062 130.308594 C 111.78125 130.320312 111.648438 130.332031 111.515625 130.34375 C 111.386719 130.367188 111.253906 130.378906 111.121094 130.390625 C 110.867188 130.414062 110.605469 130.441406 110.351562 130.476562 C 109.835938 130.523438 109.34375 130.558594 108.863281 130.582031 C 108.636719 130.597656 108.394531 130.597656 108.167969 130.609375 C 108.058594 130.609375 107.953125 130.609375 107.84375 130.59375 C 107.785156 130.59375 107.734375 130.59375 107.675781 130.59375 C 107.628906 130.59375 107.566406 130.59375 107.519531 130.59375 C 107.410156 130.59375 107.316406 130.582031 107.207031 130.582031 C 107.109375 130.570312 107.015625 130.570312 106.917969 130.558594 C 106.824219 130.546875 106.726562 130.546875 106.632812 130.535156 C 106.546875 130.523438 106.449219 130.511719 106.367188 130.5 C 106.320312 130.5 106.28125 130.488281 106.234375 130.488281 C 106.222656 130.488281 106.199219 130.488281 106.175781 130.476562 C 106.164062 130.476562 106.140625 130.476562 106.113281 130.464844 C 106.042969 130.453125 105.957031 130.441406 105.886719 130.425781 C 105.816406 130.414062 105.742188 130.402344 105.671875 130.390625 C 105.660156 130.390625 105.660156 130.390625 105.648438 130.378906 L 105.648438 141.566406 C 105.683594 141.582031 105.71875 141.59375 105.753906 141.59375 C 105.777344 141.605469 105.816406 141.617188 105.839844 141.617188 C 105.875 141.628906 105.898438 141.628906 105.933594 141.640625 C 105.996094 141.652344 106.066406 141.664062 106.140625 141.6875 C 106.210938 141.699219 106.28125 141.710938 106.367188 141.722656 C 106.402344 141.722656 106.449219 141.738281 106.488281 141.738281 C 106.535156 141.75 106.570312 141.75 106.617188 141.761719 C 106.703125 141.773438 106.789062 141.785156 106.882812 141.796875 C 107.253906 141.832031 107.6875 141.855469 108.15625 141.867188 C 108.625 141.867188 109.140625 141.867188 109.679688 141.855469 C 110.21875 141.832031 110.796875 141.820312 111.398438 141.785156 C 111.695312 141.773438 111.996094 141.761719 112.296875 141.75 C 112.453125 141.738281 112.609375 141.738281 112.765625 141.722656 C 112.921875 141.722656 113.078125 141.710938 113.234375 141.699219 C 113.546875 141.6875 113.859375 141.664062 114.171875 141.652344 C 114.480469 141.628906 114.804688 141.605469 115.117188 141.582031 C 115.753906 141.542969 116.390625 141.496094 117.015625 141.449219 C 117.640625 141.398438 118.25 141.351562 118.839844 141.304688 C 120.027344 141.207031 121.132812 141.113281 122.09375 141.039062 C 123.523438 140.921875 124.589844 140.824219 125.035156 140.789062 C 124.589844 140.835938 123.523438 140.980469 122.105469 141.148438 C 121.15625 141.269531 120.050781 141.398438 118.863281 141.542969 C 118.277344 141.605469 117.664062 141.675781 117.039062 141.75 C 116.414062 141.820312 115.777344 141.890625 115.15625 141.953125 C 114.832031 141.988281 114.519531 142.023438 114.207031 142.058594 C 113.882812 142.085938 113.570312 142.121094 113.257812 142.144531 C 113.101562 142.15625 112.945312 142.179688 112.789062 142.191406 C 112.632812 142.203125 112.488281 142.214844 112.332031 142.230469 C 112.019531 142.253906 111.722656 142.277344 111.421875 142.300781 C 110.832031 142.347656 110.257812 142.398438 109.703125 142.433594 C 109.164062 142.46875 108.636719 142.492188 108.15625 142.492188 C 107.675781 142.503906 107.21875 142.492188 106.824219 142.46875 C 106.726562 142.457031 106.632812 142.457031 106.535156 142.445312 C 106.488281 142.445312 106.449219 142.433594 106.402344 142.433594 C 106.355469 142.433594 106.308594 142.421875 106.269531 142.421875 C 106.1875 142.410156 106.101562 142.398438 106.019531 142.382812 C 105.933594 142.371094 105.863281 142.359375 105.789062 142.347656 C 105.753906 142.335938 105.71875 142.335938 105.683594 142.324219 C 105.671875 142.324219 105.660156 142.324219 105.648438 142.3125 L 105.648438 146.09375 C 106.152344 146.324219 107.265625 146.742188 108.863281 146.851562 C 109.933594 146.933594 112.921875 146.839844 116.113281 146.632812 C 120.101562 146.371094 121.972656 146.105469 122.25 145.984375 C 122.863281 145.722656 125.863281 145.386719 132.117188 144.726562 C 135.585938 144.367188 139.1875 143.992188 140.714844 143.730469 C 141.542969 143.597656 142.464844 143.488281 143.523438 143.355469 C 146.546875 142.996094 150.617188 142.503906 155.324219 140.90625 C 155.636719 140.800781 155.949219 140.691406 156.273438 140.570312 C 156.308594 139.863281 156.390625 138.757812 156.511719 137.414062 C 156.511719 137.390625 156.523438 137.355469 156.523438 137.320312 L 146.078125 138.339844 L 156.585938 136.597656 C 156.800781 134.101562 157.027344 131.207031 157.027344 128.988281 L 157.027344 127.1875 L 150.042969 126.839844 L 157.027344 126.503906 L 157.027344 122.71875 C 157.027344 121.617188 156.007812 120.570312 154.9375 120.570312 C 154.664062 120.570312 154.433594 120.390625 154.351562 120.152344 L 150.664062 120.152344 C 150.90625 119.851562 151.132812 119.453125 151.375 118.9375 C 151.421875 118.855469 151.457031 118.757812 151.492188 118.664062 C 151.601562 118.433594 151.710938 118.183594 151.804688 117.90625 L 154.316406 117.90625 C 154.316406 117.570312 154.589844 117.28125 154.9375 117.28125 C 156.105469 117.28125 156.535156 116.824219 156.535156 115.578125 L 156.535156 110.140625 C 156.488281 110.019531 156.140625 109.816406 155.984375 109.804688 C 155.695312 109.804688 155.445312 109.585938 155.382812 109.3125 C 153.449219 110.210938 152.503906 115.21875 151.625 117.558594 C 151.492188 117.929688 151.363281 118.253906 151.242188 118.542969 C 151.195312 118.640625 151.144531 118.722656 151.109375 118.820312 C 150.546875 120.007812 150.042969 120.523438 149.40625 120.703125 C 149.214844 120.75 149.007812 120.777344 148.792969 120.777344 L 121.289062 120.777344 C 119.96875 120.777344 119.09375 120.066406 118.289062 118.84375 C 117.929688 118.820312 117.375 118.792969 116.703125 118.769531 C 116.101562 118.734375 115.394531 118.710938 114.636719 118.675781 C 114.542969 118.664062 114.445312 118.664062 114.351562 118.664062 L 114.300781 118.664062 L 114.265625 118.652344 L 114.195312 118.652344 L 114.121094 118.640625 L 114.085938 118.640625 L 114.039062 118.625 C 113.976562 118.613281 113.917969 118.613281 113.859375 118.601562 L 113.808594 118.589844 L 113.773438 118.578125 L 113.691406 118.554688 C 113.570312 118.53125 113.472656 118.484375 113.367188 118.433594 C 113.148438 118.339844 112.957031 118.207031 112.777344 118.0625 C 112.609375 117.90625 112.453125 117.738281 112.320312 117.558594 C 112.070312 117.199219 111.902344 116.789062 111.78125 116.394531 C 111.769531 116.347656 111.757812 116.296875 111.746094 116.25 C 111.734375 116.203125 111.722656 116.152344 111.695312 116.105469 C 111.671875 116.007812 111.648438 115.914062 111.625 115.816406 C 111.601562 115.722656 111.578125 115.625 111.566406 115.53125 C 111.542969 115.433594 111.515625 115.335938 111.492188 115.253906 C 111.410156 114.882812 111.335938 114.519531 111.277344 114.171875 C 111.203125 113.835938 111.144531 113.511719 111.097656 113.210938 C 111.0625 113.066406 111.035156 112.925781 111.011719 112.78125 C 111 112.648438 110.976562 112.515625 110.953125 112.394531 C 110.941406 112.277344 110.929688 112.15625 110.917969 112.058594 C 110.894531 111.953125 110.882812 111.855469 110.882812 111.761719 C 110.867188 111.722656 110.867188 111.675781 110.867188 111.640625 C 110.855469 111.605469 110.855469 111.554688 110.855469 111.53125 C 110.855469 111.460938 110.84375 111.398438 110.84375 111.351562 C 110.84375 111.253906 110.84375 111.207031 110.84375 111.207031 C 110.84375 111.207031 110.855469 111.253906 110.855469 111.351562 C 110.867188 111.398438 110.878906 111.460938 110.878906 111.519531 C 110.894531 111.554688 110.894531 111.589844 110.90625 111.628906 C 110.90625 111.675781 110.917969 111.710938 110.929688 111.761719 C 110.941406 111.84375 110.964844 111.941406 110.988281 112.035156 C 111.011719 112.144531 111.035156 112.253906 111.0625 112.371094 C 111.097656 112.492188 111.121094 112.625 111.15625 112.757812 C 111.191406 112.886719 111.230469 113.03125 111.265625 113.175781 C 111.347656 113.464844 111.433594 113.777344 111.527344 114.113281 C 111.636719 114.449219 111.734375 114.796875 111.851562 115.144531 C 111.878906 115.242188 111.914062 115.324219 111.9375 115.421875 C 111.972656 115.515625 111.996094 115.601562 112.035156 115.699219 C 112.070312 115.78125 112.09375 115.878906 112.128906 115.960938 C 112.140625 116.007812 112.164062 116.058594 112.175781 116.105469 C 112.203125 116.140625 112.214844 116.191406 112.238281 116.238281 C 112.371094 116.585938 112.550781 116.921875 112.789062 117.199219 C 112.910156 117.34375 113.042969 117.460938 113.171875 117.558594 C 113.316406 117.667969 113.472656 117.738281 113.617188 117.796875 C 113.703125 117.824219 113.773438 117.847656 113.859375 117.859375 L 113.917969 117.871094 L 113.976562 117.871094 C 114.015625 117.882812 114.050781 117.882812 114.085938 117.882812 C 114.097656 117.882812 114.109375 117.882812 114.109375 117.882812 L 114.351562 117.882812 C 114.445312 117.882812 114.542969 117.882812 114.636719 117.871094 C 115.394531 117.835938 116.101562 117.808594 116.703125 117.773438 C 117.050781 117.761719 117.363281 117.75 117.640625 117.738281 C 117.136719 116.789062 116.621094 115.660156 115.996094 114.390625 C 114.109375 110.558594 113.652344 110.453125 111.527344 110.453125 L 108.023438 110.453125 C 108.023438 110.800781 107.746094 111.085938 107.398438 111.085938 L 106.605469 111.085938 L 106.605469 119.527344 L 118.40625 119.527344 C 119.175781 120.511719 120.050781 121.0625 121.289062 121.0625 L 148.792969 121.0625 C 149.042969 121.0625 149.261719 121.039062 149.464844 120.96875 L 149.476562 120.96875 C 149.835938 120.882812 150.148438 120.691406 150.425781 120.414062 C 150.90625 121.425781 150.832031 123.40625 150.066406 124.785156 C 149.152344 126.453125 148.097656 127.667969 147.183594 127.667969 C 144.410156 127.667969 125.503906 129.289062 123.460938 129.289062 C 122.933594 129.058594 122.476562 128.601562 122.070312 128.050781 C 121.15625 126.851562 120.484375 125.144531 119.921875 124.195312 C 119.082031 122.816406 117.410156 122.359375 116.535156 120.488281 L 106.605469 120.488281 L 106.605469 123.152344 C 106.605469 123.5 106.332031 123.777344 105.984375 123.777344 C 105.972656 123.777344 105.648438 123.789062 105.648438 124.449219 Z M 95.191406 131.015625 C 95.753906 134.171875 95.984375 137.234375 96.007812 139.046875 C 96.019531 139.71875 96.019531 140.355469 96.03125 140.96875 C 96.042969 142.660156 96.066406 144.402344 96.1875 144.953125 C 96.222656 144.964844 96.269531 144.988281 96.320312 145.015625 C 97.148438 145.375 99.667969 146.453125 101.046875 146.609375 C 102.1875 146.742188 103.691406 146.285156 104.398438 146.046875 L 104.398438 137.257812 L 98.347656 134.703125 C 98.203125 134.640625 98.082031 134.519531 98.023438 134.378906 L 95.5625 128.796875 C 95.550781 128.78125 95.550781 128.757812 95.539062 128.746094 L 95.539062 128.734375 C 95.539062 128.722656 95.527344 128.710938 95.527344 128.699219 C 95.527344 128.6875 95.527344 128.675781 95.515625 128.675781 L 94.757812 128.855469 C 94.925781 129.625 95.070312 130.355469 95.191406 131.015625 Z M 96.75 127.917969 L 104.398438 127.917969 L 104.398438 125.039062 L 99.199219 125.039062 C 98.851562 125.039062 98.574219 124.761719 98.574219 124.414062 C 98.574219 120.164062 97.0625 115.828125 93.832031 110.800781 L 91.203125 110.738281 C 91.433594 110.945312 91.648438 111.171875 91.851562 111.421875 C 92.859375 112.601562 93.761719 114.246094 94.542969 116.320312 C 95.839844 119.765625 96.667969 124.148438 96.75 127.917969 Z M 90.738281 144.664062 C 91.648438 144.664062 92.992188 142 92.992188 137.992188 C 92.992188 131.148438 90.015625 129.179688 89.667969 129.179688 C 89.332031 129.179688 87.53125 129.492188 87.410156 131.867188 C 87.554688 131.785156 87.699219 131.75 87.855469 131.75 C 88.429688 131.75 88.960938 132.335938 89.332031 133.40625 C 89.679688 134.402344 89.871094 135.722656 89.871094 137.125 C 89.871094 138.542969 89.679688 139.863281 89.332031 140.859375 C 89.066406 141.605469 88.742188 142.109375 88.371094 142.347656 C 88.539062 143.523438 89.871094 144.664062 90.738281 144.664062 Z M 87.855469 142.300781 C 88.851562 142.300781 89.667969 139.996094 89.667969 137.125 C 89.667969 134.269531 88.851562 131.964844 87.855469 131.964844 C 86.847656 131.964844 86.03125 134.269531 86.03125 137.125 C 86.03125 139.996094 86.847656 142.300781 87.855469 142.300781 Z M 87.601562 109.40625 C 87.699219 109.335938 87.808594 109.296875 87.9375 109.296875 C 88.289062 109.296875 88.625 109.347656 88.960938 109.429688 L 93.859375 109.550781 L 105.984375 109.828125 L 106.773438 109.828125 L 106.773438 97.882812 C 106.738281 96.824219 106.019531 75.335938 106.019531 73.90625 C 106.019531 73.308594 105.753906 72.492188 105.140625 72.023438 C 104.722656 71.699219 104.207031 71.601562 103.628906 71.757812 C 103.605469 71.757812 103.582031 71.757812 103.570312 71.769531 C 101.660156 72.226562 99.199219 72.921875 96.03125 73.90625 C 91.578125 75.324219 87.460938 76.789062 86.222656 77.246094 C 85.875 81.9375 85.347656 89.671875 84.878906 96.441406 C 84.492188 102.359375 84.144531 107.546875 84.039062 109.324219 Z M 83.640625 96.371094 C 84.3125 86.441406 85.140625 74.4375 85.335938 72.921875 L 85.335938 72.875 C 85.515625 71.542969 85.660156 70.402344 85.96875 69.429688 C 86.355469 68.265625 86.941406 67.519531 87.808594 67.101562 C 88.707031 66.65625 93.054688 64.855469 97.015625 63.246094 C 95.203125 63.476562 93.066406 63.726562 90.929688 63.957031 C 87.675781 64.304688 85.046875 64.53125 83.101562 64.640625 C 83.003906 64.640625 82.910156 64.652344 82.824219 64.652344 C 82.164062 64.6875 81.613281 64.699219 81.15625 64.710938 C 80.316406 64.722656 79.644531 65.394531 79.632812 66.238281 L 78.851562 115.265625 C 78.851562 115.289062 78.851562 115.3125 78.851562 115.335938 C 78.851562 115.375 78.492188 118.003906 79.75 119.453125 C 80.207031 119.984375 80.808594 120.285156 81.578125 120.390625 L 81.578125 109.921875 C 81.578125 109.585938 81.851562 109.296875 82.199219 109.296875 L 82.777344 109.296875 C 82.898438 107.546875 83.246094 102.324219 83.640625 96.371094 Z M 66.4375 122.324219 C 66.773438 124.269531 66.917969 126.441406 66.882812 127.582031 C 66.882812 127.785156 66.871094 127.980469 66.859375 128.160156 C 66.796875 129.816406 66.785156 130.308594 68.023438 130.882812 L 82.945312 137.460938 L 82.945312 125.242188 C 82.945312 125.21875 82.945312 125.195312 82.957031 125.167969 C 83.015625 124.652344 83.113281 124.160156 83.234375 123.691406 C 79.859375 122.972656 68.910156 120.644531 65.875 119.933594 C 66.089844 120.609375 66.269531 121.398438 66.4375 122.324219 Z M 62.378906 128.121094 C 62.417969 128.640625 62.476562 129.15625 62.574219 129.660156 C 62.597656 129.792969 62.621094 129.910156 62.644531 130.042969 C 62.667969 130.164062 62.691406 130.285156 62.714844 130.414062 C 62.777344 130.65625 62.835938 130.894531 62.910156 131.136719 C 63.054688 131.605469 63.222656 132.058594 63.4375 132.46875 C 63.546875 132.671875 63.652344 132.863281 63.785156 133.042969 C 63.917969 133.226562 64.074219 133.394531 64.242188 133.523438 C 64.410156 133.65625 64.613281 133.765625 64.828125 133.789062 C 64.851562 133.789062 64.890625 133.789062 64.914062 133.789062 L 64.996094 133.789062 C 65.046875 133.777344 65.082031 133.777344 65.140625 133.765625 C 65.164062 133.753906 65.191406 133.753906 65.214844 133.742188 C 65.238281 133.742188 65.261719 133.730469 65.273438 133.71875 C 65.296875 133.71875 65.320312 133.703125 65.34375 133.691406 C 65.359375 133.679688 65.382812 133.667969 65.40625 133.65625 C 65.5625 133.574219 65.667969 133.464844 65.765625 133.355469 C 65.863281 133.25 65.933594 133.140625 65.980469 133.03125 C 66.101562 132.839844 66.175781 132.671875 66.210938 132.566406 C 66.234375 132.503906 66.257812 132.457031 66.257812 132.433594 C 66.234375 132.457031 66.210938 132.492188 66.175781 132.539062 C 66.113281 132.636719 66.019531 132.78125 65.875 132.949219 C 65.800781 133.03125 65.71875 133.128906 65.621094 133.199219 C 65.527344 133.285156 65.40625 133.367188 65.285156 133.417969 C 65.25 133.429688 65.214844 133.441406 65.191406 133.441406 C 65.164062 133.453125 65.152344 133.453125 65.140625 133.453125 C 65.117188 133.453125 65.105469 133.453125 65.09375 133.464844 C 65.070312 133.464844 65.023438 133.464844 64.984375 133.464844 L 64.972656 133.464844 L 64.960938 133.453125 L 64.9375 133.453125 C 64.925781 133.453125 64.902344 133.453125 64.890625 133.441406 C 64.757812 133.417969 64.625 133.332031 64.503906 133.210938 C 64.386719 133.09375 64.277344 132.949219 64.179688 132.78125 C 64.085938 132.625 64 132.433594 63.917969 132.242188 C 63.761719 131.855469 63.628906 131.425781 63.519531 130.96875 C 63.460938 130.738281 63.414062 130.511719 63.363281 130.273438 C 63.351562 130.152344 63.328125 130.03125 63.304688 129.910156 C 63.28125 129.792969 63.269531 129.671875 63.246094 129.550781 C 63.171875 129.058594 63.125 128.566406 63.089844 128.0625 C 63.039062 127.558594 63.015625 127.054688 63.003906 126.5625 C 63.003906 126.503906 63.003906 126.441406 63.003906 126.382812 C 63.003906 126.308594 63.003906 126.25 63.003906 126.191406 C 63.003906 126.070312 62.992188 125.949219 62.992188 125.828125 C 63.003906 125.578125 63.003906 125.335938 63.003906 125.109375 C 63.003906 124.871094 63.027344 124.640625 63.027344 124.414062 C 63.039062 124.183594 63.066406 123.957031 63.078125 123.742188 C 63.089844 123.523438 63.113281 123.320312 63.136719 123.117188 C 63.160156 122.914062 63.183594 122.707031 63.207031 122.527344 C 63.257812 122.144531 63.316406 121.808594 63.375 121.507812 C 63.390625 121.425781 63.414062 121.351562 63.425781 121.28125 C 63.4375 121.207031 63.460938 121.148438 63.472656 121.074219 C 63.484375 121.015625 63.496094 120.957031 63.519531 120.894531 C 63.53125 120.835938 63.542969 120.777344 63.570312 120.726562 C 63.59375 120.621094 63.628906 120.523438 63.652344 120.4375 C 63.664062 120.402344 63.675781 120.355469 63.6875 120.320312 C 63.699219 120.296875 63.714844 120.257812 63.726562 120.234375 C 63.761719 120.117188 63.785156 120.054688 63.785156 120.054688 C 63.785156 120.054688 63.75 120.117188 63.6875 120.210938 C 63.664062 120.234375 63.652344 120.269531 63.628906 120.296875 C 63.617188 120.332031 63.59375 120.367188 63.570312 120.402344 C 63.542969 120.4375 63.53125 120.488281 63.496094 120.535156 C 63.472656 120.570312 63.460938 120.621094 63.4375 120.679688 C 63.414062 120.726562 63.375 120.777344 63.351562 120.835938 C 63.328125 120.894531 63.304688 120.957031 63.28125 121.015625 C 63.222656 121.148438 63.171875 121.28125 63.113281 121.425781 C 63.089844 121.507812 63.066406 121.578125 63.039062 121.664062 C 63.003906 121.734375 62.980469 121.820312 62.957031 121.902344 C 62.910156 122.070312 62.847656 122.253906 62.800781 122.445312 C 62.753906 122.636719 62.714844 122.828125 62.667969 123.03125 C 62.621094 123.25 62.585938 123.453125 62.546875 123.679688 C 62.511719 123.898438 62.488281 124.125 62.453125 124.351562 C 62.429688 124.59375 62.40625 124.832031 62.378906 125.074219 C 62.34375 125.554688 62.320312 126.058594 62.320312 126.574219 C 62.320312 127.078125 62.332031 127.59375 62.378906 128.121094 Z M 48.539062 120.980469 L 57.097656 123.679688 C 57.351562 123.765625 57.53125 123.992188 57.542969 124.257812 C 57.542969 124.292969 57.566406 125.074219 57.542969 126.285156 C 57.78125 126.394531 58.058594 126.515625 58.359375 126.644531 C 58.371094 126.65625 58.394531 126.65625 58.40625 126.671875 C 58.417969 126.671875 58.429688 126.683594 58.441406 126.695312 C 58.609375 126.765625 58.789062 126.851562 58.996094 126.933594 L 58.996094 126.632812 C 58.910156 126.671875 58.816406 126.707031 58.707031 126.707031 C 58.621094 126.707031 58.539062 126.683594 58.46875 126.644531 C 58.441406 126.644531 58.429688 126.632812 58.417969 126.632812 C 58.214844 126.527344 58.082031 126.320312 58.082031 126.070312 L 58.082031 117.726562 L 57.578125 117.847656 L 57.578125 119.945312 C 57.578125 120.140625 57.496094 120.320312 57.339844 120.4375 C 57.195312 120.546875 56.988281 120.59375 56.808594 120.546875 L 48.480469 118.542969 C 48.394531 119.40625 48.371094 120.425781 48.539062 120.980469 Z M 44.398438 125.3125 C 44.578125 125.410156 44.78125 125.492188 44.996094 125.503906 C 45.019531 125.503906 45.046875 125.503906 45.070312 125.519531 L 45.117188 125.503906 L 45.164062 125.503906 C 45.203125 125.503906 45.238281 125.503906 45.296875 125.492188 C 45.320312 125.492188 45.34375 125.480469 45.371094 125.480469 C 45.394531 125.46875 45.417969 125.46875 45.441406 125.457031 C 45.464844 125.457031 45.476562 125.445312 45.5 125.433594 C 45.523438 125.433594 45.550781 125.421875 45.5625 125.421875 C 45.609375 125.398438 45.644531 125.375 45.695312 125.347656 L 45.695312 125.132812 C 45.609375 125.167969 45.539062 125.207031 45.441406 125.230469 C 45.417969 125.242188 45.382812 125.253906 45.34375 125.253906 C 45.332031 125.253906 45.320312 125.265625 45.296875 125.265625 C 45.285156 125.265625 45.273438 125.265625 45.25 125.265625 C 45.238281 125.265625 45.175781 125.265625 45.140625 125.265625 L 45.105469 125.265625 C 45.082031 125.265625 45.070312 125.253906 45.046875 125.253906 C 44.914062 125.230469 44.792969 125.167969 44.671875 125.085938 C 44.625 125.050781 44.589844 125.023438 44.554688 124.988281 L 43.976562 124.988281 C 44.109375 125.109375 44.242188 125.230469 44.398438 125.3125 Z M 40.675781 122.15625 C 40.785156 122.433594 40.914062 122.695312 41.082031 122.9375 C 41.15625 123.03125 41.214844 123.117188 41.3125 123.199219 L 41.3125 122.480469 C 41.261719 122.371094 41.214844 122.265625 41.179688 122.144531 C 41.144531 122.121094 41.09375 122.109375 41.058594 122.109375 L 40.652344 122.109375 C 40.664062 122.121094 40.664062 122.132812 40.675781 122.15625 Z M 40.675781 122.15625 " fill-opacity="1" fill-rule="nonzero"></path></g><path fill="#fffbec" d="M 116.222656 106.417969 C 116.269531 106.417969 116.332031 106.40625 116.402344 106.394531 C 116.667969 106.359375 117.050781 106.296875 117.542969 106.25 C 118.046875 106.1875 118.648438 106.128906 119.34375 106.070312 C 119.679688 106.035156 120.050781 106.007812 120.4375 105.972656 C 120.832031 105.9375 121.242188 105.914062 121.660156 105.878906 C 122.09375 105.839844 122.539062 105.804688 122.992188 105.78125 C 123.449219 105.746094 123.929688 105.710938 124.421875 105.683594 C 125.394531 105.613281 126.425781 105.554688 127.496094 105.503906 C 128.035156 105.46875 128.578125 105.445312 129.128906 105.421875 C 129.667969 105.398438 130.234375 105.375 130.785156 105.359375 C 131.914062 105.3125 133.054688 105.277344 134.195312 105.265625 L 134.625 105.265625 C 134.78125 105.265625 134.914062 105.277344 135.058594 105.277344 C 135.203125 105.277344 135.347656 105.289062 135.492188 105.289062 C 135.636719 105.289062 135.765625 105.289062 135.910156 105.300781 C 136.476562 105.300781 137.039062 105.3125 137.605469 105.324219 C 138.167969 105.324219 138.71875 105.335938 139.273438 105.347656 C 139.824219 105.359375 140.367188 105.375 140.894531 105.386719 C 141.433594 105.398438 141.960938 105.410156 142.476562 105.433594 C 142.980469 105.445312 143.488281 105.46875 143.980469 105.492188 C 144.472656 105.515625 144.953125 105.542969 145.40625 105.566406 C 145.863281 105.589844 146.308594 105.613281 146.738281 105.636719 C 146.957031 105.648438 147.160156 105.671875 147.363281 105.683594 C 147.566406 105.695312 147.773438 105.710938 147.964844 105.734375 C 148.347656 105.757812 148.722656 105.792969 149.070312 105.816406 C 149.765625 105.878906 150.367188 105.9375 150.859375 105.984375 C 151.109375 106.007812 151.324219 106.046875 151.519531 106.070312 C 151.710938 106.09375 151.878906 106.105469 152.011719 106.117188 C 152.273438 106.152344 152.417969 106.175781 152.417969 106.175781 C 152.417969 106.175781 152.273438 106.164062 152.011719 106.164062 C 151.746094 106.152344 151.351562 106.140625 150.84375 106.128906 C 150.351562 106.117188 149.753906 106.105469 149.058594 106.09375 C 148.707031 106.082031 148.335938 106.070312 147.953125 106.070312 C 147.554688 106.058594 147.148438 106.058594 146.726562 106.046875 C 145.875 106.035156 144.9375 106.035156 143.964844 106.019531 C 142.996094 106.007812 141.960938 106.007812 140.894531 106.007812 C 139.824219 106.007812 138.71875 106.007812 137.59375 106.007812 C 137.316406 106.007812 137.039062 106.007812 136.75 106.007812 C 136.609375 106.007812 136.476562 106.007812 136.332031 106.007812 C 136.1875 105.996094 136.042969 105.996094 135.898438 105.996094 C 135.753906 105.996094 135.609375 105.996094 135.480469 105.996094 C 135.335938 105.984375 135.191406 105.984375 135.046875 105.984375 C 134.902344 105.984375 134.757812 105.972656 134.625 105.972656 L 134.207031 105.972656 C 133.066406 105.984375 131.925781 106.019531 130.808594 106.046875 C 129.691406 106.070312 128.589844 106.105469 127.519531 106.128906 C 126.453125 106.164062 125.417969 106.1875 124.445312 106.214844 C 123.460938 106.238281 122.539062 106.261719 121.683594 106.285156 C 120.832031 106.296875 120.050781 106.320312 119.355469 106.34375 C 118.660156 106.359375 118.058594 106.371094 117.554688 106.394531 C 117.0625 106.40625 116.667969 106.417969 116.402344 106.429688 C 116.269531 106.441406 116.164062 106.441406 116.101562 106.453125 C 116.042969 106.464844 116.007812 106.464844 115.996094 106.464844 C 116.007812 106.464844 116.03125 106.453125 116.089844 106.441406 C 116.128906 106.441406 116.175781 106.429688 116.222656 106.417969 Z M 116.222656 106.417969 " fill-opacity="1" fill-rule="nonzero"></path><path fill="#fffbec" d="M 107.796875 81.277344 L 107.757812 80.378906 L 107.746094 80.019531 L 107.734375 79.476562 L 107.890625 81.265625 L 108.058594 83.066406 L 108.371094 86.65625 L 108.695312 90.234375 C 108.757812 90.835938 108.804688 91.433594 108.863281 92.023438 L 108.910156 92.46875 C 108.910156 92.539062 108.925781 92.613281 108.9375 92.683594 L 108.949219 92.742188 L 108.949219 92.78125 C 108.960938 92.804688 108.960938 92.828125 108.972656 92.851562 C 109.007812 92.949219 109.066406 93.042969 109.152344 93.152344 C 109.222656 93.246094 109.320312 93.34375 109.429688 93.429688 C 109.835938 93.777344 110.351562 94.015625 110.867188 94.113281 C 110.941406 94.125 111 94.136719 111.0625 94.136719 C 111.097656 94.136719 111.121094 94.136719 111.15625 94.136719 C 111.167969 94.136719 111.167969 94.148438 111.179688 94.148438 L 112.609375 94.148438 L 116.210938 94.160156 L 119.8125 94.183594 L 123.414062 94.21875 L 127.015625 94.257812 L 134.21875 94.351562 L 137.820312 94.402344 L 145.023438 94.519531 L 151.480469 94.652344 C 151.46875 94.59375 151.457031 94.53125 151.457031 94.472656 C 151.410156 94.171875 151.363281 93.871094 151.324219 93.570312 C 151.277344 93.261719 151.21875 92.960938 151.167969 92.660156 L 151.015625 91.746094 L 150.859375 90.835938 L 150.675781 89.921875 L 150.507812 89.011719 C 150.449219 88.710938 150.390625 88.410156 150.316406 88.109375 C 150.257812 87.796875 150.199219 87.496094 150.136719 87.199219 C 150.066406 86.898438 150.003906 86.597656 149.933594 86.296875 C 149.875 85.996094 149.800781 85.695312 149.730469 85.398438 L 149.621094 84.941406 C 149.585938 84.796875 149.550781 84.652344 149.511719 84.496094 C 149.441406 84.195312 149.367188 83.90625 149.285156 83.609375 C 149.199219 83.308594 149.128906 83.019531 149.03125 82.730469 C 148.949219 82.429688 148.863281 82.144531 148.769531 81.867188 L 148.695312 81.652344 L 148.613281 81.445312 C 148.613281 81.421875 148.601562 81.398438 148.601562 81.375 L 146.34375 81.253906 L 143.703125 81.109375 L 138.421875 80.8125 L 133.125 80.5 L 122.5625 79.828125 L 119.921875 79.644531 L 117.28125 79.464844 L 114.636719 79.285156 L 113.316406 79.179688 C 112.886719 79.152344 112.441406 79.117188 111.996094 79.082031 L 110.6875 78.972656 C 110.460938 78.960938 110.246094 78.9375 110.015625 78.914062 C 109.800781 78.890625 109.574219 78.867188 109.355469 78.792969 C 109.25 78.757812 109.140625 78.722656 109.03125 78.648438 C 108.9375 78.589844 108.851562 78.503906 108.78125 78.421875 C 108.707031 78.324219 108.648438 78.230469 108.589844 78.132812 C 108.527344 78.050781 108.480469 77.953125 108.417969 77.859375 C 108.3125 77.664062 108.203125 77.472656 108.082031 77.28125 C 107.976562 77.101562 107.855469 76.910156 107.734375 76.730469 C 107.867188 76.898438 107.988281 77.078125 108.121094 77.257812 C 108.238281 77.449219 108.371094 77.628906 108.492188 77.808594 C 108.550781 77.90625 108.613281 78 108.671875 78.085938 C 108.730469 78.183594 108.792969 78.265625 108.863281 78.351562 C 108.9375 78.421875 109.019531 78.492188 109.105469 78.542969 C 109.1875 78.601562 109.296875 78.625 109.390625 78.648438 C 109.597656 78.710938 109.824219 78.722656 110.039062 78.734375 C 110.257812 78.746094 110.472656 78.757812 110.699219 78.757812 L 112.019531 78.804688 L 117.304688 78.972656 L 122.597656 79.140625 L 127.890625 79.335938 L 133.175781 79.527344 L 143.761719 79.957031 L 149.046875 80.1875 L 149.429688 80.199219 L 149.574219 80.546875 C 149.632812 80.703125 149.707031 80.859375 149.765625 81.003906 L 149.847656 81.230469 L 149.921875 81.460938 C 150.03125 81.769531 150.125 82.070312 150.222656 82.371094 C 150.292969 82.597656 150.351562 82.828125 150.425781 83.054688 C 150.449219 83.128906 150.460938 83.210938 150.484375 83.285156 C 150.570312 83.582031 150.652344 83.882812 150.726562 84.195312 C 150.761719 84.339844 150.796875 84.496094 150.84375 84.652344 L 150.953125 85.109375 C 151.027344 85.410156 151.097656 85.707031 151.167969 86.019531 C 151.242188 86.320312 151.300781 86.621094 151.375 86.933594 C 151.433594 87.234375 151.507812 87.546875 151.566406 87.847656 C 151.832031 89.070312 152.058594 90.292969 152.285156 91.519531 L 152.441406 92.445312 C 152.492188 92.753906 152.539062 93.054688 152.597656 93.367188 C 152.644531 93.679688 152.695312 93.980469 152.730469 94.304688 C 152.777344 94.617188 152.816406 94.917969 152.851562 95.253906 L 152.921875 95.972656 L 152.191406 95.960938 L 145 95.804688 L 137.796875 95.636719 L 134.195312 95.539062 L 130.59375 95.445312 L 126.992188 95.347656 L 123.390625 95.242188 L 116.199219 95.011719 L 112.597656 94.894531 L 111.695312 94.867188 L 111.242188 94.855469 L 111.191406 94.84375 L 111.132812 94.84375 C 111.085938 94.84375 111.035156 94.84375 110.988281 94.832031 C 110.90625 94.820312 110.820312 94.808594 110.75 94.796875 C 110.414062 94.726562 110.101562 94.617188 109.8125 94.460938 C 109.523438 94.304688 109.25 94.125 108.996094 93.894531 C 108.875 93.789062 108.757812 93.667969 108.660156 93.523438 C 108.550781 93.390625 108.457031 93.222656 108.394531 93.042969 C 108.382812 92.996094 108.371094 92.949219 108.359375 92.898438 L 108.347656 92.863281 C 108.347656 92.851562 108.347656 92.839844 108.347656 92.839844 L 108.347656 92.769531 C 108.335938 92.683594 108.324219 92.613281 108.324219 92.539062 L 108.289062 92.070312 C 108.25 91.472656 108.214844 90.871094 108.191406 90.269531 C 108.132812 89.082031 108.070312 87.882812 108.011719 86.679688 C 107.964844 85.480469 107.914062 84.28125 107.867188 83.078125 Z M 107.796875 81.277344 " fill-opacity="1" fill-rule="nonzero"></path></svg><style>@media (prefers-color-scheme: light) { :root { filter: none; } }
@media (prefers-color-scheme: dark) { :root { filter: none; } }
</style></svg>