<?xml version="1.0" encoding="UTF-8"?>
<svg version="1.1" xmlns="http://www.w3.org/2000/svg" width="1024" height="1024">
<path d="M0 0 C337.92 0 675.84 0 1024 0 C1024 337.92 1024 675.84 1024 1024 C686.08 1024 348.16 1024 0 1024 C0 686.08 0 348.16 0 0 Z " fill="transparent" transform="translate(0,0)"/>
<path d="M0 0 C50.46487087 23.9637655 99.75245031 60.73793836 126 111 C126.32097656 111.60924316 126.64195312 112.21848633 126.97265625 112.84619141 C146.14223556 149.77169381 145.09144176 192.0796904 136.67700195 231.79443359 C134.00158379 242.98629673 134.00158379 242.98629673 136.625 253.625 C139.67507271 255.39083157 141.50492556 255.2545795 145 255 C169.54887056 245.90924637 188.77741936 219.93691512 199.3515625 197.01171875 C208.89187556 175.61095829 215.77508394 153.24827546 219 130 C219.66 130 220.32 130 221 130 C223.76141875 132.96971542 226.21750309 136.1926467 228.72363281 139.37939453 C229.94966819 140.93609362 231.18940316 142.48197339 232.4296875 144.02734375 C260.71668608 179.86055441 278.02711923 221.74620119 278.25 267.6875 C278.2809375 269.25274414 278.2809375 269.25274414 278.3125 270.84960938 C278.38894175 286.62527597 274.20853996 301.90097008 270.47949219 317.125 C265.22130923 338.21892153 265.22130923 338.21892153 263.625 359.8125 C263.63515137 360.69776367 263.64530273 361.58302734 263.65576172 362.49511719 C263.90800078 373.16737136 265.59467984 382.86866806 273 391 C281.30160541 398.12906227 289.97408923 400.59221219 300.79296875 400.27734375 C309.79710782 399.49866668 316.62383284 396.48283166 323 390 C328.54869312 383.0367191 331.73849439 375.55735539 334 367 C334.33837891 365.74509766 334.33837891 365.74509766 334.68359375 364.46484375 C339.62394962 342.42063514 334.73383068 317.42182427 329 296 C347.55411646 308.0993365 365.12103185 324.93678484 378.84375 342.2890625 C381.05606347 345.0704856 383.36608462 347.74676854 385.6875 350.4375 C397.41541483 364.53285105 407.20969773 379.94141405 416 396 C416.4547168 396.82048828 416.90943359 397.64097656 417.37792969 398.48632812 C431.86736552 424.74779685 442.56044561 452.70144594 449 482 C449.18159668 482.81919922 449.36319336 483.63839844 449.55029297 484.48242188 C464.45582249 553.6009135 455.70428364 629.59441232 422 692 C421.608125 692.73299316 421.21625 693.46598633 420.8125 694.22119141 C409.5379107 715.23332639 395.85688791 734.21485567 380 752 C379.30535645 752.78141357 379.30535645 752.78141357 378.59667969 753.57861328 C372.2047188 760.72959137 365.51671937 767.57919136 358.75 774.375 C358.00540527 775.12426758 357.26081055 775.87353516 356.49365234 776.64550781 C351.82376906 781.30189733 347.00774201 785.7112222 342 790 C340.70365422 791.12801867 339.40807499 792.25691891 338.11328125 793.38671875 C336.84652341 794.48717402 335.57959704 795.58743532 334.3125 796.6875 C333.67505859 797.24244141 333.03761719 797.79738281 332.38085938 798.36914062 C331.75630859 798.91119141 331.13175781 799.45324219 330.48828125 800.01171875 C329.93696533 800.49084717 329.38564941 800.96997559 328.81762695 801.46362305 C327 803 327 803 324.31958008 804.64892578 C321.54559502 807.46057467 321.40936507 809.29326933 321.35800171 813.16850281 C321.37134552 813.97270157 321.38468933 814.77690033 321.3984375 815.60546875 C321.39043121 816.44410965 321.38242493 817.28275055 321.37417603 818.14680481 C321.35111397 820.82752752 321.36054974 823.5067368 321.375 826.1875 C321.37886554 828.85012937 321.37522631 831.51208156 321.35440063 834.17463684 C321.34245225 835.82863941 321.34474455 837.48283211 321.36410522 839.13676453 C321.32650474 847.02794667 319.56244882 854.55088826 313.89308023 860.32218707 C305.51186149 867.75035464 296.11325256 867.71488806 285.48937988 867.63491821 C283.81732349 867.6406856 282.14527345 867.64863085 280.47323656 867.65855443 C275.89732485 867.67936635 271.32193664 867.66913843 266.74602342 867.65362334 C261.8038676 867.64229055 256.86180055 867.65978211 251.91966248 867.67352295 C242.24543802 867.69573928 232.57140769 867.69096128 222.89717567 867.67645974 C215.03373427 867.66516121 207.17034722 867.66363927 199.30690002 867.66907883 C198.18712085 867.66984499 197.06734168 867.67061116 195.9136298 867.67140054 C193.63871744 867.67299919 191.36380509 867.67462026 189.08889276 867.6762635 C167.76423317 867.6905163 146.43968112 867.67413559 125.11503917 867.64726166 C106.82322097 867.62492334 88.53156143 867.6288036 70.23974609 867.65185547 C48.99064697 867.67862171 27.74164206 867.68914305 6.49252844 867.67379415 C4.2260523 867.67220143 1.95957614 867.67062957 -0.30690002 867.66907883 C-1.42200768 867.66830745 -2.53711534 867.66753607 -3.68601415 867.66674132 C-11.53870023 867.6624268 -19.39132648 867.66970554 -27.2440033 867.68147659 C-36.81570622 867.69550925 -46.38720416 867.69168542 -55.95888364 867.66507287 C-60.84119914 867.65194511 -65.72317305 867.64676467 -70.60548592 867.66331863 C-75.0777044 867.67825264 -79.5492657 867.66997325 -84.02142483 867.64343087 C-85.6363606 867.63786051 -87.25135226 867.64065386 -88.86625189 867.65280981 C-98.75169934 867.72149456 -107.34156477 867.23849465 -114.92769289 860.21537077 C-120.89056897 853.94696205 -121.28930798 847.29051045 -121.1953125 839.0078125 C-121.1924826 838.06187225 -121.18965271 837.11593201 -121.18673706 836.1413269 C-121.17558932 833.13575306 -121.15049465 830.13048298 -121.125 827.125 C-121.11496321 825.08073349 -121.10583859 823.03646228 -121.09765625 820.9921875 C-121.07566767 815.99467556 -121.04117509 810.9973892 -121 806 C-121.62648941 805.69536835 -122.25297882 805.39073669 -122.89845276 805.07687378 C-124.95991056 804.02054261 -126.47510778 802.90057387 -128.21484375 801.3828125 C-128.81095459 800.86549561 -129.40706543 800.34817871 -130.02124023 799.81518555 C-130.65360596 799.25742432 -131.28597168 798.69966309 -131.9375 798.125 C-132.60789307 797.5369458 -133.27828613 796.9488916 -133.96899414 796.34301758 C-135.98487911 794.56817012 -137.99343567 792.78537229 -140 791 C-140.78310547 790.30801514 -140.78310547 790.30801514 -141.58203125 789.60205078 C-149.19380857 782.84941948 -156.42564426 775.69760504 -163.64456177 768.53067017 C-164.69729709 767.48597939 -165.75150799 766.442773 -166.80734253 765.4012146 C-173.6862017 758.60559235 -179.97543042 751.58012559 -186 744 C-186.87483197 742.96048854 -187.75494016 741.92534681 -188.64453125 740.8984375 C-222.81638143 701.12363531 -244.46235339 651.27797091 -254 600 C-254.21317871 598.8553125 -254.42635742 597.710625 -254.64599609 596.53125 C-257.88903611 578.09658635 -258.38798003 559.80583563 -258.4375 541.125 C-258.44376404 540.02263 -258.45002808 538.92026001 -258.45648193 537.78448486 C-258.67918559 475.80940475 -240.69368805 417.12686818 -214.3125 361.625 C-213.80734863 360.56047607 -213.30219727 359.49595215 -212.78173828 358.39916992 C-212.31364746 357.43470947 -211.84555664 356.47024902 -211.36328125 355.4765625 C-210.95376221 354.63174316 -210.54424316 353.78692383 -210.12231445 352.91650391 C-209 351 -209 351 -207 350 C-206.74420166 350.80405273 -206.48840332 351.60810547 -206.22485352 352.43652344 C-201.01490486 368.70818307 -195.72912001 384.7132895 -188 400 C-187.64083496 400.71285156 -187.28166992 401.42570312 -186.91162109 402.16015625 C-177.44602196 420.62381257 -164.27289497 437.67184197 -146 448 C-144.96875 448.639375 -143.9375 449.27875 -142.875 449.9375 C-138.82674136 451.43359558 -135.25543093 451.7978933 -131 451 C-127.80752984 449.04542643 -126.44908844 447.65096542 -125.45703125 444.00390625 C-124.67874954 435.29596187 -129.34353645 427.60173867 -133 420 C-172.14818547 337.93090029 -172.14818547 337.93090029 -158 295 C-157.79632813 294.35240723 -157.59265625 293.70481445 -157.3828125 293.03759766 C-149.69539545 268.90171804 -134.49307777 248.93680462 -117 231 C-116.48518066 230.47003418 -115.97036133 229.94006836 -115.43994141 229.39404297 C-109.52219968 223.32602102 -103.4888396 217.45997855 -97 212 C-96.04738281 211.18144531 -95.09476563 210.36289062 -94.11328125 209.51953125 C-88.52887664 204.73363468 -82.87171504 200.07318462 -77.0625 195.5625 C-69.83336388 189.9456754 -62.90092555 184.01275508 -56 178 C-54.85917969 177.01193359 -54.85917969 177.01193359 -53.6953125 176.00390625 C-51.78807443 174.34560487 -49.89172527 172.67596842 -48 171 C-47.21238281 170.30519531 -46.42476562 169.61039063 -45.61328125 168.89453125 C-14.09823312 140.85434295 6.51529011 105.06594702 9.1640625 62.35449219 C10.01359179 43.19052734 6.67695354 25.2406667 1.50292969 6.87158203 C0.89240482 4.59959968 0.41428812 2.31541027 0 0 Z " fill="transparent" transform="translate(413,64)"/>
<path d="M0 0 C9.223301 5.45018063 17.017666 11.90191489 25 19 C25.88816406 19.77601563 26.77632813 20.55203125 27.69140625 21.3515625 C30.16234868 23.53297235 32.58913768 25.75239292 35 28 C36.39798828 29.299375 36.39798828 29.299375 37.82421875 30.625 C60.73790057 52.43550044 81.56326725 85.12464421 83.17700195 117.55737305 C83.24483037 121.93433285 83.29785145 126.31004381 83.3125 130.6875 C83.31578308 131.48468445 83.31906616 132.2818689 83.32244873 133.10321045 C83.34341817 148.90269158 81.75210231 164.16318804 78.43408203 179.63964844 C76.20260403 190.06925184 74.70290919 202.87246118 79.54296875 212.7578125 C85.18700994 221.44328071 91.18422032 226.72807344 101 230 C118.54357815 231.94928646 133.665837 221.83246965 146.8503418 211.32519531 C170.6104375 191.88541614 186.50041673 164.55374476 197 136 C206.34691527 147.88201028 211.1617048 164.55534396 215 179 C215.21027832 179.76199707 215.42055664 180.52399414 215.63720703 181.30908203 C223.25011911 209.94641006 219.39420526 237.82226944 211.65653992 265.83813477 C209.98318531 271.92467077 208.63582139 278.03954803 207.5 284.25 C207.35272461 285.0342334 207.20544922 285.8184668 207.05371094 286.62646484 C203.15983056 308.1958833 202.63295538 331.94213744 215 351 C225.15424861 364.24385302 239.2863659 373.59827637 256 376 C273.27909236 377.52912322 288.43480705 373.64906631 301.98046875 362.34765625 C316.39760229 348.82164797 323.56397643 328.99918913 327 310 C331.06987885 313.83394385 334.30490637 317.91981212 337.5 322.5 C338.01844482 323.24282227 338.53688965 323.98564453 339.07104492 324.75097656 C374.70527201 376.36690603 398.51531926 435.80333734 398.375 499.125 C398.3737915 500.13645081 398.37258301 501.14790161 398.37133789 502.19000244 C398.1651215 566.04541027 376.71093878 628.52032611 336 678 C335.57380371 678.52916016 335.14760742 679.05832031 334.70849609 679.60351562 C327.94837487 687.98268971 320.52308553 695.68293959 312.9375 703.3125 C312.02766357 704.23160156 311.11782715 705.15070312 310.18041992 706.09765625 C302.90435258 713.34036214 295.21009865 719.84242601 287 726 C287 669.57 287 613.14 287 555 C291.56575207 558.91350177 296.04640809 562.84035004 300.4375 566.9375 C310.50852833 577.52614987 310.50852833 577.52614987 323.73828125 581.359375 C327.32520929 580.78943134 328.86838894 578.79773951 331 576 C332.6110832 572.7778336 332.45234922 569.49423385 332 566 C330.14764244 562.21810332 327.83323264 559.78426269 324.65625 557.12890625 C317.8316555 551.22247075 311.61251819 544.66727392 305.27246094 538.25195312 C299.64094225 532.55960507 294.05089736 526.9200248 287.94921875 521.7265625 C282.8578864 517.21680518 278.19267047 512.22589275 273.421875 507.3828125 C269.07603917 502.99698431 264.67849221 498.78770818 259.9921875 494.76953125 C255.34313762 490.64008107 251.06849096 486.10378944 246.7109375 481.671875 C245.96070313 480.91390625 245.21046875 480.1559375 244.4375 479.375 C243.77621094 478.70210937 243.11492188 478.02921875 242.43359375 477.3359375 C240.39357702 475.3777834 238.31640934 473.52511843 236.17773438 471.67773438 C232.18349073 468.2065575 228.4339939 464.54689497 224.71875 460.78125 C223.73207336 459.78889343 223.73207336 459.78889343 222.72546387 458.77648926 C219.94933442 455.98421856 217.17928463 453.18594584 214.40869141 450.38818359 C212.3683292 448.32959102 210.32485669 446.27412097 208.28125 444.21875 C207.66954956 443.59875122 207.05784912 442.97875244 206.4276123 442.33996582 C202.70114013 438.59277839 198.84115136 435.07185996 194.84240723 431.61755371 C192.42802739 429.49783283 190.16098324 427.25672255 187.90625 424.96875 C187.02066406 424.07542969 186.13507813 423.18210937 185.22265625 422.26171875 C183.40755208 420.42057292 181.59244792 418.57942708 179.77734375 416.73828125 C175.97618526 412.90392487 172.20252028 409.09978745 168.09375 405.59375 C161.84822808 400.2449562 156.19091402 394.24524069 150.41796875 388.39746094 C143.45358504 381.28643669 143.45358504 381.28643669 136.09375 374.59375 C129.2271798 368.73446592 123.0412672 362.09299848 116.69970703 355.67919922 C108.09343045 346.97672064 108.09343045 346.97672064 99.00292969 338.7890625 C96.43694119 336.49706302 94.02647879 334.06323875 91.6171875 331.609375 C91.14907654 331.13338867 90.68096558 330.65740234 90.19866943 330.16699219 C88.26481028 328.19671058 86.3340446 326.22360528 84.41259766 324.24121094 C82.98764402 322.77371424 81.55321818 321.31602307 80.1171875 319.859375 C79.27784668 318.99795898 78.43850586 318.13654297 77.57373047 317.24902344 C73.22769124 313.45128929 68.9381225 311.25592274 63.04345703 311.53662109 C54.63934191 313.44235711 47.81363243 322.98850597 42 328.9375 C36.47455653 334.57093566 30.9606557 340.13768849 24.95703125 345.26782227 C21.12567764 348.6589717 17.5856841 352.35312675 14 356 C5.57591881 364.56783684 5.57591881 364.56783684 1.1875 368.3125 C-4.5175196 373.21542774 -9.71900679 378.65054947 -15 384 C-26.65534833 395.80643618 -26.65534833 395.80643618 -32.984375 401.20703125 C-37.35450447 405.09441386 -41.39541947 409.33653022 -45.5 413.5 C-50.86425431 418.94121635 -56.2210717 424.27710842 -62.02539062 429.24804688 C-65.85938195 432.6497187 -69.40798222 436.34668499 -73 440 C-74.51827606 441.54418521 -76.03908735 443.08588206 -77.5625 444.625 C-78.22378906 445.29789063 -78.88507813 445.97078125 -79.56640625 446.6640625 C-81.55303342 448.57096948 -83.57087298 450.36564412 -85.65820312 452.15820312 C-90.64096641 456.4893565 -95.26197305 461.15538655 -99.90625 465.84375 C-101.31862932 467.2619165 -102.73101161 468.68008007 -104.14356232 470.09807587 C-106.59787501 472.56323132 -109.04884533 475.03170509 -111.5 477.5 C-114.42937203 480.44985631 -117.35936285 483.39907839 -120.29333496 486.34436035 C-122.11220613 488.17068429 -123.92882652 489.99925361 -125.74279785 491.83044434 C-130.11820648 496.22317295 -134.55983122 500.44873932 -139.26330566 504.48815918 C-141.57147321 506.49748335 -143.72838472 508.63245992 -145.875 510.8125 C-147.13570312 512.08480469 -147.13570312 512.08480469 -148.421875 513.3828125 C-149.27265625 514.24648438 -150.1234375 515.11015625 -151 516 C-160.48538992 525.62910795 -160.48538992 525.62910795 -164.96875 529.46875 C-170.09182794 533.86142928 -174.76514747 538.69721559 -179.5 543.5 C-184.98671694 549.06543598 -190.44919037 554.56081014 -196.42382812 559.60595703 C-199.30505253 562.15425185 -200.75432886 564.30207032 -201.30859375 568.1328125 C-201.53348323 572.26260115 -201.35839178 574.42657315 -199.125 578 C-196.25583428 580.70039127 -194.59995458 581.18809671 -190.75 581.3125 C-190.00234375 581.34988281 -189.2546875 581.38726563 -188.484375 581.42578125 C-182.77669015 580.4475774 -178.58065695 575.82945957 -174.63671875 571.8671875 C-174.15926712 571.38927765 -173.68181549 570.9113678 -173.18989563 570.41897583 C-172.19183801 569.41792092 -171.19618739 568.4144608 -170.20288086 567.40869141 C-168.67945024 565.86685297 -167.14801612 564.33331842 -165.61523438 562.80078125 C-160.75505617 558.31369865 -160.75505617 558.31369865 -157 553 C-156.34 553 -155.68 553 -155 553 C-155 609.76 -155 666.52 -155 725 C-158.27781548 723.36109226 -159.99465757 722.28335178 -162.546875 719.8671875 C-163.21912109 719.23385498 -163.89136719 718.60052246 -164.58398438 717.94799805 C-165.29876953 717.26390869 -166.01355469 716.57981934 -166.75 715.875 C-167.49572266 715.16577393 -168.24144531 714.45654785 -169.00976562 713.72583008 C-191.09892414 692.62993933 -191.09892414 692.62993933 -198.95703125 682.58984375 C-200.32430215 680.85657299 -201.7397996 679.16033402 -203.19921875 677.50390625 C-216.69402569 662.13544017 -227.69918032 644.17458186 -237 626 C-237.37141113 625.28166992 -237.74282227 624.56333984 -238.12548828 623.82324219 C-251.73614304 597.21444159 -261.47798555 567.86657323 -265.67626953 538.23730469 C-265.9041031 536.66274449 -266.14882373 535.09058132 -266.40576172 533.52050781 C-275.58437179 477.08599414 -265.98004168 416.12039575 -243 364 C-240.73316411 366.86337165 -239.02946947 369.74911263 -237.375 373 C-231.73593599 383.45663475 -224.10602322 392.38074625 -216 401 C-215.46246094 401.60199219 -214.92492187 402.20398438 -214.37109375 402.82421875 C-203.9773988 413.99939452 -187.81054851 424.89114938 -172.421875 426.3359375 C-162.87202603 426.43753164 -155.42283658 425.25370195 -147.1875 420.3125 C-140.09235537 412.81191853 -135.07727214 403.35985701 -134.375 392.9375 C-135.13410094 378.24787098 -142.84876919 364.96544847 -149.38284302 352.14797974 C-164.37761854 322.72834568 -179.21854517 287.8785486 -169.1953125 254.5703125 C-159.78940431 226.47554099 -140.89549296 202.67019382 -117.8828125 184.3125 C-114.70553573 181.76379018 -111.60021597 179.14129642 -108.5 176.5 C-101.85049392 170.85046379 -95.09876498 165.33174463 -88.328125 159.828125 C-44.50902212 124.1142897 -7.86337038 83.75963205 -1.18359375 25.1550293 C-0.78233011 20.44498386 -0.61777841 15.7227032 -0.4375 11 C-0.39431641 9.93910156 -0.35113281 8.87820312 -0.30664062 7.78515625 C-0.20144004 5.19020849 -0.09929881 2.59517916 0 0 Z " fill="#fff" transform="translate(447,113)"/>
<path d="M0 0 C50.46487087 23.9637655 99.75245031 60.73793836 126 111 C126.32097656 111.60924316 126.64195312 112.21848633 126.97265625 112.84619141 C146.14223556 149.77169381 145.09144176 192.0796904 136.67700195 231.79443359 C134.00158379 242.98629673 134.00158379 242.98629673 136.625 253.625 C139.67507271 255.39083157 141.50492556 255.2545795 145 255 C169.54887056 245.90924637 188.77741936 219.93691512 199.3515625 197.01171875 C208.89187556 175.61095829 215.77508394 153.24827546 219 130 C219.66 130 220.32 130 221 130 C223.76141875 132.96971542 226.21750309 136.1926467 228.72363281 139.37939453 C229.94966819 140.93609362 231.18940316 142.48197339 232.4296875 144.02734375 C260.71668608 179.86055441 278.02711923 221.74620119 278.25 267.6875 C278.2809375 269.25274414 278.2809375 269.25274414 278.3125 270.84960938 C278.38894175 286.62527597 274.20853996 301.90097008 270.47949219 317.125 C265.22130923 338.21892153 265.22130923 338.21892153 263.625 359.8125 C263.63515137 360.69776367 263.64530273 361.58302734 263.65576172 362.49511719 C263.90800078 373.16737136 265.59467984 382.86866806 273 391 C281.30160541 398.12906227 289.97408923 400.59221219 300.79296875 400.27734375 C309.79710782 399.49866668 316.62383284 396.48283166 323 390 C328.54869312 383.0367191 331.73849439 375.55735539 334 367 C334.33837891 365.74509766 334.33837891 365.74509766 334.68359375 364.46484375 C339.62394962 342.42063514 334.73383068 317.42182427 329 296 C347.55411646 308.0993365 365.12103185 324.93678484 378.84375 342.2890625 C381.05606347 345.0704856 383.36608462 347.74676854 385.6875 350.4375 C397.41541483 364.53285105 407.20969773 379.94141405 416 396 C416.4547168 396.82048828 416.90943359 397.64097656 417.37792969 398.48632812 C431.86736552 424.74779685 442.56044561 452.70144594 449 482 C449.18159668 482.81919922 449.36319336 483.63839844 449.55029297 484.48242188 C464.45582249 553.6009135 455.70428364 629.59441232 422 692 C421.608125 692.73299316 421.21625 693.46598633 420.8125 694.22119141 C409.5379107 715.23332639 395.85688791 734.21485567 380 752 C379.30535645 752.78141357 379.30535645 752.78141357 378.59667969 753.57861328 C372.2047188 760.72959137 365.51671937 767.57919136 358.75 774.375 C358.00540527 775.12426758 357.26081055 775.87353516 356.49365234 776.64550781 C351.82376906 781.30189733 347.00774201 785.7112222 342 790 C340.70365422 791.12801867 339.40807499 792.25691891 338.11328125 793.38671875 C336.84652341 794.48717402 335.57959704 795.58743532 334.3125 796.6875 C333.67505859 797.24244141 333.03761719 797.79738281 332.38085938 798.36914062 C331.75630859 798.91119141 331.13175781 799.45324219 330.48828125 800.01171875 C329.93696533 800.49084717 329.38564941 800.96997559 328.81762695 801.46362305 C327 803 327 803 324.31958008 804.64892578 C321.54559502 807.46057467 321.40936507 809.29326933 321.35800171 813.16850281 C321.37134552 813.97270157 321.38468933 814.77690033 321.3984375 815.60546875 C321.39043121 816.44410965 321.38242493 817.28275055 321.37417603 818.14680481 C321.35111397 820.82752752 321.36054974 823.5067368 321.375 826.1875 C321.37886554 828.85012937 321.37522631 831.51208156 321.35440063 834.17463684 C321.34245225 835.82863941 321.34474455 837.48283211 321.36410522 839.13676453 C321.32650474 847.02794667 319.56244882 854.55088826 313.89308023 860.32218707 C305.51186149 867.75035464 296.11325256 867.71488806 285.48937988 867.63491821 C283.81732349 867.6406856 282.14527345 867.64863085 280.47323656 867.65855443 C275.89732485 867.67936635 271.32193664 867.66913843 266.74602342 867.65362334 C261.8038676 867.64229055 256.86180055 867.65978211 251.91966248 867.67352295 C242.24543802 867.69573928 232.57140769 867.69096128 222.89717567 867.67645974 C215.03373427 867.66516121 207.17034722 867.66363927 199.30690002 867.66907883 C198.18712085 867.66984499 197.06734168 867.67061116 195.9136298 867.67140054 C193.63871744 867.67299919 191.36380509 867.67462026 189.08889276 867.6762635 C167.76423317 867.6905163 146.43968112 867.67413559 125.11503917 867.64726166 C106.82322097 867.62492334 88.53156143 867.6288036 70.23974609 867.65185547 C48.99064697 867.67862171 27.74164206 867.68914305 6.49252844 867.67379415 C4.2260523 867.67220143 1.95957614 867.67062957 -0.30690002 867.66907883 C-1.42200768 867.66830745 -2.53711534 867.66753607 -3.68601415 867.66674132 C-11.53870023 867.6624268 -19.39132648 867.66970554 -27.2440033 867.68147659 C-36.81570622 867.69550925 -46.38720416 867.69168542 -55.95888364 867.66507287 C-60.84119914 867.65194511 -65.72317305 867.64676467 -70.60548592 867.66331863 C-75.0777044 867.67825264 -79.5492657 867.66997325 -84.02142483 867.64343087 C-85.6363606 867.63786051 -87.25135226 867.64065386 -88.86625189 867.65280981 C-98.75169934 867.72149456 -107.34156477 867.23849465 -114.92769289 860.21537077 C-120.89056897 853.94696205 -121.28930798 847.29051045 -121.1953125 839.0078125 C-121.1924826 838.06187225 -121.18965271 837.11593201 -121.18673706 836.1413269 C-121.17558932 833.13575306 -121.15049465 830.13048298 -121.125 827.125 C-121.11496321 825.08073349 -121.10583859 823.03646228 -121.09765625 820.9921875 C-121.07566767 815.99467556 -121.04117509 810.9973892 -121 806 C-121.62648941 805.69536835 -122.25297882 805.39073669 -122.89845276 805.07687378 C-124.95991056 804.02054261 -126.47510778 802.90057387 -128.21484375 801.3828125 C-128.81095459 800.86549561 -129.40706543 800.34817871 -130.02124023 799.81518555 C-130.65360596 799.25742432 -131.28597168 798.69966309 -131.9375 798.125 C-132.60789307 797.5369458 -133.27828613 796.9488916 -133.96899414 796.34301758 C-135.98487911 794.56817012 -137.99343567 792.78537229 -140 791 C-140.78310547 790.30801514 -140.78310547 790.30801514 -141.58203125 789.60205078 C-149.19380857 782.84941948 -156.42564426 775.69760504 -163.64456177 768.53067017 C-164.69729709 767.48597939 -165.75150799 766.442773 -166.80734253 765.4012146 C-173.6862017 758.60559235 -179.97543042 751.58012559 -186 744 C-186.87483197 742.96048854 -187.75494016 741.92534681 -188.64453125 740.8984375 C-222.81638143 701.12363531 -244.46235339 651.27797091 -254 600 C-254.21317871 598.8553125 -254.42635742 597.710625 -254.64599609 596.53125 C-257.88903611 578.09658635 -258.38798003 559.80583563 -258.4375 541.125 C-258.44376404 540.02263 -258.45002808 538.92026001 -258.45648193 537.78448486 C-258.67918559 475.80940475 -240.69368805 417.12686818 -214.3125 361.625 C-213.80734863 360.56047607 -213.30219727 359.49595215 -212.78173828 358.39916992 C-212.31364746 357.43470947 -211.84555664 356.47024902 -211.36328125 355.4765625 C-210.95376221 354.63174316 -210.54424316 353.78692383 -210.12231445 352.91650391 C-209 351 -209 351 -207 350 C-206.74420166 350.80405273 -206.48840332 351.60810547 -206.22485352 352.43652344 C-201.01490486 368.70818307 -195.72912001 384.7132895 -188 400 C-187.64083496 400.71285156 -187.28166992 401.42570312 -186.91162109 402.16015625 C-177.44602196 420.62381257 -164.27289497 437.67184197 -146 448 C-144.96875 448.639375 -143.9375 449.27875 -142.875 449.9375 C-138.82674136 451.43359558 -135.25543093 451.7978933 -131 451 C-127.80752984 449.04542643 -126.44908844 447.65096542 -125.45703125 444.00390625 C-124.67874954 435.29596187 -129.34353645 427.60173867 -133 420 C-172.14818547 337.93090029 -172.14818547 337.93090029 -158 295 C-157.79632813 294.35240723 -157.59265625 293.70481445 -157.3828125 293.03759766 C-149.69539545 268.90171804 -134.49307777 248.93680462 -117 231 C-116.48518066 230.47003418 -115.97036133 229.94006836 -115.43994141 229.39404297 C-109.52219968 223.32602102 -103.4888396 217.45997855 -97 212 C-96.04738281 211.18144531 -95.09476563 210.36289062 -94.11328125 209.51953125 C-88.52887664 204.73363468 -82.87171504 200.07318462 -77.0625 195.5625 C-69.83336388 189.9456754 -62.90092555 184.01275508 -56 178 C-54.85917969 177.01193359 -54.85917969 177.01193359 -53.6953125 176.00390625 C-51.78807443 174.34560487 -49.89172527 172.67596842 -48 171 C-47.21238281 170.30519531 -46.42476562 169.61039063 -45.61328125 168.89453125 C-14.09823312 140.85434295 6.51529011 105.06594702 9.1640625 62.35449219 C10.01359179 43.19052734 6.67695354 25.2406667 1.50292969 6.87158203 C0.89240482 4.59959968 0.41428812 2.31541027 0 0 Z M34 49 C33.98598145 49.86443726 33.98598145 49.86443726 33.97167969 50.74633789 C33.40495315 78.92431453 28.29090959 104.62390977 16 130 C15.68160156 130.66273926 15.36320313 131.32547852 15.03515625 132.00830078 C3.24350491 156.22155163 -16.12337884 178.08584973 -37.15625 194.7265625 C-40.50811356 197.40621166 -43.75346524 200.19452047 -47 203 C-52.92028791 208.1005434 -58.92856382 213.07988802 -65 218 C-76.56252027 227.39560578 -88.07196239 236.86604125 -99 247 C-99.99386719 247.91265625 -99.99386719 247.91265625 -101.0078125 248.84375 C-119.7201781 266.72277138 -137.35262446 294.10985949 -138.203125 320.65234375 C-138.36766031 331.43809339 -137.99274768 341.56582567 -135 352 C-134.74669922 352.90298828 -134.49339844 353.80597656 -134.23242188 354.73632812 C-128.98668698 372.93797201 -121.2812406 389.44485797 -112.79685974 406.29502869 C-98.0812475 435.77402884 -98.0812475 435.77402884 -101.76171875 449.9296875 C-105.22163799 460.02225824 -110.65502084 467.57991208 -120 473 C-132.50046366 477.17182341 -144.23101109 475.54082315 -156 470 C-179.55894667 457.35784886 -196.34204642 436.54973431 -208 413 C-210.2555448 415.2555448 -210.83255394 416.8402419 -211.91796875 419.8203125 C-212.28172607 420.81772461 -212.6454834 421.81513672 -213.02026367 422.84277344 C-213.40545166 423.9259082 -213.79063965 425.00904297 -214.1875 426.125 C-214.78751831 427.81157715 -214.78751831 427.81157715 -215.3996582 429.53222656 C-243.83010656 510.53549644 -241.66737475 593.76823397 -204.73974609 671.65820312 C-193.53858643 694.85098815 -178.74605925 716.5977705 -161.265625 735.5234375 C-159.41082387 737.55092701 -157.61518508 739.608302 -155.82421875 741.69140625 C-151.60846526 746.52165176 -147.10514301 751.04150581 -142.5625 755.5625 C-141.75490234 756.37396484 -140.94730469 757.18542969 -140.11523438 758.02148438 C-131.36438919 767.07878802 -131.36438919 767.07878802 -121 774 C-121 717.24 -121 660.48 -121 602 C-121.66 602 -122.32 602 -123 602 C-124.49453185 603.47042978 -124.49453185 603.47042978 -126.05078125 605.4140625 C-130.20727113 610.29936451 -134.65552778 614.83929161 -139.1875 619.375 C-139.98091797 620.18066406 -140.77433594 620.98632812 -141.59179688 621.81640625 C-142.35943359 622.58597656 -143.12707031 623.35554687 -143.91796875 624.1484375 C-144.60656982 624.84114746 -145.2951709 625.53385742 -146.00463867 626.24755859 C-150.09581442 629.84066511 -153.49660453 630.43313961 -158.80859375 630.328125 C-162.06625662 629.8403466 -163.78262668 628.35595915 -166 626 C-167.13557238 623.72885524 -167.23084318 622.27706381 -167.3125 619.75 C-167.34988281 619.00234375 -167.38726562 618.2546875 -167.42578125 617.484375 C-166.29031005 610.85905682 -160.62026426 606.53140656 -155.875 602.25 C-148.81835991 595.77101975 -142.00875489 589.08554633 -135.29248047 582.25488281 C-131.98600719 578.9098655 -128.66472231 575.65662805 -125.09375 572.59375 C-120.13316945 568.32579721 -115.58975864 563.65930044 -111 559 C-109.29418982 557.26834421 -107.58589134 555.53913574 -105.875 553.8125 C-105.12992188 553.05582031 -104.38484375 552.29914063 -103.6171875 551.51953125 C-101.55936439 549.53849259 -99.47888126 547.67329898 -97.31445312 545.81445312 C-92.33957382 541.49387292 -87.72893731 536.83543752 -83.09375 532.15625 C-81.68137068 530.7380835 -80.26898839 529.31991993 -78.85643768 527.90192413 C-76.40212499 525.43676868 -73.95115467 522.96829491 -71.5 520.5 C-68.57062797 517.55014369 -65.64063715 514.60092161 -62.70666504 511.65563965 C-60.88779387 509.82931571 -59.07117348 508.00074639 -57.25720215 506.16955566 C-52.87310658 501.76810573 -48.42282256 497.53240516 -43.70983887 493.48498535 C-41.56439164 491.62167661 -39.55388671 489.65132331 -37.5625 487.625 C-36.81226563 486.86703125 -36.06203125 486.1090625 -35.2890625 485.328125 C-34.53367187 484.55984375 -33.77828125 483.7915625 -33 483 C-24.57721773 474.43348424 -24.57721773 474.43348424 -20.09375 470.59375 C-14.95320459 466.17593474 -10.25573727 461.32396879 -5.5 456.5 C4.51800382 446.33826585 4.51800382 446.33826585 8.90625 442.59375 C14.58553461 437.72989352 19.75065552 432.31739154 25 427 C36.74148653 415.10630901 36.74148653 415.10630901 43.078125 409.69921875 C46.89899318 406.32101212 50.42586704 402.63512499 54 399 C62.42245855 390.43381349 62.42245855 390.43381349 66.95703125 386.546875 C72.70806619 381.60642685 77.90852909 376.10033748 83.19726562 370.67578125 C84.00228516 369.85980469 84.80730469 369.04382813 85.63671875 368.203125 C86.35561279 367.46739258 87.07450684 366.73166016 87.81518555 365.97363281 C91.96936995 362.22098708 95.08002751 360.68158909 100.7421875 360.50390625 C107.21604406 361.92636262 111.85916127 366.44483629 116.30859375 371.05078125 C116.87900894 371.62781296 117.44942413 372.20484467 118.03712463 372.79936218 C119.84458355 374.63002634 121.64152234 376.47057703 123.4375 378.3125 C125.80734534 380.72907018 128.18156276 383.14127976 130.55859375 385.55078125 C131.13229706 386.13316559 131.70600037 386.71554993 132.29708862 387.31558228 C135.68955334 390.73977824 139.17486392 393.96057293 142.85180664 397.07885742 C148.94107451 402.52452725 154.55869972 408.51380289 160.30029297 414.32080078 C168.88141125 422.99902408 168.88141125 422.99902408 177.94335938 431.16601562 C183.40441525 436.03584608 188.44290152 441.39679098 193.58203125 446.60253906 C198.90343594 451.98666502 204.22145163 457.2894954 209.984375 462.20703125 C215.31635263 466.95001135 220.21484856 472.18206303 225.22265625 477.26171875 C226.10824219 478.15503906 226.99382812 479.04835938 227.90625 479.96875 C229.08670898 481.16661133 229.08670898 481.16661133 230.29101562 482.38867188 C232.43730921 484.45759366 234.60952367 486.41637777 236.86328125 488.36328125 C240.84526984 491.819316 244.57947738 495.46675907 248.28125 499.21875 C249.26792664 500.21110657 249.26792664 500.21110657 250.27453613 501.22351074 C253.05066558 504.01578144 255.82071537 506.81405416 258.59130859 509.61181641 C260.6316708 511.67040898 262.67514331 513.72587903 264.71875 515.78125 C265.33045044 516.40124878 265.94215088 517.02124756 266.5723877 517.66003418 C270.31189254 521.42032673 274.18495569 524.9563753 278.19787598 528.42272949 C280.36874404 530.32273534 282.41565363 532.31768264 284.4375 534.375 C285.18773437 535.13296875 285.93796875 535.8909375 286.7109375 536.671875 C288.23697917 538.22395833 289.76302083 539.77604167 291.2890625 541.328125 C294.7458443 544.82054373 298.2060483 548.23804242 301.9375 551.4375 C307.81410182 556.48788651 313.14430553 562.10103744 318.578125 567.6171875 C322.22671275 571.29935121 325.8529001 574.94242688 329.80078125 578.3046875 C335.92650078 583.55794208 341.50634259 589.40184212 347.1875 595.125 C348.36109203 596.30362055 349.5349186 597.48200762 350.70898438 598.66015625 C353.34291013 601.30397462 355.97563657 603.94896227 358.60263062 606.59967041 C359.9927257 607.99271029 361.39930716 609.36923417 362.8059082 610.74560547 C366.03745726 614.06597088 366.33523703 616.25347448 366.29296875 620.89453125 C365.8224574 624.27593947 364.13740472 626.42254136 362 629 C359.72885524 630.13557238 358.27706381 630.23084318 355.75 630.3125 C355.00234375 630.34988281 354.2546875 630.38726563 353.484375 630.42578125 C347.42905982 629.38799925 343.20927769 624.44285043 339.125 620.1875 C333.40054129 614.34304099 327.55370195 608.91527647 321 604 C321 660.43 321 716.86 321 775 C326.50419151 770.87185637 331.55390795 766.83149115 336.5 762.125 C337.18070557 761.48079102 337.86141113 760.83658203 338.56274414 760.17285156 C349.66306552 749.61615184 360.56157975 739.09665625 370 727 C370.92518039 725.88405382 371.85378463 724.77094045 372.78515625 723.66015625 C403.00342325 687.35578615 420.46131375 642.06080045 429 596 C429.16516113 595.1426123 429.33032227 594.28522461 429.50048828 593.40185547 C435.0678393 563.19307492 434.43667572 528.96924051 428 499 C427.78569336 497.96262695 427.57138672 496.92525391 427.35058594 495.85644531 C416.75489483 445.43822953 393.07188361 399.77738698 362 359 C360.06169599 361.90745601 359.69166144 363.01605982 359.1875 366.3125 C355.44308677 386.03498192 345.50840817 405.280447 328.8125 416.9375 C314.82335996 425.03334275 299.60455091 427.27207649 283.8125 423.9375 C267.94079395 419.22592652 254.83244764 410.23252005 246.39453125 395.8203125 C244.02420652 391.02654651 242.39533361 386.15361912 241 381 C240.77441406 380.24847656 240.54882812 379.49695313 240.31640625 378.72265625 C234.02461592 354.03280318 242.0998207 322.59428708 249.5 299.0625 C261.33587114 260.6450303 249.2747431 219.62782971 232 185 C229.28770827 187.71229173 228.35965879 190.92383682 227 194.4375 C218.12336015 216.51450898 205.90416704 236.19070026 189 253 C188.19175781 253.80824219 187.38351562 254.61648438 186.55078125 255.44921875 C176.84981658 264.63707455 165.43467683 272.10731788 153 277 C152.030625 277.433125 151.06125 277.86625 150.0625 278.3125 C141.48200168 280.23873432 133.50254169 279.72590009 126 275 C119.25941341 270.32007156 114.0827607 263.99272865 111.36328125 256.16796875 C109.01416611 242.14905584 112.13310478 228.09869298 114.80859375 214.37109375 C119.20969791 191.31721254 119.87636225 164.29752457 112 142 C111.61448975 140.8877002 111.61448975 140.8877002 111.22119141 139.75292969 C103.1838896 117.22480196 89.53486435 98.0820613 73 81 C72.09378906 80.05382812 71.18757813 79.10765625 70.25390625 78.1328125 C64.19203779 71.92477133 57.83406084 66.33882336 51 61 C50.44425293 60.56204102 49.88850586 60.12408203 49.31591797 59.67285156 C47.56898982 58.29724879 45.81701346 56.9284117 44.0625 55.5625 C43.51867676 55.13702881 42.97485352 54.71155762 42.41455078 54.27319336 C39.70647636 52.18749503 37.07798133 50.47114557 34 49 Z M94.25 391.875 C93.56292969 392.5246875 92.87585938 393.174375 92.16796875 393.84375 C91.09482422 394.91109375 91.09482422 394.91109375 90 396 C88.91138672 397.06734375 88.91138672 397.06734375 87.80078125 398.15625 C85.5163304 400.42076673 83.25517298 402.70634284 81 405 C76.15359596 409.92910718 71.27002381 414.68972211 66.02734375 419.1953125 C62.18001943 422.62009831 58.60985315 426.32854526 55 430 C46.57808043 438.56563834 46.57808043 438.56563834 42.03125 442.46875 C37.26833486 446.56202757 32.90285874 451.02646937 28.5 455.5 C19.5463451 464.59737328 19.5463451 464.59737328 15.03125 468.46875 C10.08832335 472.71188046 5.56893643 477.36183726 1 482 C-8.48538992 491.62910795 -8.48538992 491.62910795 -12.96875 495.46875 C-18.09182794 499.86142928 -22.76514747 504.69721559 -27.5 509.5 C-29.29957453 511.32539339 -31.10161769 513.14835671 -32.90625 514.96875 C-33.69322266 515.76732422 -34.48019531 516.56589844 -35.29101562 517.38867188 C-37.43288867 519.45333248 -39.60010507 521.40728929 -41.84960938 523.34960938 C-45.91409986 526.87731182 -49.72062449 530.60862352 -53.5 534.4375 C-54.17998047 535.12126709 -54.85996094 535.80503418 -55.56054688 536.50952148 C-57.70950926 538.67057055 -59.85517279 540.83484726 -62 543 C-64.83033837 545.85716017 -67.66412673 548.71083454 -70.5 551.5625 C-71.45036133 552.52530884 -71.45036133 552.52530884 -72.41992188 553.50756836 C-75.44923271 556.55317008 -78.51735486 559.48362863 -81.78125 562.27734375 C-82.39977781 562.84006233 -83.01830563 563.40278091 -83.65557671 563.98255157 C-86 566 -86 566 -88.77266121 567.8755722 C-94.03587041 571.97650322 -97.08139588 575.43997408 -98.00674057 582.209198 C-98.52417502 588.94742549 -98.39619067 595.68379561 -98.29638672 602.43554688 C-98.29819654 605.03326146 -98.30481186 607.63097647 -98.31585693 610.22866821 C-98.33387133 616.53278526 -98.29382082 622.8352382 -98.23411773 629.13904554 C-98.16699558 636.4818691 -98.15994221 643.82438922 -98.15569462 651.16747361 C-98.14627043 664.26467942 -98.08564258 677.3611356 -97.99462891 690.45800781 C-97.90638065 703.16703228 -97.84981658 715.87564003 -97.83056641 728.58496094 C-97.82937266 729.3689416 -97.82817891 730.15292227 -97.82694899 730.96065992 C-97.82220844 734.11192222 -97.81749721 737.26318457 -97.81287085 740.41444704 C-97.79411858 752.53228725 -97.7515125 764.65005915 -97.70440175 776.7678183 C-97.69023124 780.42813737 -97.67711482 784.08845398 -97.66642904 787.74878502 C-97.64187678 796.09001055 -97.60318225 804.43089062 -97.54055023 812.77192307 C-97.52374968 815.3023582 -97.51203064 817.83283271 -97.5056572 820.36331558 C-97.49598411 823.80607702 -97.46791329 827.24819203 -97.43478394 830.6907959 C-97.43601914 831.70176441 -97.43725435 832.71273292 -97.43852699 833.75433683 C-97.42577016 834.67314272 -97.41301332 835.59194861 -97.39986992 836.53859711 C-97.39263446 837.73089817 -97.39263446 837.73089817 -97.38525283 838.94728613 C-97.12372805 841.04838016 -97.12372805 841.04838016 -95.875301 842.75506788 C-93.10545309 844.59385143 -90.90274157 844.37741459 -87.59531403 844.38031673 C-86.61136899 844.38730661 -86.61136899 844.38730661 -85.60754627 844.3944377 C-83.39396651 844.40645576 -81.18099287 844.39696664 -78.96740723 844.38768005 C-77.37065458 844.39185001 -75.77390489 844.39732565 -74.17716074 844.40399987 C-69.77726297 844.41851761 -65.3775515 844.41419013 -60.97764325 844.40683305 C-56.23728988 844.40211929 -51.49697786 844.41459524 -46.75663757 844.42485046 C-37.46551959 844.4420787 -28.17446911 844.44287021 -18.88333929 844.43763756 C-11.3348016 844.43360235 -3.78628392 844.43503167 3.76225281 844.44038582 C5.37144105 844.44150845 5.37144105 844.44150845 7.01313815 844.44265376 C9.19223536 844.44418518 11.37133256 844.44572352 13.55042976 844.44726873 C34.00210342 844.46100816 54.45373887 844.4555458 74.90541166 844.44408352 C93.63352611 844.43414804 112.36154182 844.44709471 131.08964103 844.47101771 C150.30110162 844.49537405 169.51251615 844.50502523 188.72399187 844.49836498 C199.51725161 844.49486524 210.31043536 844.4971545 221.10368347 844.51461601 C230.29108126 844.52929468 239.47834953 844.5300304 248.66574466 844.5125451 C253.35673557 844.5039971 258.04749471 844.5019776 262.73847389 844.51719666 C267.02794419 844.53094128 271.31698192 844.52641394 275.60642654 844.50695742 C277.16290622 844.50316542 278.71941972 844.50621035 280.27586955 844.51656907 C282.38288162 844.52960108 284.48836974 844.51828267 286.59531403 844.50057125 C287.76816279 844.50046391 288.94101155 844.50035658 290.14940119 844.50024599 C293.06753048 844.25485683 293.06753048 844.25485683 294.875301 842.25426638 C296.12088088 839.75771498 296.38294125 838.20877872 296.39986992 835.43116665 C296.41262675 834.51385311 296.42538358 833.59653956 296.43852699 832.65142864 C296.43729178 831.64726392 296.43605657 830.6430992 296.43478394 829.60850525 C296.45027068 828.00405913 296.45027068 828.00405913 296.46607029 826.36719996 C296.49685209 822.77070775 296.50602942 819.17448863 296.51513672 815.57788086 C296.53229285 813.00403068 296.55061097 810.43018803 296.57000732 807.85635376 C296.62450211 800.12342654 296.65017536 792.39050267 296.67285842 784.6574274 C296.68420865 781.01325953 296.69873101 777.36910455 296.71295547 773.72494698 C296.75917224 761.60618118 296.79845632 749.48742648 296.81632805 737.36858273 C296.82103772 734.22464429 296.82575741 731.08070587 296.83056641 727.93676758 C296.83175532 727.15538331 296.83294423 726.37399905 296.83416916 725.56893647 C296.8547059 712.91804926 296.92280796 700.26789424 297.01108728 687.61731642 C297.10104057 674.62084523 297.14943496 661.62474438 297.15698445 648.62795931 C297.16222405 641.3339596 297.1853438 634.04099452 297.25472641 626.74729729 C297.31985823 619.88250333 297.32838306 613.0196235 297.29906464 606.15459061 C297.29730404 603.63872018 297.31428141 601.1227543 297.35163498 598.60716057 C298.15052164 584.09205741 298.15052164 584.09205741 292.16957772 571.52851635 C289.92859123 569.44858168 287.53126241 567.70905 285 566 C283.65206764 564.85023166 282.31501622 563.6872747 281 562.5 C280.36707031 561.95859375 279.73414063 561.4171875 279.08203125 560.859375 C274.01505355 556.33426921 269.33194506 551.37951192 264.56347656 546.54296875 C257.98020429 539.84418601 257.98020429 539.84418601 251.03125 533.53125 C245.00840149 528.37932256 239.55310573 522.60817867 233.99072266 516.97021484 C227.1838643 510.036338 227.1838643 510.036338 220 503.5 C213.98555004 498.3615007 208.54247754 492.59740606 202.99072266 486.97021484 C197.80723385 481.72271155 192.61418724 476.57415946 187.00195312 471.77929688 C181.89886668 467.24377321 177.21093719 462.24443624 172.421875 457.3828125 C168.75946349 453.68669782 165.11794054 450.03255026 161.15625 446.65625 C154.68820114 441.11035269 148.82871696 434.88236291 142.84521484 428.82470703 C137.38138885 423.29928941 131.93264096 417.84289613 126.01123047 412.80175781 C121.0594174 408.36568347 116.5108591 403.45864217 111.90991211 398.66308594 C110.54948105 397.24818055 109.17529327 395.8465429 107.80078125 394.4453125 C106.99809814 393.61531738 106.19541504 392.78532227 105.3684082 391.93017578 C101.12198623 388.46947976 98.2432362 388.0353498 94.25 391.875 Z " fill="#FDFDFD" transform="translate(413,64)"/>
<path d="M0 0 C1.24487183 -0.00990463 2.48974365 -0.01980927 3.77233887 -0.03001404 C5.13891701 -0.02577658 6.50549419 -0.02121878 7.87207031 -0.01637268 C9.3213351 -0.02207927 10.77059539 -0.02904465 12.21984863 -0.03717041 C16.14545589 -0.05508364 20.0708394 -0.05393713 23.99647522 -0.04822803 C27.27686034 -0.04513399 30.55720262 -0.0512309 33.83758163 -0.05726677 C41.57697882 -0.07130389 49.31626561 -0.06975705 57.05566406 -0.05836487 C65.03444758 -0.04687971 73.01289512 -0.06096769 80.99163437 -0.08776134 C87.84871663 -0.10992435 94.70569346 -0.11655452 101.56280899 -0.11068493 C105.65535786 -0.10731614 109.74769128 -0.10972533 113.84020996 -0.12693596 C117.68827768 -0.14241313 121.53584776 -0.13844148 125.38389587 -0.11963081 C126.79397996 -0.11594725 128.20410098 -0.11904672 129.614151 -0.1295166 C142.91912664 -0.22074807 142.91912664 -0.22074807 147.70019531 4.38768005 C150.80309907 7.74379407 151.08081808 10.07026 151.10133362 14.59210205 C151.11412857 15.866436 151.12692352 17.14076996 151.1401062 18.45372009 C151.13905768 19.86375455 151.1376731 21.27378879 151.13598633 22.68382263 C151.14496414 24.17058065 151.15517244 25.65733166 151.16651917 27.14407349 C151.19302377 31.18140534 151.20005287 35.21854645 151.20196652 39.25595689 C151.2040992 41.77941956 151.21050438 44.30283377 151.21845818 46.82628441 C151.24621496 55.63299513 151.25846351 64.43956962 151.25610352 73.24632263 C151.25430191 81.4501079 151.28594265 89.65330087 151.33333451 97.85693628 C151.37259253 104.90423004 151.38865387 111.9513305 151.38673729 118.99873275 C151.38597312 123.2060504 151.39448107 127.41284187 151.42627144 131.62005043 C151.45536926 135.5790572 151.45551763 139.5370369 151.43372154 143.4960804 C151.43059038 144.94607294 151.43763567 146.39613001 151.45580292 147.84601212 C151.59990501 160.14678326 151.59990501 160.14678326 147.84214783 164.74295044 C144.16454941 168.34983863 140.71866444 168.51523364 135.72319031 168.53485107 C134.47402832 168.54200638 133.22486633 168.54916168 131.93785095 168.55653381 C130.55093409 168.55937403 129.16401695 168.56208576 127.77709961 168.56468201 C126.31842894 168.57094756 124.85975986 168.57759445 123.40109253 168.58459473 C118.60887766 168.60562467 113.8166625 168.61599536 109.02441406 168.6259613 C107.3743011 168.6300091 105.72418831 168.63412603 104.0740757 168.63831139 C96.32239422 168.65735985 88.57072226 168.67159222 80.81902188 168.67992336 C71.87189021 168.68969821 62.92500578 168.7160255 53.97796124 168.75642425 C47.06151389 168.78658237 40.14513743 168.80139189 33.2286256 168.80470437 C29.09799626 168.80705501 24.96763116 168.81601716 20.83707237 168.84116554 C16.95051151 168.86444649 13.06438886 168.86867965 9.17777634 168.85840416 C7.75316599 168.8579087 6.32853407 168.86423213 4.90398979 168.87796021 C-7.18859696 168.98795309 -7.18859696 168.98795309 -11.00675964 166.67080688 C-15.25978723 162.43617511 -16.67405198 159.17533248 -16.68748474 153.17689514 C-16.69738937 151.92642899 -16.70729401 150.67596283 -16.71749878 149.38760376 C-16.713261 148.00953576 -16.70870317 146.63146871 -16.70385742 145.25340271 C-16.70956232 143.79605587 -16.71652705 142.33871351 -16.72465515 140.88137817 C-16.74259039 136.92878647 -16.74141733 132.97641673 -16.73571277 129.02379656 C-16.73262087 125.72118801 -16.7387135 122.41862209 -16.74475151 119.11601961 C-16.75879685 111.32242239 -16.75723591 103.52893479 -16.74584961 95.7353363 C-16.73437309 87.70263073 -16.74843606 79.67025922 -16.77524608 71.63759768 C-16.79742052 64.73466063 -16.80403641 57.83182829 -16.79816967 50.92885816 C-16.79480247 46.8088763 -16.79719907 42.68910847 -16.8144207 38.56915665 C-16.82991528 34.6931941 -16.82590689 30.81772521 -16.80711555 26.941782 C-16.80343631 25.52244344 -16.8065188 24.10306812 -16.81700134 22.6837635 C-16.91118254 8.87324807 -16.91118254 8.87324807 -12.29980469 3.38768005 C-8.05911902 0.84577682 -4.91887131 0.0110867 0 0 Z " fill="#FDFDFC" transform="translate(445.2998046875,649.6123199462891)"/>
<path d="M0 0 C16.17 0 32.34 0 49 0 C49 16.83 49 33.66 49 51 C32.83 51 16.66 51 0 51 C0 34.17 0 17.34 0 0 Z " fill="transaparent" transform="translate(524,745)"/>
<path d="M0 0 C15.84 0 31.68 0 48 0 C48 16.83 48 33.66 48 51 C32.16 51 16.32 51 0 51 C0 34.17 0 17.34 0 0 Z " fill="transaparent" transform="translate(453,745)"/>
<path d="M0 0 C16.17 0 32.34 0 49 0 C49 16.17 49 32.34 49 49 C32.83 49 16.66 49 0 49 C0 32.83 0 16.66 0 0 Z " fill="transaparent" transform="translate(524,674)"/>
<path d="M0 0 C15.84 0 31.68 0 48 0 C48 16.17 48 32.34 48 49 C32.16 49 16.32 49 0 49 C0 32.83 0 16.66 0 0 Z " fill="transaparent" transform="translate(453,674)"/>
<path d="M0 0 C0.66 0 1.32 0 2 0 C2 56.76 2 113.52 2 172 C1.01 171.67 0.02 171.34 -1 171 C-2.40507459 167.60574417 -2.11025152 163.97808308 -2.08901978 160.35778809 C-2.08523443 159.35846638 -2.08523443 159.35846638 -2.08137262 158.33895636 C-2.07165573 156.10807855 -2.05462061 153.87731751 -2.03759766 151.64648438 C-2.02908976 150.04649574 -2.02101848 148.44650473 -2.01335144 146.84651184 C-1.99115893 142.50153963 -1.96248607 138.15663228 -1.93239641 133.81170845 C-1.90173711 129.26653984 -1.87611194 124.72134237 -1.84970093 120.17614746 C-1.80451178 112.54302365 -1.75503407 104.90993634 -1.703125 97.27685547 C-1.64315658 88.44958247 -1.5903756 79.62228818 -1.54135668 70.7949481 C-1.49401835 62.30640938 -1.44119147 53.81791298 -1.38599777 45.329422 C-1.36262045 41.71548795 -1.34124692 38.10155021 -1.32149124 34.4875946 C-1.29801177 30.23258942 -1.2697571 25.97764221 -1.23780251 21.72269249 C-1.22684734 20.16019967 -1.21755555 18.59769419 -1.21003914 17.03518105 C-1.19951668 14.90413111 -1.18299932 12.77320944 -1.16494751 10.64221191 C-1.15719614 9.44907631 -1.14944477 8.2559407 -1.14145851 7.02664948 C-1.02317554 4.49586436 -0.74369195 2.40692489 0 0 Z " fill="#424242" transform="translate(290,666)"/>
<path d="M0 0 C16.17 0 32.34 0 49 0 C49 16.83 49 33.66 49 51 C32.83 51 16.66 51 0 51 C0 34.17 0 17.34 0 0 Z M2 2 C2 17.51 2 33.02 2 49 C17.18 49 32.36 49 48 49 C48 33.49 48 17.98 48 2 C32.82 2 17.64 2 2 2 Z " fill="#0C0C0C" transform="translate(524,745)"/>
<path d="M0 0 C15.84 0 31.68 0 48 0 C48 16.83 48 33.66 48 51 C32.16 51 16.32 51 0 51 C0 34.17 0 17.34 0 0 Z M1 2 C1 17.51 1 33.02 1 49 C15.85 49 30.7 49 46 49 C46 33.49 46 17.98 46 2 C31.15 2 16.3 2 1 2 Z " fill="#0D0D0C" transform="translate(453,745)"/>
<path d="M0 0 C4.08663421 1.6162553 6.78950866 4.55195312 9.796875 7.63671875 C10.62557098 8.47321709 10.62557098 8.47321709 11.4710083 9.32661438 C13.23550514 11.10887805 14.99318795 12.89766335 16.75 14.6875 C19.0538559 17.0281536 21.36090562 19.36558792 23.671875 21.69921875 C24.2314389 22.26432663 24.79100281 22.82943451 25.36752319 23.41166687 C28.78930659 26.84575792 32.30667125 30.0912824 36.00195312 33.23120117 C40.49499696 37.20873081 44.65277834 41.55205488 48.875 45.8125 C49.83309606 46.77562672 50.79142804 47.7385188 51.75 48.70117188 C54.16878844 51.1320198 56.58464444 53.56574266 59 56 C59.66 56.66 60.32 57.32 61 58 C58 58 58 58 55.49145508 55.81616211 C54.4932429 54.81068266 53.50313143 53.79712174 52.51953125 52.77734375 C51.98784836 52.23904434 51.45616547 51.70074493 50.90837097 51.14613342 C49.20252719 49.41685287 47.50708947 47.67780465 45.8125 45.9375 C43.5936976 43.67197249 41.37059651 41.41073441 39.14453125 39.15234375 C38.60184601 38.60106812 38.05916077 38.04979248 37.50003052 37.48181152 C34.17476657 34.12429557 30.74864068 30.97237504 27.1472168 27.91137695 C22.48129868 23.75794058 18.12283955 19.26971816 13.71533203 14.84570312 C11.97934037 13.10427568 10.23796858 11.36835324 8.49609375 9.6328125 C7.39290774 8.52896698 6.29003127 7.42481199 5.1875 6.3203125 C4.66575195 5.80058868 4.14400391 5.28086487 3.60644531 4.74539185 C0 1.11499844 0 1.11499844 0 0 Z " fill="#111212" transform="translate(586,489)"/>
<path d="M0 0 C2.92778584 1.32067952 4.98514185 2.74227054 7.23632812 5.02514648 C7.84375854 5.63595566 8.45118896 6.24676483 9.07702637 6.87608337 C9.72192017 7.5344368 10.36681396 8.19279022 11.03125 8.87109375 C11.70418091 9.54922623 12.37711182 10.2273587 13.07043457 10.92604065 C15.21842995 13.09183013 17.35962312 15.26418315 19.5 17.4375 C21.6412194 19.60638063 23.78389203 21.77377305 25.92956543 23.93824768 C27.26349904 25.28438872 28.59475032 26.63319444 29.92297363 27.98497009 C32.80637154 30.89936945 35.5956469 33.68267516 39 36 C38.505 36.99 38.505 36.99 38 38 C32.68529024 33.44796696 27.59556415 28.7446361 22.65625 23.7890625 C22.00168823 23.13545746 21.34712646 22.48185242 20.67272949 21.80844116 C19.30695937 20.44334531 17.94242607 19.07701096 16.57910156 17.70947266 C14.48096379 15.60591462 12.37745702 13.50782954 10.2734375 11.41015625 C8.94238704 10.07844606 7.61164623 8.74642628 6.28125 7.4140625 C5.65013306 6.78496979 5.01901611 6.15587708 4.36877441 5.50772095 C0 1.11498854 0 1.11498854 0 0 Z " fill="#111212" transform="translate(649,550)"/>
<path d="M0 0 C1.7706504 3.05708033 2.24808843 5.25433748 2.23046875 8.7734375 C2.22853516 9.6809375 2.22660156 10.5884375 2.22460938 11.5234375 C2.21236328 12.46445313 2.20011719 13.40546875 2.1875 14.375 C2.18685547 15.30828125 2.18621094 16.2415625 2.18554688 17.203125 C2.15555703 21.90819914 1.96693166 26.37419892 1 31 C-0.89502717 27.7892034 -1.24707848 25.42630307 -1.23046875 21.71875 C-1.22853516 20.71199219 -1.22660156 19.70523438 -1.22460938 18.66796875 C-1.21236328 17.62253906 -1.20011719 16.57710937 -1.1875 15.5 C-1.18685547 14.45457031 -1.18621094 13.40914062 -1.18554688 12.33203125 C-1.13683773 3.87828933 -1.13683773 3.87828933 0 0 Z " fill="#252525" transform="translate(421,104)"/>
<path d="M0 0 C3.95620226 1.59146167 6.58068245 4.34062638 9.5 7.33984375 C10.01755859 7.86260391 10.53511719 8.38536407 11.06835938 8.92396545 C12.71708102 10.59044653 14.35895063 12.26346592 16 13.9375 C17.64189016 15.60709224 19.28524708 17.27517094 20.93164062 18.94032288 C21.95399561 19.9748426 22.97366618 21.01202418 23.99023438 22.05223083 C26.51660246 24.61390818 29.04913532 26.93691758 32 29 C31.67 29.66 31.34 30.32 31 31 C24.52366647 25.56892766 18.52889126 19.68364632 12.56982422 13.70019531 C10.97869157 12.10361866 9.38217285 10.51256389 7.78515625 8.921875 C6.773116 7.90917535 5.76138524 6.8961663 4.75 5.8828125 C3.83734375 4.96902832 2.9246875 4.05524414 1.984375 3.11376953 C0 1 0 1 0 0 Z " fill="#101010" transform="translate(521,426)"/>
<path d="M0 0 C11.38392857 6.96428571 11.38392857 6.96428571 14 11 C9.09594044 9.4133925 7.36893593 7.64077994 3 4 C2.34 10.93 1.68 17.86 1 25 C0.67 25 0.34 25 0 25 C0 16.75 0 8.5 0 0 Z " fill="#0B0C0B" transform="translate(447,113)"/>
<path d="M0 0 C0.66 0.33 1.32 0.66 2 1 C1.57702637 1.41773682 1.15405273 1.83547363 0.71826172 2.26586914 C-1.23223303 4.19533071 -3.17862542 6.12888256 -5.125 8.0625 C-5.79015625 8.71927734 -6.4553125 9.37605469 -7.140625 10.05273438 C-10.86412636 13.75798328 -14.3519738 17.49683311 -17.57373047 21.65014648 C-19.30545011 23.28908484 -20.67806392 23.60825471 -23 24 C-18.32533663 18.37696243 -13.32234333 13.20258446 -8.125 8.0625 C-7.34125 7.28326172 -6.5575 6.50402344 -5.75 5.70117188 C-3.83561419 3.79845915 -1.91891966 1.89813829 0 0 Z " fill="#070707" transform="translate(363,595)"/>
<path d="M0 0 C0.33 0 0.66 0 1 0 C1.33 4.29 1.66 8.58 2 13 C1.01 13 0.02 13 -1 13 C-1.0272415 11.58344207 -1.04650467 10.16672955 -1.0625 8.75 C-1.07410156 7.96109375 -1.08570313 7.1721875 -1.09765625 6.359375 C-1.00385306 4.09308998 -0.63241063 2.1711105 0 0 Z " fill="#2B2A2A" transform="translate(842,574)"/>
<path d="M0 0 C0.33 0 0.66 0 1 0 C1.125 7.75 1.125 7.75 0 10 C-0.35169068 11.32860925 -0.68770276 12.66158328 -1 14 C-1.93385816 11.19842552 -2.16354595 9.34552197 -2.1875 6.4375 C-2.20167969 5.65246094 -2.21585938 4.86742187 -2.23046875 4.05859375 C-2 2 -2 2 0 0 Z " fill="#272827" transform="translate(556,259)"/>
<path d="M0 0 C0.33 0 0.66 0 1 0 C1.33 3.96 1.66 7.92 2 12 C1.34 12 0.68 12 0 12 C-0.76173392 7.6835078 -1.16063604 4.25566547 0 0 Z " fill="#2D2C2C" transform="translate(157,650)"/>
<path d="M0 0 C0.99 0.33 1.98 0.66 3 1 C0.69 3.64 -1.62 6.28 -4 9 C-4.66 8.67 -5.32 8.34 -6 8 C-4.02 5.36 -2.04 2.72 0 0 Z " fill="#121111" transform="translate(619,297)"/>
<path d="M0 0 C0.99 0.33 1.98 0.66 3 1 C0.03 3.475 0.03 3.475 -3 6 C-3.66 5.67 -4.32 5.34 -5 5 C-3.35 3.35 -1.7 1.7 0 0 Z " fill="#111111" transform="translate(345,613)"/>
<path d="M0 0 C-1.15173355 2.46800047 -2.04783565 4.04783565 -4 6 C-4.99 5.67 -5.98 5.34 -7 5 C-2.25 0 -2.25 0 0 0 Z " fill="#272727" transform="translate(335,624)"/>
</svg>
